SplineFontDB: 3.0
FontName: TitilliumWeb-Light
FullName: Titillium WebLight
FamilyName: Titillium Web
Weight: Light
Copyright: Copyright (c) 2009-2011 by Accademia di Belle Arti di Urbino and students of MA course of Visual design. Some rights reserved.
Version: 1.001;PS 57.000;hotconv 1.0.70;makeotf.lib2.5.55311
ItalicAngle: 0
UnderlinePosition: -80
UnderlineWidth: 30
Ascent: 800
Descent: 200
sfntRevision: 0x00010000
LayerCount: 2
Layer: 0 1 "Back"  1
Layer: 1 1 "Fore"  0
XUID: [1021 172 1745452295 3105653]
FSType: 8
OS2Version: 3
OS2_WeightWidthSlopeOnly: 0
OS2_UseTypoMetrics: 1
CreationTime: 1349090286
ModificationTime: 1349108893
PfmFamily: 81
TTFWeight: 300
TTFWidth: 5
LineGap: 0
VLineGap: 0
Panose: 0 0 4 0 0 0 0 0 0 0
OS2TypoAscent: 1133
OS2TypoAOffset: 0
OS2TypoDescent: -388
OS2TypoDOffset: 0
OS2TypoLinegap: 0
OS2WinAscent: 1133
OS2WinAOffset: 0
OS2WinDescent: 388
OS2WinDOffset: 0
HheadAscent: 1133
HheadAOffset: 0
HheadDescent: -388
HheadDOffset: 0
OS2SubXSize: 650
OS2SubYSize: 600
OS2SubXOff: 0
OS2SubYOff: 75
OS2SupXSize: 650
OS2SupYSize: 600
OS2SupXOff: 0
OS2SupYOff: 350
OS2StrikeYSize: 30
OS2StrikeYPos: 300
OS2Vendor: 'UKWN'
OS2CodePages: 20000093.00000000
OS2UnicodeRanges: 00000007.00000001.00000000.00000000
Lookup: 1 0 0 "'locl' Localized Forms in Latin lookup 0"  {"'locl' Localized Forms in Latin lookup 0 subtable"  } ['locl' ('DFLT' <'dflt' > 'latn' <'dflt' > ) ]
Lookup: 1 0 0 "'frac' Diagonal Fractions in Latin lookup 1"  {"'frac' Diagonal Fractions in Latin lookup 1 subtable"  } ['frac' ('DFLT' <'dflt' > 'latn' <'dflt' > ) ]
Lookup: 6 0 0 "'frac' Diagonal Fractions in Latin lookup 2"  {"'frac' Diagonal Fractions in Latin lookup 2 subtable"  } ['frac' ('DFLT' <'dflt' > 'latn' <'dflt' > ) ]
Lookup: 1 0 0 "'frac' Diagonal Fractions in Latin lookup 3"  {"'frac' Diagonal Fractions in Latin lookup 3 subtable"  } ['frac' ('DFLT' <'dflt' > 'latn' <'dflt' > ) ]

StartChar: exclam
Encoding: 33 33 4
Width: 239
GlyphClass: 2
Flags: W
LayerCount: 2
Fore
SplineSet
87 0 m 1,0,-1
 87 100 l 1,1,-1
 153 100 l 1,2,-1
 153 0 l 1,3,-1
 87 0 l 1,0,-1
91 223 m 1,4,-1
 88 695 l 1,5,-1
 151 695 l 1,6,-1
 147 223 l 1,7,-1
 91 223 l 1,4,-1
EndSplineSet
EndChar

StartChar: quotedbl
Encoding: 34 34 5
Width: 364
GlyphClass: 2
Flags: W
LayerCount: 2
Fore
SplineSet
291 477 m 1,0,-1
 236 477 l 1,1,-1
 233 695 l 1,2,-1
 295 695 l 1,3,-1
 291 477 l 1,0,-1
127 477 m 1,4,-1
 73 477 l 1,5,-1
 69 695 l 1,6,-1
 131 695 l 1,7,-1
 127 477 l 1,4,-1
EndSplineSet
EndChar

StartChar: numbersign
Encoding: 35 35 6
Width: 560
GlyphClass: 2
Flags: W
LayerCount: 2
Fore
SplineSet
533 180 m 1,0,-1
 419 180 l 1,1,-1
 419 0 l 1,2,-1
 363 0 l 1,3,-1
 363 180 l 1,4,-1
 196 180 l 1,5,-1
 196 0 l 1,6,-1
 140 0 l 1,7,-1
 140 180 l 1,8,-1
 26 180 l 1,9,-1
 26 232 l 1,10,-1
 140 232 l 1,11,-1
 140 433 l 1,12,-1
 26 433 l 1,13,-1
 26 485 l 1,14,-1
 140 485 l 1,15,-1
 140 667 l 1,16,-1
 196 667 l 1,17,-1
 196 485 l 1,18,-1
 363 485 l 1,19,-1
 363 667 l 1,20,-1
 419 667 l 1,21,-1
 419 485 l 1,22,-1
 533 485 l 1,23,-1
 533 433 l 1,24,-1
 419 433 l 1,25,-1
 419 232 l 1,26,-1
 533 232 l 1,27,-1
 533 180 l 1,0,-1
363 232 m 1,28,-1
 363 433 l 1,29,-1
 196 433 l 1,30,-1
 196 232 l 1,31,-1
 363 232 l 1,28,-1
EndSplineSet
EndChar

StartChar: dollar
Encoding: 36 36 7
Width: 560
GlyphClass: 2
Flags: W
LayerCount: 2
Fore
SplineSet
490 193 m 0,0,1
 490 87 490 87 437.5 39.5 c 128,-1,2
 385 -8 385 -8 283 -8 c 2,3,-1
 266 -8 l 1,4,-1
 251 -123 l 1,5,6
 206 -120 206 -120 206 -116 c 2,7,-1
 220 -5 l 1,8,-1
 77 10 l 1,9,-1
 84 61 l 1,10,11
 161 51 161 51 227 47 c 1,12,-1
 262 315 l 1,13,14
 211 325 211 325 179.5 336.5 c 128,-1,15
 148 348 148 348 122 368 c 0,16,17
 72 405 72 405 72 497 c 0,18,19
 72 670 72 670 281 670 c 0,20,21
 298 670 298 670 308 669 c 1,22,-1
 324 795 l 1,23,-1
 369 795 l 1,24,-1
 352 666 l 1,25,-1
 475 652 l 1,26,-1
 471 601 l 1,27,28
 403 609 403 609 345 614 c 1,29,-1
 313 363 l 1,30,31
 408 343 408 343 449 307.5 c 128,-1,32
 490 272 490 272 490 193 c 0,0,1
132 501 m 0,33,34
 132 438 132 438 161.5 413 c 128,-1,35
 191 388 191 388 269 372 c 1,36,-1
 301 617 l 1,37,-1
 285 617 l 2,38,39
 132 617 132 617 132 501 c 0,33,34
281 45 m 2,40,41
 430 45 430 45 430 178 c 0,42,43
 430 243 430 243 402.5 267 c 128,-1,44
 375 291 375 291 306 306 c 1,45,-1
 273 45 l 1,46,-1
 281 45 l 2,40,41
EndSplineSet
EndChar

StartChar: percent
Encoding: 37 37 8
Width: 560
GlyphClass: 2
Flags: W
LayerCount: 2
Fore
SplineSet
162 -3 m 1,0,-1
 360 676 l 1,1,-1
 402 663 l 1,2,-1
 204 -15 l 1,3,-1
 162 -3 l 1,0,-1
139 670 m 128,-1,5
 246 670 246 670 246 533 c 0,6,7
 246 463 246 463 217.5 428 c 128,-1,8
 189 393 189 393 139 393 c 128,-1,9
 89 393 89 393 60.5 428 c 128,-1,10
 32 463 32 463 32 534 c 0,11,4
 32 670 32 670 139 670 c 128,-1,5
83 534 m 0,12,13
 83 437 83 437 139 437 c 0,14,15
 170 437 170 437 183 460.5 c 128,-1,16
 196 484 196 484 196 532.5 c 128,-1,17
 196 581 196 581 183 603.5 c 128,-1,18
 170 626 170 626 139.5 626 c 128,-1,19
 109 626 109 626 96 603.5 c 128,-1,20
 83 581 83 581 83 534 c 0,12,13
314 131 m 0,21,22
 314 267 314 267 421.5 267 c 128,-1,23
 529 267 529 267 529 130 c 0,24,25
 529 60 529 60 500 25 c 128,-1,26
 471 -10 471 -10 421 -10 c 128,-1,27
 371 -10 371 -10 342.5 25 c 128,-1,28
 314 60 314 60 314 131 c 0,21,22
365 131 m 0,29,30
 365 34 365 34 421.5 34 c 128,-1,31
 478 34 478 34 478 130 c 0,32,33
 478 178 478 178 465 200.5 c 128,-1,34
 452 223 452 223 421.5 223 c 128,-1,35
 391 223 391 223 378 201 c 128,-1,36
 365 179 365 179 365 131 c 0,29,30
EndSplineSet
EndChar

StartChar: ampersand
Encoding: 38 38 9
Width: 685
GlyphClass: 2
Flags: W
LayerCount: 2
Fore
SplineSet
190.5 658.5 m 128,-1,1
 234 698 234 698 315 698 c 128,-1,2
 396 698 396 698 437.5 658.5 c 128,-1,3
 479 619 479 619 479 549 c 128,-1,4
 479 479 479 479 443 438.5 c 128,-1,5
 407 398 407 398 321 362 c 1,6,-1
 485 199 l 1,7,8
 495 225 495 225 504.5 278 c 128,-1,9
 514 331 514 331 516 370 c 1,10,-1
 575 369 l 1,11,12
 562 239 562 239 530 160 c 1,13,-1
 663 33 l 1,14,-1
 626 -8 l 1,15,-1
 501 111 l 1,16,17
 434 -10 434 -10 284 -10 c 0,18,19
 153 -10 153 -10 98.5 44.5 c 128,-1,20
 44 99 44 99 44 196 c 128,-1,21
 44 293 44 293 80.5 336.5 c 128,-1,22
 117 380 117 380 202 406 c 1,23,24
 168 445 168 445 157.5 475.5 c 128,-1,25
 147 506 147 506 147 553 c 0,26,0
 147 619 147 619 190.5 658.5 c 128,-1,1
281 45 m 0,27,28
 408 45 408 45 459 148 c 1,29,-1
 238 367 l 1,30,31
 164 346 164 346 134 311 c 128,-1,32
 104 276 104 276 104 202 c 0,33,34
 104 45 104 45 281 45 c 0,27,28
207 545 m 0,35,36
 207 476 207 476 252 431 c 1,37,-1
 283 399 l 1,38,39
 359 429 359 429 388.5 459.5 c 128,-1,40
 418 490 418 490 418 546 c 0,41,42
 418 646 418 646 312.5 646 c 128,-1,43
 207 646 207 646 207 545 c 0,35,36
EndSplineSet
EndChar

StartChar: quotesingle
Encoding: 39 39 10
Width: 200
GlyphClass: 2
Flags: W
LayerCount: 2
Fore
SplineSet
72 477 m 1,0,-1
 69 695 l 1,1,-1
 132 695 l 1,2,-1
 126 477 l 1,3,-1
 72 477 l 1,0,-1
EndSplineSet
EndChar

StartChar: parenleft
Encoding: 40 40 11
Width: 252
GlyphClass: 2
Flags: W
LayerCount: 2
Fore
SplineSet
118 301.5 m 128,-1,1
 118 217 118 217 142 110.5 c 128,-1,2
 166 4 166 4 190 -60 c 1,3,-1
 213 -125 l 1,4,-1
 155 -125 l 1,5,6
 144 -101 144 -101 127 -59 c 128,-1,7
 110 -17 110 -17 82 95.5 c 128,-1,8
 54 208 54 208 54 284 c 128,-1,9
 54 360 54 360 64.5 428 c 128,-1,10
 75 496 75 496 90 550 c 0,11,12
 119 660 119 660 144 724 c 1,13,-1
 155 750 l 1,14,-1
 213 750 l 1,15,16
 179 659 179 659 148.5 522.5 c 128,-1,0
 118 386 118 386 118 301.5 c 128,-1,1
EndSplineSet
Substitution2: "'case' Case-Sensitive Forms in Latin lookup 4 subtable" parenleft.cap
EndChar

StartChar: parenright
Encoding: 41 41 12
Width: 252
GlyphClass: 2
Flags: W
LayerCount: 2
Fore
SplineSet
199 301 m 128,-1,1
 199 208 199 208 173.5 101.5 c 128,-1,2
 148 -5 148 -5 123 -65 c 2,3,-1
 98 -125 l 1,4,-1
 40 -125 l 1,5,6
 75 -39 75 -39 105 89 c 128,-1,7
 135 217 135 217 135 301.5 c 128,-1,8
 135 386 135 386 111.5 498 c 128,-1,9
 88 610 88 610 64 680 c 2,10,-1
 40 750 l 1,11,-1
 98 750 l 1,12,13
 109 723 109 723 126 677.5 c 128,-1,14
 143 632 143 632 171 513 c 128,-1,0
 199 394 199 394 199 301 c 128,-1,1
EndSplineSet
Substitution2: "'case' Case-Sensitive Forms in Latin lookup 4 subtable" parenright.cap
EndChar

StartChar: asterisk
Encoding: 42 42 13
Width: 419
GlyphClass: 2
Flags: W
LayerCount: 2
Fore
SplineSet
369 514 m 1,0,-1
 235 514 l 1,1,-1
 276 387 l 1,2,-1
 234 374 l 1,3,-1
 192 502 l 1,4,-1
 84 423 l 1,5,-1
 58 458 l 1,6,-1
 167 537 l 1,7,-1
 59 616 l 1,8,-1
 86 652 l 1,9,-1
 194 573 l 1,10,-1
 235 700 l 1,11,-1
 278 686 l 1,12,-1
 237 558 l 1,13,-1
 369 558 l 1,14,-1
 369 514 l 1,0,-1
EndSplineSet
EndChar

StartChar: plus
Encoding: 43 43 14
Width: 560
GlyphClass: 2
Flags: W
LayerCount: 2
Fore
SplineSet
57 223 m 1,0,-1
 57 279 l 1,1,-1
 250 279 l 1,2,-1
 250 480 l 1,3,-1
 307 480 l 1,4,-1
 307 279 l 1,5,-1
 503 279 l 1,6,-1
 503 223 l 1,7,-1
 307 223 l 1,8,-1
 307 20 l 1,9,-1
 250 20 l 1,10,-1
 250 223 l 1,11,-1
 57 223 l 1,0,-1
EndSplineSet
EndChar

StartChar: comma
Encoding: 44 44 15
Width: 213
GlyphClass: 2
Flags: W
LayerCount: 2
Fore
SplineSet
38 -123 m 1,0,-1
 82 99 l 1,1,-1
 149 99 l 1,2,-1
 88 -123 l 1,3,-1
 38 -123 l 1,0,-1
EndSplineSet
EndChar

StartChar: hyphen
Encoding: 45 45 16
Width: 445
GlyphClass: 2
Flags: W
LayerCount: 2
Fore
SplineSet
71 249 m 1,0,-1
 71 305 l 1,1,-1
 375 305 l 1,2,-1
 375 249 l 1,3,-1
 71 249 l 1,0,-1
EndSplineSet
EndChar

StartChar: period
Encoding: 46 46 17
Width: 206
GlyphClass: 2
Flags: W
LayerCount: 2
Fore
SplineSet
70 0 m 1,0,-1
 70 101 l 1,1,-1
 136 101 l 1,2,-1
 136 0 l 1,3,-1
 70 0 l 1,0,-1
EndSplineSet
EndChar

StartChar: slash
Encoding: 47 47 18
Width: 398
GlyphClass: 2
Flags: W
LayerCount: 2
Fore
SplineSet
32 11 m 1,0,-1
 312 706 l 1,1,-1
 366 685 l 1,2,-1
 87 -9 l 1,3,-1
 32 11 l 1,0,-1
EndSplineSet
Substitution2: "'frac' Diagonal Fractions in Latin lookup 3 subtable" fraction
EndChar

StartChar: zero
Encoding: 48 48 19
Width: 560
GlyphClass: 2
Flags: W
LayerCount: 2
Fore
SplineSet
150.5 640.5 m 128,-1,1
 200 670 200 670 269.5 670 c 128,-1,2
 339 670 339 670 381 653.5 c 128,-1,3
 423 637 423 637 454 598 c 0,4,5
 516 522 516 522 516 329.5 c 128,-1,6
 516 137 516 137 456.5 63.5 c 128,-1,7
 397 -10 397 -10 279 -10 c 128,-1,8
 161 -10 161 -10 102 62.5 c 128,-1,9
 43 135 43 135 43 318 c 0,10,11
 43 453 43 453 72 532 c 128,-1,0
 101 611 101 611 150.5 640.5 c 128,-1,1
377 590 m 0,12,13
 341 615 341 615 279.5 615 c 128,-1,14
 218 615 218 615 182 591 c 0,15,16
 107 540 107 540 107 317 c 0,17,18
 107 162 107 162 149 104 c 128,-1,19
 191 46 191 46 280 46 c 0,20,21
 338 46 338 46 374 68 c 0,22,23
 452 116 452 116 452 318 c 0,24,25
 452 538 452 538 377 590 c 0,12,13
EndSplineSet
Substitution2: "'frac' Diagonal Fractions in Latin lookup 1 subtable" zerosuperior
EndChar

StartChar: one
Encoding: 49 49 20
Width: 560
GlyphClass: 2
Flags: W
LayerCount: 2
Fore
SplineSet
381 660 m 1,0,-1
 381 0 l 1,1,-1
 320 0 l 1,2,-1
 320 592 l 1,3,-1
 144 474 l 1,4,-1
 115 522 l 1,5,-1
 323 660 l 1,6,-1
 381 660 l 1,0,-1
EndSplineSet
Substitution2: "'frac' Diagonal Fractions in Latin lookup 1 subtable" onesuperior
EndChar

StartChar: two
Encoding: 50 50 21
Width: 560
GlyphClass: 2
Flags: W
LayerCount: 2
Fore
SplineSet
491 0 m 1,0,-1
 70 0 l 1,1,-1
 70 52 l 1,2,-1
 276 270 l 2,3,4
 326 323 326 323 348.5 349.5 c 128,-1,5
 371 376 371 376 389.5 414 c 128,-1,6
 408 452 408 452 408 491 c 0,7,8
 408 558 408 558 370.5 586 c 128,-1,9
 333 614 333 614 255 614 c 0,10,11
 189 614 189 614 108 596 c 2,12,-1
 81 590 l 1,13,-1
 76 643 l 1,14,15
 170 670 170 670 269.5 670 c 128,-1,16
 369 670 369 670 420.5 628.5 c 128,-1,17
 472 587 472 587 472 496 c 0,18,19
 472 427 472 427 441 376 c 128,-1,20
 410 325 410 325 337 252 c 1,21,-1
 145 54 l 1,22,-1
 491 54 l 1,23,-1
 491 0 l 1,0,-1
EndSplineSet
Substitution2: "'frac' Diagonal Fractions in Latin lookup 1 subtable" twosuperior
EndChar

StartChar: three
Encoding: 51 51 22
Width: 560
GlyphClass: 2
Flags: W
LayerCount: 2
Fore
SplineSet
75 645 m 1,0,1
 169 670 169 670 274.5 670 c 128,-1,2
 380 670 380 670 427.5 630 c 128,-1,3
 475 590 475 590 475 501 c 0,4,5
 475 402 475 402 383 356 c 2,6,-1
 371 350 l 1,7,8
 432 331 432 331 462 297 c 128,-1,9
 492 263 492 263 492 186 c 0,10,11
 492 87 492 87 440.5 38.5 c 128,-1,12
 389 -10 389 -10 280 -10 c 0,13,14
 186 -10 186 -10 94 10 c 1,15,-1
 64 16 l 1,16,-1
 70 68 l 1,17,18
 177 46 177 46 275 46 c 0,19,20
 428 46 428 46 428 183 c 0,21,22
 428 311 428 311 283 318 c 1,23,-1
 149 318 l 1,24,-1
 149 372 l 1,25,-1
 282 372 l 2,26,27
 327 372 327 372 369 407 c 128,-1,28
 411 442 411 442 411 502 c 128,-1,29
 411 562 411 562 378.5 588.5 c 128,-1,30
 346 615 346 615 267 615 c 128,-1,31
 188 615 188 615 106 599 c 2,32,-1
 81 594 l 1,33,-1
 75 645 l 1,0,1
EndSplineSet
Substitution2: "'frac' Diagonal Fractions in Latin lookup 1 subtable" threesuperior
EndChar

StartChar: four
Encoding: 52 52 23
Width: 560
GlyphClass: 2
Flags: W
LayerCount: 2
Fore
SplineSet
370 0 m 1,0,-1
 370 134 l 1,1,-1
 40 134 l 1,2,-1
 40 182 l 1,3,-1
 234 660 l 1,4,-1
 302 660 l 1,5,-1
 107 189 l 1,6,-1
 370 189 l 1,7,-1
 370 400 l 1,8,-1
 432 400 l 1,9,-1
 432 189 l 1,10,-1
 521 189 l 1,11,-1
 521 134 l 1,12,-1
 432 134 l 1,13,-1
 432 0 l 1,14,-1
 370 0 l 1,0,-1
EndSplineSet
Substitution2: "'frac' Diagonal Fractions in Latin lookup 1 subtable" foursuperior
EndChar

StartChar: five
Encoding: 53 53 24
Width: 560
GlyphClass: 2
Flags: W
LayerCount: 2
Fore
SplineSet
473 660 m 1,0,-1
 473 603 l 1,1,-1
 146 603 l 1,2,-1
 128 370 l 1,3,4
 208 414 208 414 292 414 c 0,5,6
 502 414 502 414 502 220 c 0,7,8
 502 108 502 108 444 50 c 128,-1,9
 386 -8 386 -8 282 -8 c 0,10,11
 197 -8 197 -8 98 12 c 1,12,-1
 66 19 l 1,13,-1
 74 70 l 1,14,15
 187 47 187 47 269 47 c 128,-1,16
 351 47 351 47 394.5 91 c 128,-1,17
 438 135 438 135 438 214.5 c 128,-1,18
 438 294 438 294 398 326.5 c 128,-1,19
 358 359 358 359 286 359 c 0,20,21
 248 359 248 359 207 347.5 c 128,-1,22
 166 336 166 336 144 324 c 1,23,-1
 121 313 l 1,24,-1
 75 321 l 1,25,-1
 94 660 l 1,26,-1
 473 660 l 1,0,-1
EndSplineSet
Substitution2: "'frac' Diagonal Fractions in Latin lookup 1 subtable" fivesuperior
EndChar

StartChar: six
Encoding: 54 54 25
Width: 560
GlyphClass: 2
Flags: W
LayerCount: 2
Fore
SplineSet
478 604 m 1,0,1
 391 614 391 614 303.5 614 c 128,-1,2
 216 614 216 614 167 550.5 c 128,-1,3
 118 487 118 487 118 368 c 1,4,-1
 144 378 l 2,5,6
 229 410 229 410 293 410 c 0,7,8
 513 410 513 410 513 208 c 0,9,10
 513 104 513 104 454 47 c 128,-1,11
 395 -10 395 -10 285 -10 c 0,12,13
 54 -10 54 -10 54 334 c 0,14,15
 54 506 54 506 120.5 588 c 128,-1,16
 187 670 187 670 307 670 c 0,17,18
 375 670 375 670 458 658 c 1,19,-1
 484 655 l 1,20,-1
 478 604 l 1,0,1
289 355 m 0,21,22
 253 355 253 355 210 344.5 c 128,-1,23
 167 334 167 334 142 323 c 2,24,-1
 117 312 l 1,25,26
 120 46 120 46 285 46 c 0,27,28
 365 46 365 46 407 87.5 c 128,-1,29
 449 129 449 129 449 206 c 0,30,31
 449 355 449 355 289 355 c 0,21,22
EndSplineSet
Substitution2: "'frac' Diagonal Fractions in Latin lookup 1 subtable" sixsuperior
EndChar

StartChar: seven
Encoding: 55 55 26
Width: 560
GlyphClass: 2
Flags: W
LayerCount: 2
Fore
SplineSet
79 604 m 1,0,-1
 79 660 l 1,1,-1
 486 660 l 1,2,-1
 486 572 l 1,3,-1
 227 -10 l 1,4,-1
 168 10 l 1,5,-1
 423 578 l 1,6,-1
 423 604 l 1,7,-1
 79 604 l 1,0,-1
EndSplineSet
Substitution2: "'frac' Diagonal Fractions in Latin lookup 1 subtable" sevensuperior
EndChar

StartChar: eight
Encoding: 56 56 27
Width: 560
GlyphClass: 2
Flags: W
LayerCount: 2
Fore
SplineSet
278 670 m 128,-1,1
 389 670 389 670 452.5 627.5 c 128,-1,2
 516 585 516 585 516 501 c 0,3,4
 516 439 516 439 488 404.5 c 128,-1,5
 460 370 460 370 396 346 c 1,6,7
 460 322 460 322 493 284.5 c 128,-1,8
 526 247 526 247 526 179 c 0,9,10
 526 -10 526 -10 278 -10 c 0,11,12
 168 -10 168 -10 100 31.5 c 128,-1,13
 32 73 32 73 32 168 c 0,14,15
 32 241 32 241 62 278 c 128,-1,16
 92 315 92 315 154 346 c 1,17,18
 97 372 97 372 70 406.5 c 128,-1,19
 43 441 43 441 43 502 c 0,20,21
 43 586 43 586 105 628 c 128,-1,0
 167 670 167 670 278 670 c 128,-1,1
278 47 m 0,22,23
 364 47 364 47 412.5 77.5 c 128,-1,24
 461 108 461 108 461 176 c 128,-1,25
 461 244 461 244 427.5 271.5 c 128,-1,26
 394 299 394 299 329 316 c 1,27,-1
 219 316 l 1,28,29
 159 300 159 300 129 268 c 128,-1,30
 99 236 99 236 99 177 c 0,31,32
 99 47 99 47 278 47 c 0,22,23
450 495 m 0,33,34
 450 614 450 614 279.5 614 c 128,-1,35
 109 614 109 614 109 496 c 0,36,37
 109 446 109 446 135.5 417.5 c 128,-1,38
 162 389 162 389 219 370 c 1,39,-1
 329 370 l 1,40,41
 390 387 390 387 420 416.5 c 128,-1,42
 450 446 450 446 450 495 c 0,33,34
EndSplineSet
Substitution2: "'frac' Diagonal Fractions in Latin lookup 1 subtable" eightsuperior
EndChar

StartChar: nine
Encoding: 57 57 28
Width: 560
GlyphClass: 2
Flags: W
LayerCount: 2
Fore
SplineSet
76 57 m 1,0,1
 163 46 163 46 254 46 c 0,2,3
 439 46 439 46 441 292 c 1,4,-1
 412 282 l 1,5,6
 321 252 321 252 258 252 c 0,7,8
 44 252 44 252 44 451 c 0,9,10
 44 551 44 551 105.5 610.5 c 128,-1,11
 167 670 167 670 270 670 c 0,12,13
 389 670 389 670 447 579.5 c 128,-1,14
 505 489 505 489 505 316 c 128,-1,15
 505 143 505 143 440 66.5 c 128,-1,16
 375 -10 375 -10 247 -10 c 0,17,18
 172 -10 172 -10 96 2 c 2,19,-1
 70 6 l 1,20,-1
 76 57 l 1,0,1
262 307 m 0,21,22
 294 307 294 307 339 317 c 128,-1,23
 384 327 384 327 413 337 c 2,24,-1
 442 347 l 1,25,26
 437 614 437 614 270 614 c 0,27,28
 195 614 195 614 151.5 570 c 128,-1,29
 108 526 108 526 108 451 c 0,30,31
 108 307 108 307 262 307 c 0,21,22
EndSplineSet
Substitution2: "'frac' Diagonal Fractions in Latin lookup 1 subtable" ninesuperior
EndChar

StartChar: colon
Encoding: 58 58 29
Width: 207
GlyphClass: 2
Flags: W
LayerCount: 2
Fore
SplineSet
70 330 m 1,0,-1
 70 432 l 1,1,-1
 136 432 l 1,2,-1
 136 330 l 1,3,-1
 70 330 l 1,0,-1
70 0 m 1,4,-1
 70 101 l 1,5,-1
 136 101 l 1,6,-1
 136 0 l 1,7,-1
 70 0 l 1,4,-1
EndSplineSet
EndChar

StartChar: semicolon
Encoding: 59 59 30
Width: 241
GlyphClass: 2
Flags: W
LayerCount: 2
Fore
SplineSet
96 99 m 1,0,-1
 165 99 l 1,1,-1
 103 -123 l 1,2,-1
 53 -123 l 1,3,-1
 96 99 l 1,0,-1
92 330 m 1,4,-1
 92 432 l 1,5,-1
 158 432 l 1,6,-1
 158 330 l 1,7,-1
 92 330 l 1,4,-1
EndSplineSet
EndChar

StartChar: less
Encoding: 60 60 31
Width: 560
GlyphClass: 2
Flags: W
LayerCount: 2
Fore
SplineSet
479 423 m 1,0,-1
 120 252 l 1,1,-1
 479 78 l 1,2,-1
 479 14 l 1,3,-1
 59 224 l 1,4,-1
 59 278 l 1,5,-1
 479 486 l 1,6,-1
 479 423 l 1,0,-1
EndSplineSet
EndChar

StartChar: equal
Encoding: 61 61 32
Width: 560
GlyphClass: 2
Flags: W
LayerCount: 2
Fore
SplineSet
65 312 m 1,0,-1
 65 368 l 1,1,-1
 494 368 l 1,2,-1
 494 312 l 1,3,-1
 65 312 l 1,0,-1
65 133 m 1,4,-1
 65 189 l 1,5,-1
 494 189 l 1,6,-1
 494 133 l 1,7,-1
 65 133 l 1,4,-1
EndSplineSet
EndChar

StartChar: greater
Encoding: 62 62 33
Width: 560
GlyphClass: 2
Flags: W
LayerCount: 2
Fore
SplineSet
439 252 m 1,0,-1
 80 423 l 1,1,-1
 80 486 l 1,2,-1
 500 278 l 1,3,-1
 500 224 l 1,4,-1
 80 14 l 1,5,-1
 80 78 l 1,6,-1
 439 252 l 1,0,-1
EndSplineSet
EndChar

StartChar: question
Encoding: 63 63 34
Width: 449
GlyphClass: 2
Flags: W
LayerCount: 2
Fore
SplineSet
406 545 m 0,0,1
 406 482 406 482 388 448.5 c 128,-1,2
 370 415 370 415 316 369 c 128,-1,3
 262 323 262 323 240 295 c 128,-1,4
 218 267 218 267 218 233 c 2,5,-1
 218 197 l 1,6,-1
 166 197 l 1,7,8
 157 222 157 222 157 254.5 c 128,-1,9
 157 287 157 287 181.5 319 c 128,-1,10
 206 351 206 351 258.5 396.5 c 128,-1,11
 311 442 311 442 328 469 c 128,-1,12
 345 496 345 496 345 548 c 128,-1,13
 345 600 345 600 310 625 c 128,-1,14
 275 650 275 650 200 650 c 0,15,16
 150 650 150 650 72 632 c 1,17,-1
 44 625 l 1,18,-1
 38 676 l 1,19,20
 144 705 144 705 205 705 c 0,21,22
 306 705 306 705 356 667.5 c 128,-1,23
 406 630 406 630 406 545 c 0,0,1
158 1 m 1,24,-1
 158 101 l 1,25,-1
 224 101 l 1,26,-1
 224 1 l 1,27,-1
 158 1 l 1,24,-1
EndSplineSet
EndChar

StartChar: at
Encoding: 64 64 35
Width: 977
GlyphClass: 2
Flags: W
LayerCount: 2
Fore
SplineSet
930 305 m 2,0,-1
 930 290 l 2,1,2
 930 69 930 69 864 20 c 0,3,4
 840 2 840 2 817 -3 c 128,-1,5
 794 -8 794 -8 763 -8 c 128,-1,6
 732 -8 732 -8 710 -1.5 c 128,-1,7
 688 5 688 5 676 14 c 0,8,9
 653 33 653 33 646 54 c 1,10,11
 605 30 605 30 552.5 11.5 c 128,-1,12
 500 -7 500 -7 469 -7 c 128,-1,13
 438 -7 438 -7 417 -3 c 128,-1,14
 396 1 396 1 371.5 16 c 128,-1,15
 347 31 347 31 330 58 c 0,16,17
 292 119 292 119 292 249 c 128,-1,18
 292 379 292 379 337.5 443 c 128,-1,19
 383 507 383 507 497 507 c 0,20,21
 546 507 546 507 600 487 c 2,22,-1
 619 480 l 1,23,-1
 619 497 l 1,24,-1
 679 497 l 1,25,-1
 679 302 l 2,26,27
 679 123 679 123 692 84 c 0,28,29
 696 70 696 70 706 58.5 c 128,-1,30
 716 47 716 47 728.5 45 c 128,-1,31
 741 43 741 43 762.5 43 c 128,-1,32
 784 43 784 43 798 46.5 c 128,-1,33
 812 50 812 50 827 63.5 c 128,-1,34
 842 77 842 77 850 103 c 0,35,36
 868 167 868 167 868 290 c 2,37,-1
 868 306 l 2,38,39
 868 497 868 497 784 582.5 c 128,-1,40
 700 668 700 668 502 668 c 128,-1,41
 304 668 304 668 210 573 c 128,-1,42
 116 478 116 478 116 256 c 128,-1,43
 116 34 116 34 206.5 -57 c 128,-1,44
 297 -148 297 -148 504 -148 c 1,45,-1
 647 -138 l 1,46,-1
 650 -192 l 1,47,48
 554 -202 554 -202 504 -202 c 0,49,50
 388 -202 388 -202 308 -180 c 128,-1,51
 228 -158 228 -158 169 -106 c 0,52,53
 54 -5 54 -5 54 249.5 c 128,-1,54
 54 504 54 504 166.5 612.5 c 128,-1,55
 279 721 279 721 503.5 721 c 128,-1,56
 728 721 728 721 829 619.5 c 128,-1,57
 930 518 930 518 930 305 c 2,0,-1
629 98 m 1,58,59
 625 114 625 114 622 180.5 c 128,-1,60
 619 247 619 247 619 287 c 2,61,-1
 619 430 l 1,62,63
 554 453 554 453 505 453 c 0,64,65
 416 453 416 453 384 403 c 128,-1,66
 352 353 352 353 352 243 c 0,67,68
 352 120 352 120 390 80 c 1,69,70
 423 47 423 47 475 47 c 128,-1,71
 527 47 527 47 629 98 c 1,58,59
EndSplineSet
EndChar

StartChar: A
Encoding: 65 65 36
Width: 594
GlyphClass: 2
Flags: W
LayerCount: 2
Fore
SplineSet
25 0 m 1,0,-1
 225 695 l 1,1,-1
 370 695 l 1,2,-1
 569 0 l 1,3,-1
 508 0 l 1,4,-1
 452 192 l 1,5,-1
 142 192 l 1,6,-1
 87 0 l 1,7,-1
 25 0 l 1,0,-1
270 641 m 1,8,-1
 157 247 l 1,9,-1
 437 247 l 1,10,-1
 324 641 l 1,11,-1
 270 641 l 1,8,-1
EndSplineSet
Position2: "'cpsp' Capital Spacing in Latin lookup 0 subtable" dx=5 dy=0 dh=10 dv=0
EndChar

StartChar: B
Encoding: 66 66 37
Width: 617
GlyphClass: 2
Flags: W
LayerCount: 2
Fore
SplineSet
87 695 m 1,0,-1
 334 695 l 2,1,2
 539 695 539 695 539 520 c 0,3,4
 539 397 539 397 447 358 c 1,5,6
 562 322 562 322 562 193 c 0,7,8
 562 88 562 88 507.5 44 c 128,-1,9
 453 0 453 0 349 0 c 2,10,-1
 87 0 l 1,11,-1
 87 695 l 1,0,-1
342 327 m 2,12,-1
 149 327 l 1,13,-1
 149 55 l 1,14,-1
 348 55 l 2,15,16
 421 55 421 55 460 86 c 128,-1,17
 499 117 499 117 499 195 c 0,18,19
 499 327 499 327 342 327 c 2,12,-1
332 640 m 2,20,-1
 149 640 l 1,21,-1
 149 381 l 1,22,-1
 341 381 l 2,23,24
 411 381 411 381 443.5 414.5 c 128,-1,25
 476 448 476 448 476 514 c 128,-1,26
 476 580 476 580 440.5 610 c 128,-1,27
 405 640 405 640 332 640 c 2,20,-1
EndSplineSet
Position2: "'cpsp' Capital Spacing in Latin lookup 0 subtable" dx=5 dy=0 dh=10 dv=0
EndChar

StartChar: C
Encoding: 67 67 38
Width: 544
GlyphClass: 2
Flags: W
LayerCount: 2
Fore
SplineSet
502 11 m 1,0,1
 399 -10 399 -10 326 -10 c 128,-1,2
 253 -10 253 -10 208.5 5.5 c 128,-1,3
 164 21 164 21 136 49 c 128,-1,4
 108 77 108 77 92 122 c 0,5,6
 62 204 62 204 62 345 c 0,7,8
 62 571 62 571 134 644 c 0,9,10
 193 705 193 705 314 705 c 0,11,12
 397 705 397 705 502 684 c 1,13,-1
 499 630 l 1,14,15
 395 649 395 649 332 649 c 128,-1,16
 269 649 269 649 234.5 635.5 c 128,-1,17
 200 622 200 622 178.5 599.5 c 128,-1,18
 157 577 157 577 146 537 c 0,19,20
 126 469 126 469 126 367 c 128,-1,21
 126 265 126 265 133 214.5 c 128,-1,22
 140 164 140 164 160 123 c 128,-1,23
 180 82 180 82 219 64 c 128,-1,24
 258 46 258 46 327 46 c 128,-1,25
 396 46 396 46 499 65 c 1,26,-1
 502 11 l 1,0,1
EndSplineSet
Position2: "'cpsp' Capital Spacing in Latin lookup 0 subtable" dx=5 dy=0 dh=10 dv=0
EndChar

StartChar: D
Encoding: 68 68 39
Width: 646
GlyphClass: 2
Flags: W
LayerCount: 2
Fore
SplineSet
340 0 m 2,0,-1
 87 0 l 1,1,-1
 87 695 l 1,2,-1
 340 695 l 2,3,4
 587 695 587 695 587 357 c 0,5,6
 587 0 587 0 340 0 c 2,0,-1
523 357 m 0,7,8
 523 639 523 639 340 639 c 2,9,-1
 149 639 l 1,10,-1
 149 55 l 1,11,-1
 340 55 l 2,12,13
 523 55 523 55 523 357 c 0,7,8
EndSplineSet
Position2: "'cpsp' Capital Spacing in Latin lookup 0 subtable" dx=5 dy=0 dh=10 dv=0
EndChar

StartChar: E
Encoding: 69 69 40
Width: 552
GlyphClass: 2
Flags: W
LayerCount: 2
Fore
SplineSet
87 0 m 1,0,-1
 87 695 l 1,1,-1
 504 695 l 1,2,-1
 504 639 l 1,3,-1
 149 639 l 1,4,-1
 149 381 l 1,5,-1
 444 381 l 1,6,-1
 444 326 l 1,7,-1
 149 326 l 1,8,-1
 149 55 l 1,9,-1
 504 55 l 1,10,-1
 504 0 l 1,11,-1
 87 0 l 1,0,-1
EndSplineSet
Position2: "'cpsp' Capital Spacing in Latin lookup 0 subtable" dx=5 dy=0 dh=10 dv=0
EndChar

StartChar: F
Encoding: 70 70 41
Width: 525
GlyphClass: 2
Flags: W
LayerCount: 2
Fore
SplineSet
87 0 m 1,0,-1
 87 695 l 1,1,-1
 497 695 l 1,2,-1
 497 639 l 1,3,-1
 149 639 l 1,4,-1
 149 352 l 1,5,-1
 445 352 l 1,6,-1
 445 297 l 1,7,-1
 149 297 l 1,8,-1
 149 0 l 1,9,-1
 87 0 l 1,0,-1
EndSplineSet
Position2: "'cpsp' Capital Spacing in Latin lookup 0 subtable" dx=5 dy=0 dh=10 dv=0
EndChar

StartChar: G
Encoding: 71 71 42
Width: 617
GlyphClass: 2
Flags: W
LayerCount: 2
Fore
SplineSet
360 296 m 1,0,-1
 360 351 l 1,1,-1
 549 351 l 1,2,-1
 549 15 l 1,3,4
 520 9 520 9 447 -0.5 c 128,-1,5
 374 -10 374 -10 326 -10 c 0,6,7
 176 -10 176 -10 118 78 c 128,-1,8
 60 166 60 166 60 345 c 0,9,10
 60 434 60 434 72 497 c 128,-1,11
 84 560 84 560 114 609 c 0,12,13
 171 705 171 705 325 705 c 0,14,15
 419 705 419 705 516 686 c 1,16,-1
 549 679 l 1,17,-1
 546 626 l 1,18,19
 421 649 421 649 330 649 c 0,20,21
 209 649 209 649 166.5 576.5 c 128,-1,22
 124 504 124 504 124 346 c 128,-1,23
 124 188 124 188 166.5 117 c 128,-1,24
 209 46 209 46 329 46 c 0,25,26
 400 46 400 46 488 62 c 1,27,-1
 488 296 l 1,28,-1
 360 296 l 1,0,-1
EndSplineSet
Position2: "'cpsp' Capital Spacing in Latin lookup 0 subtable" dx=5 dy=0 dh=10 dv=0
EndChar

StartChar: H
Encoding: 72 72 43
Width: 675
GlyphClass: 2
Flags: W
LayerCount: 2
Fore
SplineSet
526 0 m 1,0,-1
 526 321 l 1,1,-1
 149 321 l 1,2,-1
 149 0 l 1,3,-1
 87 0 l 1,4,-1
 87 695 l 1,5,-1
 149 695 l 1,6,-1
 149 376 l 1,7,-1
 526 376 l 1,8,-1
 526 695 l 1,9,-1
 587 695 l 1,10,-1
 587 0 l 1,11,-1
 526 0 l 1,0,-1
EndSplineSet
Position2: "'cpsp' Capital Spacing in Latin lookup 0 subtable" dx=5 dy=0 dh=10 dv=0
EndChar

StartChar: I
Encoding: 73 73 44
Width: 236
GlyphClass: 2
Flags: W
LayerCount: 2
Fore
SplineSet
87 0 m 1,0,-1
 87 695 l 1,1,-1
 149 695 l 1,2,-1
 149 0 l 1,3,-1
 87 0 l 1,0,-1
EndSplineSet
Position2: "'cpsp' Capital Spacing in Latin lookup 0 subtable" dx=5 dy=0 dh=10 dv=0
EndChar

StartChar: J
Encoding: 74 74 45
Width: 285
GlyphClass: 2
Flags: W
LayerCount: 2
Fore
SplineSet
201 695 m 1,0,-1
 201 89 l 2,1,2
 201 33 201 33 191.5 0.5 c 128,-1,3
 182 -32 182 -32 156.5 -48 c 128,-1,4
 131 -64 131 -64 102 -68 c 128,-1,5
 73 -72 73 -72 18 -72 c 1,6,-1
 18 -17 l 1,7,8
 61 -17 61 -17 80 -14.5 c 128,-1,9
 99 -12 99 -12 115.5 0 c 128,-1,10
 132 12 132 12 136 35 c 128,-1,11
 140 58 140 58 140 102 c 2,12,-1
 140 695 l 1,13,-1
 201 695 l 1,0,-1
EndSplineSet
Position2: "'cpsp' Capital Spacing in Latin lookup 0 subtable" dx=5 dy=0 dh=10 dv=0
EndChar

StartChar: K
Encoding: 75 75 46
Width: 563
GlyphClass: 2
Flags: W
LayerCount: 2
Fore
SplineSet
149 0 m 1,0,-1
 87 0 l 1,1,-1
 87 695 l 1,2,-1
 149 695 l 1,3,-1
 149 367 l 1,4,-1
 269 370 l 1,5,-1
 462 695 l 1,6,-1
 533 695 l 1,7,-1
 323 346 l 1,8,-1
 546 0 l 1,9,-1
 472 0 l 1,10,-1
 270 314 l 1,11,-1
 149 312 l 1,12,-1
 149 0 l 1,0,-1
EndSplineSet
Position2: "'cpsp' Capital Spacing in Latin lookup 0 subtable" dx=5 dy=0 dh=10 dv=0
EndChar

StartChar: L
Encoding: 76 76 47
Width: 480
GlyphClass: 2
Flags: W
LayerCount: 2
Fore
SplineSet
467 0 m 1,0,-1
 87 0 l 1,1,-1
 87 695 l 1,2,-1
 149 695 l 1,3,-1
 149 56 l 1,4,-1
 467 56 l 1,5,-1
 467 0 l 1,0,-1
EndSplineSet
Position2: "'cpsp' Capital Spacing in Latin lookup 0 subtable" dx=5 dy=0 dh=10 dv=0
EndChar

StartChar: M
Encoding: 77 77 48
Width: 835
GlyphClass: 2
Flags: W
LayerCount: 2
Fore
SplineSet
87 0 m 1,0,-1
 87 695 l 1,1,-1
 203 695 l 1,2,-1
 418 87 l 1,3,-1
 632 695 l 1,4,-1
 748 695 l 1,5,-1
 748 0 l 1,6,-1
 686 0 l 1,7,-1
 686 631 l 1,8,-1
 672 631 l 1,9,-1
 454 23 l 1,10,-1
 381 23 l 1,11,-1
 163 631 l 1,12,-1
 149 631 l 1,13,-1
 149 0 l 1,14,-1
 87 0 l 1,0,-1
EndSplineSet
Position2: "'cpsp' Capital Spacing in Latin lookup 0 subtable" dx=5 dy=0 dh=10 dv=0
EndChar

StartChar: N
Encoding: 78 78 49
Width: 672
GlyphClass: 2
Flags: W
LayerCount: 2
Fore
SplineSet
87 0 m 1,0,-1
 87 695 l 1,1,-1
 209 695 l 1,2,-1
 500 55 l 1,3,-1
 523 55 l 1,4,-1
 523 695 l 1,5,-1
 584 695 l 1,6,-1
 584 0 l 1,7,-1
 464 0 l 1,8,-1
 171 639 l 1,9,-1
 149 639 l 1,10,-1
 149 0 l 1,11,-1
 87 0 l 1,0,-1
EndSplineSet
Position2: "'cpsp' Capital Spacing in Latin lookup 0 subtable" dx=5 dy=0 dh=10 dv=0
EndChar

StartChar: O
Encoding: 79 79 50
Width: 662
GlyphClass: 2
Flags: W
LayerCount: 2
Fore
SplineSet
166 115.5 m 128,-1,1
 208 46 208 46 331.5 46 c 128,-1,2
 455 46 455 46 497 114 c 128,-1,3
 539 182 539 182 539 341.5 c 128,-1,4
 539 501 539 501 495 575 c 128,-1,5
 451 649 451 649 331 649 c 0,6,7
 207 649 207 649 164 569 c 0,8,9
 141 528 141 528 132.5 475 c 128,-1,10
 124 422 124 422 124 344 c 0,11,0
 124 185 124 185 166 115.5 c 128,-1,1
544.5 73 m 128,-1,13
 486 -10 486 -10 331.5 -10 c 128,-1,14
 177 -10 177 -10 118.5 75 c 128,-1,15
 60 160 60 160 60 343.5 c 128,-1,16
 60 527 60 527 119 616 c 128,-1,17
 178 705 178 705 331 705 c 128,-1,18
 484 705 484 705 543.5 616.5 c 128,-1,19
 603 528 603 528 603 342 c 128,-1,12
 603 156 603 156 544.5 73 c 128,-1,13
EndSplineSet
Position2: "'cpsp' Capital Spacing in Latin lookup 0 subtable" dx=5 dy=0 dh=10 dv=0
EndChar

StartChar: P
Encoding: 80 80 51
Width: 593
GlyphClass: 2
Flags: W
LayerCount: 2
Fore
SplineSet
341 242 m 2,0,-1
 149 242 l 1,1,-1
 149 0 l 1,2,-1
 87 0 l 1,3,-1
 87 695 l 1,4,-1
 341 695 l 2,5,6
 452 695 452 695 504.5 641 c 128,-1,7
 557 587 557 587 557 475 c 0,8,9
 557 242 557 242 341 242 c 2,0,-1
149 297 m 1,10,-1
 341 297 l 2,11,12
 493 297 493 297 493 475 c 0,13,14
 493 560 493 560 457 600 c 128,-1,15
 421 640 421 640 341 640 c 2,16,-1
 149 640 l 1,17,-1
 149 297 l 1,10,-1
EndSplineSet
Position2: "'cpsp' Capital Spacing in Latin lookup 0 subtable" dx=5 dy=0 dh=10 dv=0
EndChar

StartChar: Q
Encoding: 81 81 52
Width: 662
GlyphClass: 2
Flags: W
LayerCount: 2
Fore
SplineSet
331 -10 m 0,0,1
 177 -10 177 -10 118.5 75 c 128,-1,2
 60 160 60 160 60 343.5 c 128,-1,3
 60 527 60 527 119 616 c 128,-1,4
 178 705 178 705 331 705 c 128,-1,5
 484 705 484 705 543.5 616.5 c 128,-1,6
 603 528 603 528 603 344 c 0,7,8
 603 213 603 213 576.5 136 c 128,-1,9
 550 59 550 59 486 23 c 1,10,-1
 571 -115 l 1,11,-1
 512 -143 l 1,12,-1
 425 1 l 1,13,14
 386 -10 386 -10 331 -10 c 0,0,1
166 115.5 m 128,-1,16
 208 46 208 46 331.5 46 c 128,-1,17
 455 46 455 46 497 113.5 c 128,-1,18
 539 181 539 181 539 341 c 128,-1,19
 539 501 539 501 495 575 c 128,-1,20
 451 649 451 649 331 649 c 0,21,22
 207 649 207 649 164 569 c 0,23,24
 141 528 141 528 132.5 475 c 128,-1,25
 124 422 124 422 124 344 c 0,26,15
 124 185 124 185 166 115.5 c 128,-1,16
EndSplineSet
Position2: "'cpsp' Capital Spacing in Latin lookup 0 subtable" dx=5 dy=0 dh=10 dv=0
EndChar

StartChar: R
Encoding: 82 82 53
Width: 615
GlyphClass: 2
Flags: W
LayerCount: 2
Fore
SplineSet
149 274 m 1,0,-1
 149 0 l 1,1,-1
 87 0 l 1,2,-1
 87 695 l 1,3,-1
 342 695 l 2,4,5
 451 695 451 695 504.5 645.5 c 128,-1,6
 558 596 558 596 558 489 c 0,7,8
 558 322 558 322 424 286 c 1,9,-1
 567 0 l 1,10,-1
 498 0 l 1,11,-1
 361 274 l 1,12,-1
 149 274 l 1,0,-1
494 488 m 0,13,14
 494 566 494 566 457 603 c 128,-1,15
 420 640 420 640 342 640 c 2,16,-1
 149 640 l 1,17,-1
 149 329 l 1,18,-1
 342 329 l 2,19,20
 494 329 494 329 494 488 c 0,13,14
EndSplineSet
Position2: "'cpsp' Capital Spacing in Latin lookup 0 subtable" dx=5 dy=0 dh=10 dv=0
EndChar

StartChar: S
Encoding: 83 83 54
Width: 541
GlyphClass: 2
Flags: W
LayerCount: 2
Fore
SplineSet
275 651 m 0,0,1
 114 651 114 651 114 528 c 0,2,3
 114 456 114 456 150.5 431 c 128,-1,4
 187 406 187 406 293.5 385 c 128,-1,5
 400 364 400 364 445.5 327 c 128,-1,6
 491 290 491 290 491 203 c 0,7,8
 491 91 491 91 435.5 41.5 c 128,-1,9
 380 -8 380 -8 273 -8 c 0,10,11
 195 -8 195 -8 92 6 c 2,12,-1
 56 11 l 1,13,-1
 63 64 l 1,14,15
 200 47 200 47 275 47 c 128,-1,16
 350 47 350 47 389 83.5 c 128,-1,17
 428 120 428 120 428 190.5 c 128,-1,18
 428 261 428 261 393.5 286.5 c 128,-1,19
 359 312 359 312 283.5 326 c 128,-1,20
 208 340 208 340 173 351.5 c 128,-1,21
 138 363 138 363 107.5 384.5 c 128,-1,22
 77 406 77 406 64 439.5 c 128,-1,23
 51 473 51 473 51 524 c 0,24,25
 51 706 51 706 271 706 c 0,26,27
 337 706 337 706 443 692 c 1,28,-1
 476 687 l 1,29,-1
 471 634 l 1,30,31
 333 651 333 651 275 651 c 0,0,1
EndSplineSet
Position2: "'cpsp' Capital Spacing in Latin lookup 0 subtable" dx=5 dy=0 dh=10 dv=0
EndChar

StartChar: T
Encoding: 84 84 55
Width: 526
GlyphClass: 2
Flags: W
LayerCount: 2
Fore
SplineSet
13 639 m 1,0,-1
 13 695 l 1,1,-1
 513 695 l 1,2,-1
 513 639 l 1,3,-1
 295 639 l 1,4,-1
 295 0 l 1,5,-1
 233 0 l 1,6,-1
 233 639 l 1,7,-1
 13 639 l 1,0,-1
EndSplineSet
Position2: "'cpsp' Capital Spacing in Latin lookup 0 subtable" dx=5 dy=0 dh=10 dv=0
EndChar

StartChar: U
Encoding: 85 85 56
Width: 642
GlyphClass: 2
Flags: W
LayerCount: 2
Fore
SplineSet
144 204 m 2,0,1
 144 46 144 46 317 46 c 0,2,3
 407 46 407 46 452 83 c 128,-1,4
 497 120 497 120 497 204 c 2,5,-1
 497 695 l 1,6,-1
 559 695 l 1,7,-1
 559 204 l 2,8,9
 559 91 559 91 498 40.5 c 128,-1,10
 437 -10 437 -10 319.5 -10 c 128,-1,11
 202 -10 202 -10 142.5 40.5 c 128,-1,12
 83 91 83 91 83 204 c 2,13,-1
 83 695 l 1,14,-1
 144 695 l 1,15,-1
 144 204 l 2,0,1
EndSplineSet
Position2: "'cpsp' Capital Spacing in Latin lookup 0 subtable" dx=5 dy=0 dh=10 dv=0
EndChar

StartChar: V
Encoding: 86 86 57
Width: 577
GlyphClass: 2
Flags: W
LayerCount: 2
Fore
SplineSet
487 695 m 1,0,-1
 550 695 l 1,1,-1
 364 0 l 1,2,-1
 213 0 l 1,3,-1
 26 695 l 1,4,-1
 90 695 l 1,5,-1
 259 55 l 1,6,-1
 318 55 l 1,7,-1
 487 695 l 1,0,-1
EndSplineSet
Position2: "'cpsp' Capital Spacing in Latin lookup 0 subtable" dx=5 dy=0 dh=10 dv=0
EndChar

StartChar: W
Encoding: 87 87 58
Width: 874
GlyphClass: 2
Flags: W
LayerCount: 2
Fore
SplineSet
33 695 m 1,0,-1
 96 695 l 1,1,-1
 222 55 l 1,2,-1
 255 55 l 1,3,-1
 401 687 l 1,4,-1
 474 687 l 1,5,-1
 619 55 l 1,6,-1
 652 55 l 1,7,-1
 778 695 l 1,8,-1
 841 695 l 1,9,-1
 698 0 l 1,10,-1
 574 0 l 1,11,-1
 437 610 l 1,12,-1
 300 0 l 1,13,-1
 176 0 l 1,14,-1
 33 695 l 1,0,-1
EndSplineSet
Position2: "'cpsp' Capital Spacing in Latin lookup 0 subtable" dx=5 dy=0 dh=10 dv=0
EndChar

StartChar: X
Encoding: 88 88 59
Width: 555
GlyphClass: 2
Flags: W
LayerCount: 2
Fore
SplineSet
91 695 m 1,0,-1
 279 388 l 1,1,-1
 466 695 l 1,2,-1
 534 695 l 1,3,-1
 318 343 l 1,4,-1
 534 0 l 1,5,-1
 464 0 l 1,6,-1
 278 300 l 1,7,-1
 89 0 l 1,8,-1
 21 0 l 1,9,-1
 239 342 l 1,10,-1
 21 695 l 1,11,-1
 91 695 l 1,0,-1
EndSplineSet
Position2: "'cpsp' Capital Spacing in Latin lookup 0 subtable" dx=5 dy=0 dh=10 dv=0
EndChar

StartChar: Y
Encoding: 89 89 60
Width: 534
GlyphClass: 2
Flags: W
LayerCount: 2
Fore
SplineSet
298 0 m 1,0,-1
 236 0 l 1,1,-1
 236 294 l 1,2,-1
 13 695 l 1,3,-1
 82 695 l 1,4,-1
 267 358 l 1,5,-1
 451 695 l 1,6,-1
 521 695 l 1,7,-1
 298 294 l 1,8,-1
 298 0 l 1,0,-1
EndSplineSet
Position2: "'cpsp' Capital Spacing in Latin lookup 0 subtable" dx=5 dy=0 dh=10 dv=0
EndChar

StartChar: Z
Encoding: 90 90 61
Width: 537
GlyphClass: 2
Flags: W
LayerCount: 2
Fore
SplineSet
43 639 m 1,0,-1
 43 695 l 1,1,-1
 493 695 l 1,2,-1
 493 612 l 1,3,-1
 112 76 l 1,4,-1
 112 55 l 1,5,-1
 493 55 l 1,6,-1
 493 -1 l 1,7,-1
 43 -1 l 1,8,-1
 43 81 l 1,9,-1
 424 617 l 1,10,-1
 424 639 l 1,11,-1
 43 639 l 1,0,-1
EndSplineSet
Position2: "'cpsp' Capital Spacing in Latin lookup 0 subtable" dx=5 dy=0 dh=10 dv=0
EndChar

StartChar: bracketleft
Encoding: 91 91 62
Width: 322
GlyphClass: 2
Flags: W
LayerCount: 2
Fore
SplineSet
281 749 m 1,0,-1
 281 695 l 1,1,-1
 142 695 l 1,2,-1
 142 -69 l 1,3,-1
 281 -69 l 1,4,-1
 281 -123 l 1,5,-1
 81 -123 l 1,6,-1
 81 749 l 1,7,-1
 281 749 l 1,0,-1
EndSplineSet
Substitution2: "'case' Case-Sensitive Forms in Latin lookup 4 subtable" bracketleft.cap
EndChar

StartChar: backslash
Encoding: 92 92 63
Width: 421
GlyphClass: 2
Flags: W
LayerCount: 2
Fore
SplineSet
390 14 m 1,0,-1
 335 -9 l 1,1,-1
 30 681 l 1,2,-1
 84 705 l 1,3,-1
 390 14 l 1,0,-1
EndSplineSet
EndChar

StartChar: bracketright
Encoding: 93 93 64
Width: 322
GlyphClass: 2
Flags: W
LayerCount: 2
Fore
SplineSet
41 695 m 1,0,-1
 41 749 l 1,1,-1
 241 749 l 1,2,-1
 241 -123 l 1,3,-1
 41 -123 l 1,4,-1
 41 -69 l 1,5,-1
 180 -69 l 1,6,-1
 180 695 l 1,7,-1
 41 695 l 1,0,-1
EndSplineSet
Substitution2: "'case' Case-Sensitive Forms in Latin lookup 4 subtable" bracketright.cap
EndChar

StartChar: asciicircum
Encoding: 94 94 65
Width: 560
GlyphClass: 2
Flags: W
LayerCount: 2
Fore
SplineSet
431 320 m 1,0,-1
 278 600 l 1,1,-1
 132 320 l 1,2,-1
 67 320 l 1,3,-1
 250 660 l 1,4,-1
 306 660 l 1,5,-1
 496 320 l 1,6,-1
 431 320 l 1,0,-1
EndSplineSet
EndChar

StartChar: underscore
Encoding: 95 95 66
Width: 635
GlyphClass: 2
Flags: W
LayerCount: 2
Fore
SplineSet
103 -96 m 1,0,-1
 531 -96 l 1,1,-1
 531 -150 l 1,2,-1
 103 -150 l 1,3,-1
 103 -96 l 1,0,-1
EndSplineSet
EndChar

StartChar: grave
Encoding: 96 96 67
Width: 228
GlyphClass: 2
Flags: W
LayerCount: 2
Fore
SplineSet
25 737 m 1,0,-1
 232 640 l 1,1,-1
 213 598 l 1,2,-1
 3 685 l 1,3,-1
 25 737 l 1,0,-1
EndSplineSet
EndChar

StartChar: a
Encoding: 97 97 68
Width: 499
GlyphClass: 2
Flags: W
LayerCount: 2
Fore
SplineSet
419 351 m 2,0,-1
 419 83 l 1,1,2
 423 46 423 46 484 39 c 1,3,-1
 481 -9 l 1,4,5
 404 -9 404 -9 368 31 c 1,6,7
 274 -10 274 -10 180 -10 c 0,8,9
 113 -10 113 -10 78 28.5 c 128,-1,10
 43 67 43 67 43 138.5 c 128,-1,11
 43 210 43 210 78.5 244.5 c 128,-1,12
 114 279 114 279 190 287 c 2,13,-1
 360 304 l 1,14,-1
 360 351 l 2,15,16
 360 407 360 407 335.5 431.5 c 128,-1,17
 311 456 311 456 270 456 c 0,18,19
 206 456 206 456 104 444 c 1,20,-1
 73 441 l 1,21,-1
 70 489 l 1,22,23
 180 510 180 510 262.5 510 c 128,-1,24
 345 510 345 510 382 471 c 128,-1,25
 419 432 419 432 419 351 c 2,0,-1
105 142 m 0,26,27
 105 41 105 41 188 41 c 0,28,29
 224 41 224 41 267 49.5 c 128,-1,30
 310 58 310 58 335 67 c 2,31,-1
 360 76 l 1,32,-1
 360 257 l 1,33,-1
 197 240 l 1,34,35
 148 236 148 236 126.5 212 c 128,-1,36
 105 188 105 188 105 142 c 0,26,27
EndSplineSet
EndChar

StartChar: b
Encoding: 98 98 69
Width: 521
GlyphClass: 2
Flags: W
LayerCount: 2
Fore
SplineSet
290 510 m 0,0,1
 390 510 390 510 429 452 c 128,-1,2
 468 394 468 394 468 251.5 c 128,-1,3
 468 109 468 109 418.5 49.5 c 128,-1,4
 369 -10 369 -10 234 -10 c 0,5,6
 178 -10 178 -10 100 -2 c 1,7,-1
 74 0 l 1,8,-1
 74 722 l 1,9,-1
 134 722 l 1,10,-1
 134 473 l 1,11,12
 212 510 212 510 290 510 c 0,0,1
134 50 m 1,13,14
 204 44 204 44 246.5 44 c 128,-1,15
 289 44 289 44 323 56 c 128,-1,16
 357 68 357 68 375.5 96.5 c 128,-1,17
 394 125 394 125 400 161.5 c 128,-1,18
 406 198 406 198 406 258 c 0,19,20
 406 364 406 364 380.5 410 c 128,-1,21
 355 456 355 456 285 456 c 0,22,23
 251 456 251 456 213 447.5 c 128,-1,24
 175 439 175 439 154 430 c 2,25,-1
 134 422 l 1,26,-1
 134 50 l 1,13,14
EndSplineSet
EndChar

StartChar: c
Encoding: 99 99 70
Width: 433
GlyphClass: 2
Flags: W
LayerCount: 2
Fore
SplineSet
261 510 m 0,0,1
 306 510 306 510 368 500 c 1,2,-1
 391 497 l 1,3,-1
 388 446 l 1,4,5
 309 456 309 456 271 456 c 0,6,7
 182 456 182 456 149 412.5 c 128,-1,8
 116 369 116 369 116 252.5 c 128,-1,9
 116 136 116 136 146 90 c 128,-1,10
 176 44 176 44 271 44 c 1,11,-1
 390 53 l 1,12,-1
 392 2 l 1,13,14
 303 -10 303 -10 260 -10 c 0,15,16
 141 -10 141 -10 97.5 49 c 128,-1,17
 54 108 54 108 54 252 c 128,-1,18
 54 396 54 396 101.5 453 c 128,-1,19
 149 510 149 510 261 510 c 0,0,1
EndSplineSet
EndChar

StartChar: d
Encoding: 100 100 71
Width: 523
GlyphClass: 2
Flags: W
LayerCount: 2
Fore
SplineSet
449 722 m 1,0,-1
 449 0 l 1,1,-1
 389 0 l 1,2,-1
 389 37 l 1,3,4
 310 -10 310 -10 229 -10 c 0,5,6
 192 -10 192 -10 165 -1.5 c 128,-1,7
 138 7 138 7 110 32 c 0,8,9
 53 83 53 83 53 231.5 c 128,-1,10
 53 380 53 380 101 445 c 128,-1,11
 149 510 149 510 263 510 c 0,12,13
 307 510 307 510 389 497 c 1,14,-1
 389 722 l 1,15,-1
 449 722 l 1,0,-1
191.5 51 m 128,-1,17
 210 44 210 44 239.5 44 c 128,-1,18
 269 44 269 44 307.5 55 c 128,-1,19
 346 66 346 66 368 76 c 1,20,-1
 389 87 l 1,21,-1
 389 445 l 1,22,23
 309 457 309 457 265 457 c 0,24,25
 180 457 180 457 147.5 405 c 128,-1,26
 115 353 115 353 115 244 c 0,27,28
 115 116 115 116 154 77 c 0,29,16
 173 58 173 58 191.5 51 c 128,-1,17
EndSplineSet
EndChar

StartChar: e
Encoding: 101 101 72
Width: 504
GlyphClass: 2
Flags: W
LayerCount: 2
Fore
SplineSet
406 50 m 1,0,-1
 436 53 l 1,1,-1
 438 4 l 1,2,3
 325 -10 325 -10 247 -10 c 0,4,5
 139 -9 139 -9 96 54 c 128,-1,6
 53 117 53 117 53 248 c 0,7,8
 53 510 53 510 259 510 c 0,9,10
 358 510 358 510 407 453.5 c 128,-1,11
 456 397 456 397 456 273 c 1,12,-1
 454 225 l 1,13,-1
 114 225 l 1,14,15
 114 133 114 133 145.5 88.5 c 128,-1,16
 177 44 177 44 253.5 44 c 128,-1,17
 330 44 330 44 406 50 c 1,0,-1
114 275 m 1,18,-1
 396 275 l 1,19,20
 396 374 396 374 363.5 416 c 128,-1,21
 331 458 331 458 259.5 458 c 128,-1,22
 188 458 188 458 151 414.5 c 128,-1,23
 114 371 114 371 114 275 c 1,18,-1
EndSplineSet
EndChar

StartChar: f
Encoding: 102 102 73
Width: 324
GlyphClass: 2
Flags: W
LayerCount: 2
Fore
SplineSet
155 447 m 1,0,-1
 155 0 l 1,1,-1
 95 0 l 1,2,-1
 95 447 l 1,3,-1
 30 447 l 1,4,-1
 30 500 l 1,5,-1
 95 500 l 1,6,-1
 95 551 l 2,7,8
 95 657 95 657 124 694.5 c 128,-1,9
 153 732 153 732 227 732 c 1,10,-1
 324 727 l 1,11,-1
 324 676 l 1,12,13
 265 678 265 678 236 678 c 0,14,15
 189 678 189 678 172 652 c 128,-1,16
 155 626 155 626 155 550 c 2,17,-1
 155 500 l 1,18,-1
 306 500 l 1,19,-1
 306 447 l 1,20,-1
 155 447 l 1,0,-1
EndSplineSet
EndChar

StartChar: g
Encoding: 103 103 74
Width: 509
GlyphClass: 2
Flags: W
LayerCount: 2
Fore
SplineSet
425.5 -199 m 128,-1,1
 371 -237 371 -237 256 -237 c 128,-1,2
 141 -237 141 -237 97 -204 c 128,-1,3
 53 -171 53 -171 53 -83 c 0,4,5
 53 -41 53 -41 71 -15.5 c 128,-1,6
 89 10 89 10 134 43 c 1,7,8
 109 59 109 59 109 111 c 0,9,10
 109 127 109 127 133 174 c 2,11,-1
 141 189 l 1,12,13
 59 223 59 223 59 340 c 0,14,15
 59 510 59 510 240 510 c 0,16,17
 291 510 291 510 330 500 c 1,18,-1
 345 497 l 1,19,-1
 490 500 l 1,20,-1
 490 447 l 1,21,-1
 390 449 l 1,22,23
 426 413 426 413 426 330.5 c 128,-1,24
 426 248 426 248 380.5 210.5 c 128,-1,25
 335 173 335 173 237 173 c 0,26,27
 208 173 208 173 186 177 c 1,28,29
 166 128 166 128 166 115 c 0,30,31
 166 82 166 82 185.5 74.5 c 128,-1,32
 205 67 205 67 302 66.5 c 128,-1,33
 399 66 399 66 439.5 37.5 c 128,-1,34
 480 9 480 9 480 -76 c 128,-1,0
 480 -161 480 -161 425.5 -199 c 128,-1,1
113 -79 m 0,35,36
 113 -139 113 -139 143 -162 c 128,-1,37
 173 -185 173 -185 259 -185 c 128,-1,38
 345 -185 345 -185 382 -160.5 c 128,-1,39
 419 -136 419 -136 419 -78.5 c 128,-1,40
 419 -21 419 -21 392 -4 c 128,-1,41
 365 13 365 13 289 13 c 1,42,-1
 176 17 l 1,43,44
 139 -9 139 -9 126 -28.5 c 128,-1,45
 113 -48 113 -48 113 -79 c 0,35,36
148 249.5 m 128,-1,47
 176 223 176 223 242.5 223 c 128,-1,48
 309 223 309 223 337 249 c 128,-1,49
 365 275 365 275 365 340.5 c 128,-1,50
 365 406 365 406 337 433 c 128,-1,51
 309 460 309 460 242.5 460 c 128,-1,52
 176 460 176 460 148 432.5 c 128,-1,53
 120 405 120 405 120 340.5 c 128,-1,46
 120 276 120 276 148 249.5 c 128,-1,47
EndSplineSet
EndChar

StartChar: h
Encoding: 104 104 75
Width: 533
GlyphClass: 2
Flags: W
LayerCount: 2
Fore
SplineSet
134 0 m 1,0,-1
 75 0 l 1,1,-1
 75 722 l 1,2,-1
 134 722 l 1,3,-1
 134 471 l 1,4,5
 218 510 218 510 296 510 c 0,6,7
 396 510 396 510 429.5 457 c 128,-1,8
 463 404 463 404 463 263 c 2,9,-1
 463 0 l 1,10,-1
 403 0 l 1,11,-1
 403 260 l 2,12,13
 403 375 403 375 381.5 415.5 c 128,-1,14
 360 456 360 456 288 456 c 0,15,16
 253 456 253 456 214.5 447.5 c 128,-1,17
 176 439 176 439 155 430 c 2,18,-1
 134 422 l 1,19,-1
 134 0 l 1,0,-1
EndSplineSet
EndChar

StartChar: i
Encoding: 105 105 76
Width: 209
GlyphClass: 2
Flags: W
LayerCount: 2
Fore
SplineSet
75 0 m 1,0,-1
 75 500 l 1,1,-1
 134 500 l 1,2,-1
 134 0 l 1,3,-1
 75 0 l 1,0,-1
75 625 m 1,4,-1
 75 700 l 1,5,-1
 134 700 l 1,6,-1
 134 625 l 1,7,-1
 75 625 l 1,4,-1
EndSplineSet
EndChar

StartChar: j
Encoding: 106 106 77
Width: 209
GlyphClass: 2
Flags: W
LayerCount: 2
Fore
SplineSet
75 10 m 2,0,-1
 75 500 l 1,1,-1
 135 500 l 1,2,-1
 135 9 l 2,3,4
 135 -79 135 -79 102.5 -125 c 128,-1,5
 70 -171 70 -171 -29 -221 c 1,6,-1
 -53 -173 l 1,7,8
 28 -127 28 -127 51.5 -95 c 128,-1,9
 75 -63 75 -63 75 10 c 2,0,-1
75 625 m 1,10,-1
 75 700 l 1,11,-1
 135 700 l 1,12,-1
 135 625 l 1,13,-1
 75 625 l 1,10,-1
EndSplineSet
EndChar

StartChar: k
Encoding: 107 107 78
Width: 470
GlyphClass: 2
Flags: W
LayerCount: 2
Fore
SplineSet
134 0 m 1,0,-1
 75 0 l 1,1,-1
 75 722 l 1,2,-1
 134 722 l 1,3,-1
 134 292 l 1,4,-1
 219 294 l 1,5,-1
 373 500 l 1,6,-1
 442 500 l 1,7,-1
 271 271 l 1,8,-1
 450 0 l 1,9,-1
 380 0 l 1,10,-1
 220 241 l 1,11,-1
 134 239 l 1,12,-1
 134 0 l 1,0,-1
EndSplineSet
EndChar

StartChar: l
Encoding: 108 108 79
Width: 221
GlyphClass: 2
Flags: W
LayerCount: 2
Fore
SplineSet
81 0 m 1,0,-1
 81 722 l 1,1,-1
 140 722 l 1,2,-1
 140 0 l 1,3,-1
 81 0 l 1,0,-1
EndSplineSet
EndChar

StartChar: m
Encoding: 109 109 80
Width: 835
GlyphClass: 2
Flags: W
LayerCount: 2
Fore
SplineSet
134 0 m 1,0,-1
 75 0 l 1,1,-1
 75 500 l 1,2,-1
 134 500 l 1,3,-1
 134 463 l 1,4,5
 210 510 210 510 296 510 c 128,-1,6
 382 510 382 510 418 457 c 1,7,8
 454 479 454 479 505.5 494.5 c 128,-1,9
 557 510 557 510 598 510 c 0,10,11
 698 510 698 510 731.5 457.5 c 128,-1,12
 765 405 765 405 765 263 c 2,13,-1
 765 0 l 1,14,-1
 706 0 l 1,15,-1
 706 260 l 2,16,17
 706 375 706 375 684.5 415.5 c 128,-1,18
 663 456 663 456 591 456 c 0,19,20
 555 456 555 456 517 445.5 c 128,-1,21
 479 435 479 435 459 424 c 2,22,-1
 439 414 l 1,23,24
 454 376 454 376 454 260 c 2,25,-1
 454 0 l 1,26,-1
 394 0 l 1,27,-1
 394 258 l 2,28,29
 394 375 394 375 372.5 415.5 c 128,-1,30
 351 456 351 456 280 456 c 0,31,32
 245 456 245 456 208.5 445.5 c 128,-1,33
 172 435 172 435 153 424 c 2,34,-1
 134 414 l 1,35,-1
 134 0 l 1,0,-1
EndSplineSet
EndChar

StartChar: n
Encoding: 110 110 81
Width: 533
GlyphClass: 2
Flags: W
LayerCount: 2
Fore
SplineSet
134 0 m 1,0,-1
 75 0 l 1,1,-1
 75 500 l 1,2,-1
 134 500 l 1,3,-1
 134 463 l 1,4,5
 218 510 218 510 297 510 c 0,6,7
 397 510 397 510 430.5 457 c 128,-1,8
 464 404 464 404 464 263 c 2,9,-1
 464 0 l 1,10,-1
 404 0 l 1,11,-1
 404 260 l 2,12,13
 404 375 404 375 382 415.5 c 128,-1,14
 360 456 360 456 288 456 c 0,15,16
 253 456 253 456 214.5 445.5 c 128,-1,17
 176 435 176 435 155 424 c 2,18,-1
 134 414 l 1,19,-1
 134 0 l 1,0,-1
EndSplineSet
EndChar

StartChar: o
Encoding: 111 111 82
Width: 527
GlyphClass: 2
Flags: W
LayerCount: 2
Fore
SplineSet
101.5 451 m 128,-1,1
 149 510 149 510 263.5 510 c 128,-1,2
 378 510 378 510 425.5 451 c 128,-1,3
 473 392 473 392 473 251 c 128,-1,4
 473 110 473 110 429.5 50 c 128,-1,5
 386 -10 386 -10 264 -10 c 128,-1,6
 142 -10 142 -10 98 50 c 128,-1,7
 54 110 54 110 54 251 c 128,-1,0
 54 392 54 392 101.5 451 c 128,-1,1
143.5 88.5 m 128,-1,9
 171 43 171 43 263.5 43 c 128,-1,10
 356 43 356 43 384 89 c 128,-1,11
 412 135 412 135 412 252.5 c 128,-1,12
 412 370 412 370 380.5 413.5 c 128,-1,13
 349 457 349 457 264 457 c 128,-1,14
 179 457 179 457 147.5 414 c 128,-1,15
 116 371 116 371 116 252.5 c 128,-1,8
 116 134 116 134 143.5 88.5 c 128,-1,9
EndSplineSet
EndChar

StartChar: p
Encoding: 112 112 83
Width: 523
GlyphClass: 2
Flags: W
LayerCount: 2
Fore
SplineSet
75 -225 m 1,0,-1
 75 500 l 1,1,-1
 134 500 l 1,2,-1
 134 462 l 1,3,4
 212 510 212 510 298.5 510 c 128,-1,5
 385 510 385 510 427.5 449 c 128,-1,6
 470 388 470 388 470 250.5 c 128,-1,7
 470 113 470 113 420 51.5 c 128,-1,8
 370 -10 370 -10 254 -10 c 0,9,10
 192 -10 192 -10 134 3 c 1,11,-1
 134 -225 l 1,12,-1
 75 -225 l 1,0,-1
286 456 m 0,13,14
 253 456 253 456 215 445 c 128,-1,15
 177 434 177 434 156 422 c 1,16,-1
 134 411 l 1,17,-1
 134 55 l 1,18,19
 202 43 202 43 252 43 c 0,20,21
 338 43 338 43 373 91.5 c 128,-1,22
 408 140 408 140 408 251.5 c 128,-1,23
 408 363 408 363 377.5 409.5 c 128,-1,24
 347 456 347 456 286 456 c 0,13,14
EndSplineSet
EndChar

StartChar: q
Encoding: 113 113 84
Width: 521
GlyphClass: 2
Flags: W
LayerCount: 2
Fore
SplineSet
238 -10 m 0,0,1
 138 -10 138 -10 95.5 50 c 128,-1,2
 53 110 53 110 53 249 c 128,-1,3
 53 388 53 388 104.5 449 c 128,-1,4
 156 510 156 510 286 510 c 1,5,-1
 446 500 l 1,6,-1
 446 -225 l 1,7,-1
 387 -225 l 1,8,-1
 387 25 l 1,9,10
 316 -10 316 -10 238 -10 c 0,0,1
287 457 m 0,11,12
 186 457 186 457 150 407.5 c 128,-1,13
 114 358 114 358 114 249 c 128,-1,14
 114 140 114 140 143 92 c 128,-1,15
 172 44 172 44 243 44 c 0,16,17
 277 44 277 44 313 52 c 128,-1,18
 349 60 349 60 368 68 c 2,19,-1
 387 77 l 1,20,-1
 387 451 l 1,21,22
 319 457 319 457 287 457 c 0,11,12
EndSplineSet
EndChar

StartChar: r
Encoding: 114 114 85
Width: 339
GlyphClass: 2
Flags: W
LayerCount: 2
Fore
SplineSet
75 0 m 1,0,-1
 75 500 l 1,1,-1
 134 500 l 1,2,-1
 134 428 l 1,3,4
 171 454 171 454 224.5 478 c 128,-1,5
 278 502 278 502 323 510 c 1,6,-1
 323 450 l 1,7,8
 280 441 280 441 233 422.5 c 128,-1,9
 186 404 186 404 160 390 c 2,10,-1
 134 375 l 1,11,-1
 134 0 l 1,12,-1
 75 0 l 1,0,-1
EndSplineSet
EndChar

StartChar: s
Encoding: 115 115 86
Width: 464
GlyphClass: 2
Flags: W
LayerCount: 2
Fore
SplineSet
226 455 m 0,0,1
 108 455 108 455 108 370 c 0,2,3
 108 331 108 331 134 315 c 128,-1,4
 160 299 160 299 251.5 283.5 c 128,-1,5
 343 268 343 268 380.5 241 c 128,-1,6
 418 214 418 214 418 137.5 c 128,-1,7
 418 61 418 61 369 25.5 c 128,-1,8
 320 -10 320 -10 225 -10 c 0,9,10
 170 -10 170 -10 83 4 c 1,11,-1
 54 8 l 1,12,-1
 58 61 l 1,13,14
 170 44 170 44 230 44 c 128,-1,15
 290 44 290 44 323.5 65 c 128,-1,16
 357 86 357 86 357 136 c 128,-1,17
 357 186 357 186 329.5 202.5 c 128,-1,18
 302 219 302 219 211.5 233 c 128,-1,19
 121 247 121 247 84 273 c 128,-1,20
 47 299 47 299 47 371 c 128,-1,21
 47 443 47 443 98 476 c 128,-1,22
 149 509 149 509 224 509 c 0,23,24
 284 509 284 509 374 496 c 2,25,-1
 401 492 l 1,26,-1
 399 439 l 1,27,28
 292 455 292 455 226 455 c 0,0,1
EndSplineSet
EndChar

StartChar: t
Encoding: 116 116 87
Width: 347
GlyphClass: 2
Flags: W
LayerCount: 2
Fore
SplineSet
328 447 m 1,0,-1
 161 447 l 1,1,-1
 161 200 l 2,2,3
 161 103 161 103 175 73 c 128,-1,4
 189 43 189 43 241 43 c 1,5,-1
 333 50 l 1,6,-1
 337 -1 l 1,7,8
 271 -11 271 -11 236 -11 c 0,9,10
 160 -11 160 -11 130.5 26.5 c 128,-1,11
 101 64 101 64 101 170 c 2,12,-1
 101 447 l 1,13,-1
 27 447 l 1,14,-1
 27 500 l 1,15,-1
 101 500 l 1,16,-1
 101 657 l 1,17,-1
 161 657 l 1,18,-1
 161 500 l 1,19,-1
 328 500 l 1,20,-1
 328 447 l 1,0,-1
EndSplineSet
EndChar

StartChar: u
Encoding: 117 117 88
Width: 525
GlyphClass: 2
Flags: W
LayerCount: 2
Fore
SplineSet
391 500 m 1,0,-1
 450 500 l 1,1,-1
 450 0 l 1,2,-1
 391 0 l 1,3,-1
 391 37 l 1,4,5
 314 -10 314 -10 237 -10 c 0,6,7
 135 -10 135 -10 102.5 42 c 128,-1,8
 70 94 70 94 70 239 c 2,9,-1
 70 500 l 1,10,-1
 129 500 l 1,11,-1
 129 240 l 2,12,13
 129 124 129 124 150.5 84 c 128,-1,14
 172 44 172 44 244 44 c 0,15,16
 279 44 279 44 316 54.5 c 128,-1,17
 353 65 353 65 372 76 c 2,18,-1
 391 86 l 1,19,-1
 391 500 l 1,0,-1
EndSplineSet
EndChar

StartChar: v
Encoding: 118 118 89
Width: 477
GlyphClass: 2
Flags: W
LayerCount: 2
Fore
SplineSet
27 500 m 1,0,-1
 93 500 l 1,1,-1
 218 52 l 1,2,-1
 258 52 l 1,3,-1
 388 500 l 1,4,-1
 450 500 l 1,5,-1
 304 0 l 1,6,-1
 173 0 l 1,7,-1
 27 500 l 1,0,-1
EndSplineSet
EndChar

StartChar: w
Encoding: 119 119 90
Width: 760
GlyphClass: 2
Flags: W
LayerCount: 2
Fore
SplineSet
33 500 m 1,0,-1
 94 500 l 1,1,-1
 204 52 l 1,2,-1
 218 52 l 1,3,-1
 348 490 l 1,4,-1
 411 490 l 1,5,-1
 541 52 l 1,6,-1
 556 52 l 1,7,-1
 666 500 l 1,8,-1
 727 500 l 1,9,-1
 602 0 l 1,10,-1
 498 0 l 1,11,-1
 380 412 l 1,12,-1
 261 0 l 1,13,-1
 158 0 l 1,14,-1
 33 500 l 1,0,-1
EndSplineSet
EndChar

StartChar: x
Encoding: 120 120 91
Width: 446
GlyphClass: 2
Flags: W
LayerCount: 2
Fore
SplineSet
24 500 m 1,0,-1
 91 500 l 1,1,-1
 223 294 l 1,2,-1
 355 500 l 1,3,-1
 422 500 l 1,4,-1
 259 251 l 1,5,-1
 421 0 l 1,6,-1
 355 0 l 1,7,-1
 223 205 l 1,8,-1
 91 0 l 1,9,-1
 24 0 l 1,10,-1
 185 250 l 1,11,-1
 24 500 l 1,0,-1
EndSplineSet
EndChar

StartChar: y
Encoding: 121 121 92
Width: 478
GlyphClass: 2
Flags: W
LayerCount: 2
Fore
SplineSet
27 500 m 1,0,-1
 88 500 l 1,1,-1
 221 52 l 1,2,-1
 257 52 l 1,3,-1
 391 500 l 1,4,-1
 452 500 l 1,5,-1
 236 -225 l 1,6,-1
 176 -225 l 1,7,-1
 243 0 l 1,8,-1
 174 0 l 1,9,-1
 27 500 l 1,0,-1
EndSplineSet
EndChar

StartChar: z
Encoding: 122 122 93
Width: 455
GlyphClass: 2
Flags: W
LayerCount: 2
Fore
SplineSet
42 446 m 1,0,-1
 42 500 l 1,1,-1
 413 500 l 1,2,-1
 413 446 l 1,3,-1
 116 54 l 1,4,-1
 413 54 l 1,5,-1
 413 0 l 1,6,-1
 42 0 l 1,7,-1
 42 54 l 1,8,-1
 339 446 l 1,9,-1
 42 446 l 1,0,-1
EndSplineSet
EndChar

StartChar: braceleft
Encoding: 123 123 94
Width: 350
GlyphClass: 2
Flags: W
LayerCount: 2
Fore
SplineSet
183 574 m 1,0,-1
 190 453 l 1,1,2
 190 389 190 389 168.5 359.5 c 128,-1,3
 147 330 147 330 87 312 c 1,4,5
 147 294 147 294 169 263.5 c 128,-1,6
 191 233 191 233 191 170 c 1,7,-1
 184 53 l 1,8,9
 184 -9 184 -9 210.5 -39.5 c 128,-1,10
 237 -70 237 -70 309 -74 c 1,11,-1
 307 -127 l 1,12,13
 208 -123 208 -123 166.5 -82 c 128,-1,14
 125 -41 125 -41 125 49 c 1,15,-1
 132 172 l 1,16,17
 132 216 132 216 107.5 243 c 128,-1,18
 83 270 83 270 26 286 c 1,19,-1
 26 336 l 1,20,21
 83 349 83 349 107.5 376 c 128,-1,22
 132 403 132 403 132 449 c 1,23,-1
 125 577 l 1,24,25
 125 668 125 668 167 708.5 c 128,-1,26
 209 749 209 749 308 753 c 1,27,-1
 309 701 l 1,28,29
 237 697 237 697 210 666.5 c 128,-1,30
 183 636 183 636 183 574 c 1,0,-1
EndSplineSet
Substitution2: "'case' Case-Sensitive Forms in Latin lookup 4 subtable" braceleft.cap
EndChar

StartChar: bar
Encoding: 124 124 95
Width: 221
GlyphClass: 2
Flags: W
LayerCount: 2
Fore
SplineSet
80 -225 m 1,0,-1
 80 722 l 1,1,-1
 140 722 l 1,2,-1
 140 -225 l 1,3,-1
 80 -225 l 1,0,-1
EndSplineSet
EndChar

StartChar: braceright
Encoding: 125 125 96
Width: 350
GlyphClass: 2
Flags: W
LayerCount: 2
Fore
SplineSet
166 53 m 1,0,-1
 159 170 l 1,1,2
 159 233 159 233 181 263.5 c 128,-1,3
 203 294 203 294 263 312 c 1,4,5
 203 330 203 330 181.5 359.5 c 128,-1,6
 160 389 160 389 160 453 c 1,7,-1
 167 574 l 1,8,9
 167 636 167 636 140 666.5 c 128,-1,10
 113 697 113 697 41 701 c 1,11,-1
 42 753 l 1,12,13
 141 749 141 749 183 708.5 c 128,-1,14
 225 668 225 668 225 577 c 1,15,-1
 218 449 l 1,16,17
 218 403 218 403 242.5 376 c 128,-1,18
 267 349 267 349 324 336 c 1,19,-1
 324 286 l 1,20,21
 267 270 267 270 242.5 243 c 128,-1,22
 218 216 218 216 218 172 c 1,23,-1
 225 49 l 1,24,25
 225 -41 225 -41 183.5 -82 c 128,-1,26
 142 -123 142 -123 43 -127 c 1,27,-1
 41 -74 l 1,28,29
 113 -70 113 -70 139.5 -39.5 c 128,-1,30
 166 -9 166 -9 166 53 c 1,0,-1
EndSplineSet
Substitution2: "'case' Case-Sensitive Forms in Latin lookup 4 subtable" braceright.cap
EndChar

StartChar: asciitilde
Encoding: 126 126 97
Width: 560
GlyphClass: 2
Flags: W
LayerCount: 2
Fore
SplineSet
382 201 m 0,0,1
 352 201 352 201 277 234 c 128,-1,2
 202 267 202 267 184 267 c 0,3,4
 150 267 150 267 96 230 c 2,5,-1
 79 218 l 1,6,-1
 68 269 l 1,7,8
 131 323 131 323 183 323 c 0,9,10
 212 323 212 323 286.5 290 c 128,-1,11
 361 257 361 257 380 257 c 0,12,13
 414 257 414 257 466 293 c 1,14,-1
 484 305 l 1,15,-1
 494 255 l 1,16,17
 434 201 434 201 382 201 c 0,0,1
EndSplineSet
EndChar

StartChar: exclamdown
Encoding: 161 161 99
Width: 219
GlyphClass: 2
Flags: W
LayerCount: 2
Fore
SplineSet
141 500 m 1,0,-1
 141 400 l 1,1,-1
 75 400 l 1,2,-1
 75 500 l 1,3,-1
 141 500 l 1,0,-1
137 277 m 1,4,-1
 140 -195 l 1,5,-1
 77 -195 l 1,6,-1
 81 277 l 1,7,-1
 137 277 l 1,4,-1
EndSplineSet
Substitution2: "'case' Case-Sensitive Forms in Latin lookup 4 subtable" exclamdown.cap
EndChar

StartChar: cent
Encoding: 162 162 100
Width: 560
GlyphClass: 2
Flags: W
LayerCount: 2
Fore
SplineSet
280 -83 m 1,0,-1
 280 38 l 1,1,2
 186 42 186 42 145 87.5 c 128,-1,3
 104 133 104 133 104 245.5 c 128,-1,4
 104 358 104 358 146.5 408.5 c 128,-1,5
 189 459 189 459 280 463 c 1,6,-1
 280 586 l 1,7,-1
 333 586 l 1,8,-1
 333 461 l 1,9,10
 372 461 372 461 423 452 c 2,11,-1
 440 449 l 1,12,-1
 438 399 l 1,13,14
 358 408 358 408 305 408 c 0,15,16
 229 408 229 408 198.5 371.5 c 128,-1,17
 168 335 168 335 168 247 c 128,-1,18
 168 159 168 159 198 126 c 128,-1,19
 228 93 228 93 313 93 c 1,20,-1
 439 100 l 1,21,-1
 442 49 l 1,22,23
 376 41 376 41 334 39 c 1,24,-1
 334 -83 l 1,25,-1
 280 -83 l 1,0,-1
EndSplineSet
EndChar

StartChar: sterling
Encoding: 163 163 101
Width: 560
GlyphClass: 2
Flags: W
LayerCount: 2
Fore
SplineSet
440 604 m 1,0,1
 358 615 358 615 311 615 c 128,-1,2
 264 615 264 615 246 584.5 c 128,-1,3
 228 554 228 554 228 462 c 2,4,-1
 228 413 l 1,5,-1
 402 413 l 1,6,-1
 402 360 l 1,7,-1
 228 360 l 1,8,-1
 228 54 l 1,9,-1
 389 54 l 1,10,-1
 468 70 l 1,11,-1
 478 18 l 1,12,-1
 397 0 l 1,13,-1
 81 0 l 1,14,-1
 81 54 l 1,15,-1
 168 54 l 1,16,-1
 168 360 l 1,17,-1
 101 360 l 1,18,-1
 101 413 l 1,19,-1
 168 413 l 1,20,-1
 168 466 l 2,21,22
 168 587 168 587 200 628 c 128,-1,23
 232 669 232 669 313 669 c 0,24,25
 360 669 360 669 420 658 c 2,26,-1
 441 654 l 1,27,-1
 440 604 l 1,0,1
EndSplineSet
EndChar

StartChar: currency
Encoding: 164 164 102
Width: 560
GlyphClass: 2
Flags: W
LayerCount: 2
Fore
SplineSet
382 107 m 1,0,1
 336 75 336 75 279.5 75 c 128,-1,2
 223 75 223 75 177 107 c 1,3,-1
 108 37 l 1,4,-1
 65 80 l 1,5,-1
 135 149 l 1,6,7
 103 195 103 195 103 251.5 c 128,-1,8
 103 308 103 308 135 354 c 1,9,-1
 65 424 l 1,10,-1
 108 467 l 1,11,-1
 177 396 l 1,12,13
 225 429 225 429 279.5 429 c 128,-1,14
 334 429 334 429 382 396 c 1,15,-1
 452 467 l 1,16,-1
 495 424 l 1,17,-1
 424 354 l 1,18,19
 457 306 457 306 457 251.5 c 128,-1,20
 457 197 457 197 424 149 c 1,21,-1
 495 80 l 1,22,-1
 452 37 l 1,23,-1
 382 107 l 1,0,1
280 130 m 128,-1,25
 330 130 330 130 366 166 c 128,-1,26
 402 202 402 202 402 252 c 128,-1,27
 402 302 402 302 366 338 c 128,-1,28
 330 374 330 374 280 374 c 128,-1,29
 230 374 230 374 194 338 c 128,-1,30
 158 302 158 302 158 252 c 128,-1,31
 158 202 158 202 194 166 c 128,-1,24
 230 130 230 130 280 130 c 128,-1,25
EndSplineSet
EndChar

StartChar: yen
Encoding: 165 165 103
Width: 560
GlyphClass: 2
Flags: W
LayerCount: 2
Fore
SplineSet
57 321 m 1,0,-1
 57 374 l 1,1,-1
 208 374 l 1,2,-1
 27 660 l 1,3,-1
 96 660 l 1,4,-1
 281 375 l 1,5,-1
 463 660 l 1,6,-1
 533 660 l 1,7,-1
 354 374 l 1,8,-1
 502 374 l 1,9,-1
 502 321 l 1,10,-1
 322 321 l 1,11,-1
 312 301 l 1,12,-1
 312 223 l 1,13,-1
 503 223 l 1,14,-1
 503 170 l 1,15,-1
 312 170 l 1,16,-1
 312 0 l 1,17,-1
 250 0 l 1,18,-1
 250 170 l 1,19,-1
 58 170 l 1,20,-1
 58 223 l 1,21,-1
 250 223 l 1,22,-1
 250 301 l 1,23,-1
 241 321 l 1,24,-1
 57 321 l 1,0,-1
EndSplineSet
EndChar

StartChar: brokenbar
Encoding: 166 166 104
Width: 225
GlyphClass: 2
Flags: W
LayerCount: 2
Fore
SplineSet
82 722 m 1,0,-1
 142 722 l 1,1,-1
 142 347 l 1,2,-1
 82 347 l 1,3,-1
 82 722 l 1,0,-1
82 152 m 1,4,-1
 142 152 l 1,5,-1
 142 -225 l 1,6,-1
 82 -225 l 1,7,-1
 82 152 l 1,4,-1
EndSplineSet
EndChar

StartChar: section
Encoding: 167 167 105
Width: 494
GlyphClass: 2
Flags: W
LayerCount: 2
Fore
SplineSet
68 501 m 0,0,1
 68 654 68 654 254 654 c 0,2,3
 304 654 304 654 389 642 c 1,4,-1
 415 639 l 1,5,-1
 412 588 l 1,6,7
 304 601 304 601 247 601 c 0,8,9
 127 601 127 601 127 503 c 0,10,11
 127 448 127 448 158 428 c 128,-1,12
 189 408 189 408 274 393 c 128,-1,13
 359 378 359 378 396.5 349.5 c 128,-1,14
 434 321 434 321 434 251 c 0,15,16
 434 213 434 213 419 175 c 128,-1,17
 404 137 404 137 393 121 c 1,18,19
 429 93 429 93 429 24 c 0,20,21
 429 -140 429 -140 245 -140 c 0,22,23
 189 -140 189 -140 102 -128 c 2,24,-1
 73 -124 l 1,25,-1
 78 -73 l 1,26,27
 188 -88 188 -88 243 -88 c 0,28,29
 371 -88 371 -88 371 21 c 0,30,31
 371 71 371 71 341 87.5 c 128,-1,32
 311 104 311 104 223.5 118.5 c 128,-1,33
 136 133 136 133 96 164 c 128,-1,34
 56 195 56 195 56 265 c 0,35,36
 56 305 56 305 77.5 342 c 128,-1,37
 99 379 99 379 112 389 c 1,38,39
 68 422 68 422 68 501 c 0,0,1
153 367 m 1,40,41
 116 312 116 312 116 268.5 c 128,-1,42
 116 225 116 225 144.5 204 c 128,-1,43
 173 183 173 183 243.5 171.5 c 128,-1,44
 314 160 314 160 347 145 c 1,45,46
 355 153 355 153 364.5 187.5 c 128,-1,47
 374 222 374 222 374 244 c 0,48,49
 374 293 374 293 346 312 c 128,-1,50
 318 331 318 331 248.5 343.5 c 128,-1,51
 179 356 179 356 153 367 c 1,40,41
EndSplineSet
EndChar

StartChar: dieresis
Encoding: 168 168 106
Width: 228
GlyphClass: 2
Flags: W
LayerCount: 2
Fore
SplineSet
-8 627 m 1,0,-1
 -8 707 l 1,1,-1
 51 707 l 1,2,-1
 51 627 l 1,3,-1
 -8 627 l 1,0,-1
189 627 m 1,4,-1
 189 707 l 1,5,-1
 247 707 l 1,6,-1
 247 627 l 1,7,-1
 189 627 l 1,4,-1
EndSplineSet
EndChar

StartChar: copyright
Encoding: 169 169 107
Width: 646
GlyphClass: 2
Flags: W
LayerCount: 2
Fore
SplineSet
136.5 242.5 m 128,-1,1
 62 321 62 321 62 434.5 c 128,-1,2
 62 548 62 548 136.5 626 c 128,-1,3
 211 704 211 704 323.5 704 c 128,-1,4
 436 704 436 704 509.5 625.5 c 128,-1,5
 583 547 583 547 583 433 c 128,-1,6
 583 319 583 319 509.5 241.5 c 128,-1,7
 436 164 436 164 323.5 164 c 128,-1,0
 211 164 211 164 136.5 242.5 c 128,-1,1
102 434 m 128,-1,9
 102 338 102 338 165 270.5 c 128,-1,10
 228 203 228 203 322.5 203 c 128,-1,11
 417 203 417 203 480.5 270 c 128,-1,12
 544 337 544 337 544 433.5 c 128,-1,13
 544 530 544 530 480.5 597.5 c 128,-1,14
 417 665 417 665 322.5 665 c 128,-1,15
 228 665 228 665 165 597.5 c 128,-1,8
 102 530 102 530 102 434 c 128,-1,9
325 278 m 0,16,17
 262 278 262 278 236.5 316 c 128,-1,18
 211 354 211 354 211 433.5 c 128,-1,19
 211 513 211 513 236 551.5 c 128,-1,20
 261 590 261 590 326 590 c 0,21,22
 365 590 365 590 391 584 c 1,23,-1
 401 581 l 1,24,-1
 399 535 l 1,25,26
 359 542 359 542 322.5 542 c 128,-1,27
 286 542 286 542 273.5 517 c 128,-1,28
 261 492 261 492 261 435 c 128,-1,29
 261 378 261 378 275 352 c 128,-1,30
 289 326 289 326 327 326 c 1,31,-1
 399 333 l 1,32,-1
 401 288 l 1,33,34
 362 278 362 278 325 278 c 0,16,17
EndSplineSet
EndChar

StartChar: ordfeminine
Encoding: 170 170 108
Width: 378
GlyphClass: 2
Flags: W
LayerCount: 2
Fore
SplineSet
290 564 m 2,0,-1
 290 428 l 1,1,2
 299 415 299 415 322 409 c 1,3,-1
 320 368 l 1,4,5
 272 368 272 368 248 392 c 1,6,7
 190 368 190 368 145 368 c 128,-1,8
 100 368 100 368 78.5 391.5 c 128,-1,9
 57 415 57 415 57 455 c 0,10,11
 57 532 57 532 145 538 c 2,12,-1
 238 544 l 1,13,-1
 238 566 l 2,14,15
 238 592 238 592 226 602.5 c 128,-1,16
 214 613 214 613 188 613 c 1,17,-1
 77 606 l 1,18,-1
 75 646 l 1,19,20
 144 659 144 659 192.5 659 c 128,-1,21
 241 659 241 659 265.5 637.5 c 128,-1,22
 290 616 290 616 290 564 c 2,0,-1
154 499 m 2,23,24
 110 496 110 496 110 454.5 c 128,-1,25
 110 413 110 413 148 413 c 0,26,27
 182 413 182 413 224 426 c 1,28,-1
 238 431 l 1,29,-1
 238 504 l 1,30,-1
 154 499 l 2,23,24
EndSplineSet
EndChar

StartChar: guillemotleft
Encoding: 171 171 109
Width: 523
GlyphClass: 2
Flags: W
LayerCount: 2
Fore
SplineSet
227 350 m 1,0,-1
 98 251 l 1,1,-1
 227 142 l 1,2,-1
 227 78 l 1,3,-1
 46 224 l 1,4,-1
 46 275 l 1,5,-1
 227 413 l 1,6,-1
 227 350 l 1,0,-1
453 350 m 1,7,-1
 324 251 l 1,8,-1
 453 142 l 1,9,-1
 453 78 l 1,10,-1
 272 224 l 1,11,-1
 272 275 l 1,12,-1
 453 413 l 1,13,-1
 453 350 l 1,7,-1
EndSplineSet
EndChar

StartChar: logicalnot
Encoding: 172 172 110
Width: 560
GlyphClass: 2
Flags: W
LayerCount: 2
Fore
SplineSet
67 338 m 1,0,-1
 493 338 l 1,1,-1
 493 120 l 1,2,-1
 436 120 l 1,3,-1
 436 283 l 1,4,-1
 67 283 l 1,5,-1
 67 338 l 1,0,-1
EndSplineSet
EndChar

StartChar: registered
Encoding: 174 174 111
Width: 646
GlyphClass: 2
Flags: W
LayerCount: 2
Fore
SplineSet
136.5 242.5 m 128,-1,1
 62 321 62 321 62 434.5 c 128,-1,2
 62 548 62 548 136 626 c 128,-1,3
 210 704 210 704 322.5 704 c 128,-1,4
 435 704 435 704 509 625.5 c 128,-1,5
 583 547 583 547 583 433 c 128,-1,6
 583 319 583 319 509.5 241.5 c 128,-1,7
 436 164 436 164 323.5 164 c 128,-1,0
 211 164 211 164 136.5 242.5 c 128,-1,1
102 434 m 128,-1,9
 102 338 102 338 165 270.5 c 128,-1,10
 228 203 228 203 322.5 203 c 128,-1,11
 417 203 417 203 480.5 270 c 128,-1,12
 544 337 544 337 544 433.5 c 128,-1,13
 544 530 544 530 480.5 597.5 c 128,-1,14
 417 665 417 665 322.5 665 c 128,-1,15
 228 665 228 665 165 597.5 c 128,-1,8
 102 530 102 530 102 434 c 128,-1,9
264 394 m 1,16,-1
 264 283 l 1,17,-1
 216 283 l 1,18,-1
 216 583 l 1,19,-1
 320 583 l 2,20,21
 377 583 377 583 405 562 c 128,-1,22
 433 541 433 541 433 490 c 0,23,24
 433 419 433 419 379 400 c 1,25,-1
 438 283 l 1,26,-1
 387 283 l 1,27,-1
 330 394 l 1,28,-1
 264 394 l 1,16,-1
264 542 m 1,29,-1
 264 435 l 1,30,-1
 331 435 l 2,31,32
 360 435 360 435 373 447.5 c 128,-1,33
 386 460 386 460 386 489 c 128,-1,34
 386 518 386 518 369 530 c 128,-1,35
 352 542 352 542 317 542 c 2,36,-1
 264 542 l 1,29,-1
EndSplineSet
EndChar

StartChar: macron
Encoding: 175 175 112
Width: 228
GlyphClass: 2
Flags: W
LayerCount: 2
Fore
SplineSet
-16 631 m 1,0,-1
 -16 680 l 1,1,-1
 256 680 l 1,2,-1
 256 631 l 1,3,-1
 -16 631 l 1,0,-1
EndSplineSet
EndChar

StartChar: degree
Encoding: 176 176 113
Width: 560
GlyphClass: 2
Flags: W
LayerCount: 2
Fore
SplineSet
140 565 m 128,-1,1
 140 627 140 627 179 666 c 128,-1,2
 218 705 218 705 280 705 c 128,-1,3
 342 705 342 705 380.5 666 c 128,-1,4
 419 627 419 627 419 565 c 128,-1,5
 419 503 419 503 380.5 465 c 128,-1,6
 342 427 342 427 280 427 c 128,-1,7
 218 427 218 427 179 465 c 128,-1,0
 140 503 140 503 140 565 c 128,-1,1
185 565 m 128,-1,9
 185 521 185 521 211 495 c 128,-1,10
 237 469 237 469 280.5 469 c 128,-1,11
 324 469 324 469 350.5 495.5 c 128,-1,12
 377 522 377 522 377 565 c 128,-1,13
 377 608 377 608 350.5 635 c 128,-1,14
 324 662 324 662 280.5 662 c 128,-1,15
 237 662 237 662 211 635.5 c 128,-1,8
 185 609 185 609 185 565 c 128,-1,9
EndSplineSet
EndChar

StartChar: plusminus
Encoding: 177 177 114
Width: 560
GlyphClass: 2
Flags: W
LayerCount: 2
Fore
SplineSet
57 298 m 1,0,-1
 57 354 l 1,1,-1
 250 354 l 1,2,-1
 250 484 l 1,3,-1
 307 484 l 1,4,-1
 307 354 l 1,5,-1
 503 354 l 1,6,-1
 503 298 l 1,7,-1
 307 298 l 1,8,-1
 307 165 l 1,9,-1
 250 165 l 1,10,-1
 250 298 l 1,11,-1
 57 298 l 1,0,-1
57 98 m 1,12,-1
 503 98 l 1,13,-1
 503 42 l 1,14,-1
 57 42 l 1,15,-1
 57 98 l 1,12,-1
EndSplineSet
EndChar

StartChar: twosuperior
Encoding: 178 178 115
Width: 280
GlyphClass: 2
Flags: W
LayerCount: 2
Fore
SplineSet
235 478 m 1,0,-1
 32 478 l 1,1,-1
 32 524 l 1,2,-1
 124 619 l 2,3,4
 151 646 151 646 163.5 665 c 128,-1,5
 176 684 176 684 176 707 c 0,6,7
 176 750 176 750 124 750 c 1,8,-1
 37 741 l 1,9,-1
 35 787 l 1,10,11
 91 799 91 799 134 799 c 0,12,13
 230 799 230 799 230 711 c 0,14,15
 230 677 230 677 216 653 c 128,-1,16
 202 629 202 629 168 596 c 1,17,-1
 99 526 l 1,18,-1
 235 526 l 1,19,-1
 235 478 l 1,0,-1
EndSplineSet
Substitution2: "Single Substitution lookup 5 subtable" twoinferior
EndChar

StartChar: threesuperior
Encoding: 179 179 116
Width: 280
GlyphClass: 2
Flags: W
LayerCount: 2
Fore
SplineSet
37 789 m 1,0,1
 93 799 93 799 141 799 c 128,-1,2
 189 799 189 799 213.5 779.5 c 128,-1,3
 238 760 238 760 238 717 c 0,4,5
 238 694 238 694 228 676 c 0,6,7
 214 651 214 651 196 643 c 1,8,9
 222 635 222 635 234 618 c 128,-1,10
 246 601 246 601 246 564 c 0,11,12
 246 468 246 468 143 468 c 0,13,14
 106 468 106 468 50 476 c 1,15,-1
 33 479 l 1,16,-1
 36 525 l 1,17,18
 92 517 92 517 142 517 c 128,-1,19
 192 517 192 517 192 565 c 0,20,21
 192 615 192 615 141 615 c 2,22,-1
 76 615 l 1,23,-1
 76 661 l 1,24,-1
 140 661 l 2,25,26
 156 661 156 661 170 676 c 128,-1,27
 184 691 184 691 184 712 c 0,28,29
 184 751 184 751 133 751 c 0,30,31
 94 751 94 751 54 745 c 2,32,-1
 40 743 l 1,33,-1
 37 789 l 1,0,1
EndSplineSet
Substitution2: "Single Substitution lookup 5 subtable" threeinferior
EndChar

StartChar: acute
Encoding: 180 180 117
Width: 268
GlyphClass: 2
Flags: W
LayerCount: 2
Fore
SplineSet
31 640 m 1,0,-1
 238 737 l 1,1,-1
 260 685 l 1,2,-1
 50 598 l 1,3,-1
 31 640 l 1,0,-1
EndSplineSet
EndChar

StartChar: mu
Encoding: 181 181 118
Width: 560
GlyphClass: 2
Flags: W
LayerCount: 2
Fore
SplineSet
410 500 m 1,0,-1
 469 500 l 1,1,-1
 469 0 l 1,2,-1
 410 0 l 1,3,-1
 410 37 l 1,4,5
 333 -10 333 -10 259 -10 c 128,-1,6
 185 -10 185 -10 148 15 c 1,7,-1
 148 -225 l 1,8,-1
 89 -225 l 1,9,-1
 89 500 l 1,10,-1
 148 500 l 1,11,-1
 148 240 l 2,12,13
 148 124 148 124 169.5 84 c 128,-1,14
 191 44 191 44 263 44 c 0,15,16
 298 44 298 44 335 54.5 c 128,-1,17
 372 65 372 65 391 76 c 2,18,-1
 410 86 l 1,19,-1
 410 500 l 1,0,-1
EndSplineSet
EndChar

StartChar: paragraph
Encoding: 182 182 119
Width: 591
GlyphClass: 2
Flags: W
LayerCount: 2
Fore
SplineSet
415 0 m 1,0,-1
 415 642 l 1,1,-1
 285 642 l 1,2,-1
 285 0 l 1,3,-1
 230 0 l 1,4,-1
 230 334 l 1,5,-1
 223 334 l 2,6,7
 143 334 143 334 90 384 c 128,-1,8
 37 434 37 434 37 513.5 c 128,-1,9
 37 593 37 593 90 644 c 128,-1,10
 143 695 143 695 223 695 c 2,11,-1
 552 695 l 1,12,-1
 552 642 l 1,13,-1
 470 642 l 1,14,-1
 470 0 l 1,15,-1
 415 0 l 1,0,-1
EndSplineSet
EndChar

StartChar: periodcentered
Encoding: 183 183 120
Width: 207
GlyphClass: 2
Flags: W
LayerCount: 2
Fore
SplineSet
71 244 m 1,0,-1
 71 345 l 1,1,-1
 137 345 l 1,2,-1
 137 244 l 1,3,-1
 71 244 l 1,0,-1
EndSplineSet
Substitution2: "'case' Case-Sensitive Forms in Latin lookup 4 subtable" periodcentered.cap
EndChar

StartChar: cedilla
Encoding: 184 184 121
Width: 263
GlyphClass: 2
Flags: W
LayerCount: 2
Fore
SplineSet
218 -127 m 0,0,1
 218 -211 218 -211 129 -211 c 1,2,-1
 45 -205 l 1,3,-1
 47 -165 l 1,4,5
 88 -168 88 -168 118 -168 c 0,6,7
 163 -168 163 -168 163 -127 c 0,8,9
 163 -90 163 -90 118 -90 c 2,10,-1
 71 -90 l 1,11,-1
 71 1 l 1,12,-1
 109 1 l 1,13,-1
 109 -52 l 1,14,15
 167 -52 167 -52 192.5 -67.5 c 128,-1,16
 218 -83 218 -83 218 -127 c 0,0,1
EndSplineSet
EndChar

StartChar: onesuperior
Encoding: 185 185 122
Width: 280
GlyphClass: 2
Flags: W
LayerCount: 2
Fore
SplineSet
188 790 m 1,0,-1
 188 478 l 1,1,-1
 135 478 l 1,2,-1
 135 731 l 1,3,-1
 62 681 l 1,4,-1
 37 721 l 1,5,-1
 138 790 l 1,6,-1
 188 790 l 1,0,-1
EndSplineSet
Substitution2: "Single Substitution lookup 5 subtable" oneinferior
EndChar

StartChar: ordmasculine
Encoding: 186 186 123
Width: 370
GlyphClass: 2
Flags: W
LayerCount: 2
Fore
SplineSet
185 659 m 0,0,1
 249 659 249 659 280.5 624 c 128,-1,2
 312 589 312 589 312 515 c 0,3,4
 312 368 312 368 185 368 c 0,5,6
 56 368 56 368 56 513.5 c 128,-1,7
 56 659 56 659 185 659 c 0,0,1
185 418 m 128,-1,9
 224 418 224 418 240.5 440.5 c 128,-1,10
 257 463 257 463 257 514.5 c 128,-1,11
 257 566 257 566 241 587.5 c 128,-1,12
 225 609 225 609 185.5 609 c 128,-1,13
 146 609 146 609 129 587.5 c 128,-1,14
 112 566 112 566 112 514.5 c 128,-1,15
 112 463 112 463 129 440.5 c 128,-1,8
 146 418 146 418 185 418 c 128,-1,9
EndSplineSet
EndChar

StartChar: guillemotright
Encoding: 187 187 124
Width: 523
GlyphClass: 2
Flags: W
LayerCount: 2
Fore
SplineSet
424 251 m 1,0,-1
 296 350 l 1,1,-1
 296 413 l 1,2,-1
 477 275 l 1,3,-1
 477 224 l 1,4,-1
 296 78 l 1,5,-1
 296 142 l 1,6,-1
 424 251 l 1,0,-1
198 251 m 1,7,-1
 70 350 l 1,8,-1
 70 413 l 1,9,-1
 251 275 l 1,10,-1
 251 224 l 1,11,-1
 70 78 l 1,12,-1
 70 142 l 1,13,-1
 198 251 l 1,7,-1
EndSplineSet
EndChar

StartChar: onequarter
Encoding: 188 188 125
Width: 531
GlyphClass: 2
Flags: W
LayerCount: 2
Fore
SplineSet
192 790 m 1,0,-1
 192 478 l 1,1,-1
 139 478 l 1,2,-1
 139 731 l 1,3,-1
 66 681 l 1,4,-1
 41 721 l 1,5,-1
 142 790 l 1,6,-1
 192 790 l 1,0,-1
36 28 m 1,7,-1
 428 659 l 1,8,-1
 464 636 l 1,9,-1
 72 6 l 1,10,-1
 36 28 l 1,7,-1
412 -100 m 1,11,-1
 412 -49 l 1,12,-1
 270 -49 l 1,13,-1
 270 -3 l 1,14,-1
 346 212 l 1,15,-1
 404 212 l 1,16,-1
 326 0 l 1,17,-1
 412 0 l 1,18,-1
 416 88 l 1,19,-1
 465 88 l 1,20,-1
 465 0 l 1,21,-1
 496 0 l 1,22,-1
 496 -49 l 1,23,-1
 465 -49 l 1,24,-1
 465 -100 l 1,25,-1
 412 -100 l 1,11,-1
EndSplineSet
EndChar

StartChar: onehalf
Encoding: 189 189 126
Width: 525
GlyphClass: 2
Flags: W
LayerCount: 2
Fore
SplineSet
197 790 m 1,0,-1
 197 478 l 1,1,-1
 144 478 l 1,2,-1
 144 731 l 1,3,-1
 71 681 l 1,4,-1
 46 721 l 1,5,-1
 147 790 l 1,6,-1
 197 790 l 1,0,-1
34 28 m 1,7,-1
 426 659 l 1,8,-1
 462 636 l 1,9,-1
 70 6 l 1,10,-1
 34 28 l 1,7,-1
479 -100 m 1,11,-1
 276 -100 l 1,12,-1
 276 -54 l 1,13,-1
 368 41 l 2,14,15
 395 68 395 68 407.5 87 c 128,-1,16
 420 106 420 106 420 129 c 0,17,18
 420 172 420 172 368 172 c 1,19,-1
 281 163 l 1,20,-1
 279 209 l 1,21,22
 335 221 335 221 378 221 c 0,23,24
 474 221 474 221 474 133 c 0,25,26
 474 99 474 99 460 75 c 128,-1,27
 446 51 446 51 412 18 c 1,28,-1
 343 -52 l 1,29,-1
 479 -52 l 1,30,-1
 479 -100 l 1,11,-1
EndSplineSet
EndChar

StartChar: threequarters
Encoding: 190 190 127
Width: 547
GlyphClass: 2
Flags: W
LayerCount: 2
Fore
SplineSet
57 789 m 1,0,1
 113 799 113 799 161 799 c 128,-1,2
 209 799 209 799 233.5 779.5 c 128,-1,3
 258 760 258 760 258 717 c 0,4,5
 258 694 258 694 248 676 c 0,6,7
 234 651 234 651 216 643 c 1,8,9
 242 635 242 635 254 618 c 128,-1,10
 266 601 266 601 266 564 c 0,11,12
 266 468 266 468 163 468 c 0,13,14
 126 468 126 468 70 476 c 1,15,-1
 53 479 l 1,16,-1
 56 525 l 1,17,18
 112 517 112 517 162 517 c 128,-1,19
 212 517 212 517 212 565 c 0,20,21
 212 615 212 615 161 615 c 2,22,-1
 96 615 l 1,23,-1
 96 661 l 1,24,-1
 160 661 l 2,25,26
 176 661 176 661 190 676 c 128,-1,27
 204 691 204 691 204 712 c 0,28,29
 204 751 204 751 153 751 c 0,30,31
 114 751 114 751 74 745 c 2,32,-1
 60 743 l 1,33,-1
 57 789 l 1,0,1
54 28 m 1,34,-1
 446 659 l 1,35,-1
 482 636 l 1,36,-1
 90 6 l 1,37,-1
 54 28 l 1,34,-1
430 -100 m 1,38,-1
 430 -49 l 1,39,-1
 288 -49 l 1,40,-1
 288 -3 l 1,41,-1
 364 212 l 1,42,-1
 422 212 l 1,43,-1
 344 0 l 1,44,-1
 430 0 l 1,45,-1
 434 88 l 1,46,-1
 483 88 l 1,47,-1
 483 0 l 1,48,-1
 514 0 l 1,49,-1
 514 -49 l 1,50,-1
 483 -49 l 1,51,-1
 483 -100 l 1,52,-1
 430 -100 l 1,38,-1
EndSplineSet
EndChar

StartChar: questiondown
Encoding: 191 191 128
Width: 443
GlyphClass: 2
Flags: W
LayerCount: 2
Fore
SplineSet
40 -44 m 0,0,1
 40 19 40 19 58 52.5 c 128,-1,2
 76 86 76 86 130 132 c 128,-1,3
 184 178 184 178 206 206 c 128,-1,4
 228 234 228 234 228 268 c 2,5,-1
 228 304 l 1,6,-1
 280 304 l 1,7,8
 289 279 289 279 289 246.5 c 128,-1,9
 289 214 289 214 264.5 182 c 128,-1,10
 240 150 240 150 187.5 104.5 c 128,-1,11
 135 59 135 59 118 32 c 128,-1,12
 101 5 101 5 101 -47 c 128,-1,13
 101 -99 101 -99 136 -124 c 128,-1,14
 171 -149 171 -149 246 -149 c 0,15,16
 287 -149 287 -149 374 -130 c 2,17,-1
 402 -124 l 1,18,-1
 408 -175 l 1,19,20
 302 -204 302 -204 241 -204 c 0,21,22
 140 -204 140 -204 90 -166.5 c 128,-1,23
 40 -129 40 -129 40 -44 c 0,0,1
288 500 m 1,24,-1
 288 400 l 1,25,-1
 222 400 l 1,26,-1
 222 500 l 1,27,-1
 288 500 l 1,24,-1
EndSplineSet
Substitution2: "'case' Case-Sensitive Forms in Latin lookup 4 subtable" questiondown.cap
EndChar

StartChar: Agrave
Encoding: 192 192 129
Width: 594
GlyphClass: 2
Flags: W
LayerCount: 2
Fore
SplineSet
25 0 m 1,0,-1
 225 695 l 1,1,-1
 370 695 l 1,2,-1
 569 0 l 1,3,-1
 508 0 l 1,4,-1
 452 192 l 1,5,-1
 142 192 l 1,6,-1
 87 0 l 1,7,-1
 25 0 l 1,0,-1
270 641 m 1,8,-1
 157 247 l 1,9,-1
 437 247 l 1,10,-1
 324 641 l 1,11,-1
 270 641 l 1,8,-1
190 928 m 1,12,-1
 397 829 l 1,13,-1
 377 786 l 1,14,-1
 168 874 l 1,15,-1
 190 928 l 1,12,-1
EndSplineSet
Position2: "'cpsp' Capital Spacing in Latin lookup 0 subtable" dx=5 dy=0 dh=10 dv=0
EndChar

StartChar: Aacute
Encoding: 193 193 130
Width: 594
GlyphClass: 2
Flags: W
LayerCount: 2
Fore
SplineSet
25 0 m 1,0,-1
 225 695 l 1,1,-1
 370 695 l 1,2,-1
 569 0 l 1,3,-1
 508 0 l 1,4,-1
 452 192 l 1,5,-1
 142 192 l 1,6,-1
 87 0 l 1,7,-1
 25 0 l 1,0,-1
270 641 m 1,8,-1
 157 247 l 1,9,-1
 437 247 l 1,10,-1
 324 641 l 1,11,-1
 270 641 l 1,8,-1
192 829 m 1,12,-1
 399 928 l 1,13,-1
 421 874 l 1,14,-1
 212 786 l 1,15,-1
 192 829 l 1,12,-1
EndSplineSet
Position2: "'cpsp' Capital Spacing in Latin lookup 0 subtable" dx=5 dy=0 dh=10 dv=0
EndChar

StartChar: Acircumflex
Encoding: 194 194 131
Width: 594
GlyphClass: 2
Flags: W
LayerCount: 2
Fore
SplineSet
25 0 m 1,0,-1
 225 695 l 1,1,-1
 370 695 l 1,2,-1
 569 0 l 1,3,-1
 508 0 l 1,4,-1
 452 192 l 1,5,-1
 142 192 l 1,6,-1
 87 0 l 1,7,-1
 25 0 l 1,0,-1
270 641 m 1,8,-1
 157 247 l 1,9,-1
 437 247 l 1,10,-1
 324 641 l 1,11,-1
 270 641 l 1,8,-1
136 798 m 1,12,-1
 270 929 l 1,13,-1
 322 929 l 1,14,-1
 456 798 l 1,15,-1
 387 798 l 1,16,-1
 297 884 l 1,17,-1
 206 798 l 1,18,-1
 136 798 l 1,12,-1
EndSplineSet
Position2: "'cpsp' Capital Spacing in Latin lookup 0 subtable" dx=5 dy=0 dh=10 dv=0
EndChar

StartChar: Atilde
Encoding: 195 195 132
Width: 594
GlyphClass: 2
Flags: W
LayerCount: 2
Fore
SplineSet
25 0 m 1,0,-1
 225 695 l 1,1,-1
 370 695 l 1,2,-1
 569 0 l 1,3,-1
 508 0 l 1,4,-1
 452 192 l 1,5,-1
 142 192 l 1,6,-1
 87 0 l 1,7,-1
 25 0 l 1,0,-1
270 641 m 1,8,-1
 157 247 l 1,9,-1
 437 247 l 1,10,-1
 324 641 l 1,11,-1
 270 641 l 1,8,-1
373 814 m 0,12,13
 353 814 353 814 291.5 842.5 c 128,-1,14
 230 871 230 871 218 871 c 0,15,16
 195 871 195 871 158 834 c 2,17,-1
 145 821 l 1,18,-1
 130 867 l 1,19,20
 177 923 177 923 215 923 c 0,21,22
 241 923 241 923 301.5 895.5 c 128,-1,23
 362 868 362 868 374 868 c 0,24,25
 393 868 393 868 429 902 c 1,26,-1
 441 914 l 1,27,-1
 456 869 l 1,28,29
 410 814 410 814 373 814 c 0,12,13
EndSplineSet
Position2: "'cpsp' Capital Spacing in Latin lookup 0 subtable" dx=5 dy=0 dh=10 dv=0
EndChar

StartChar: Adieresis
Encoding: 196 196 133
Width: 594
GlyphClass: 2
Flags: W
LayerCount: 2
Fore
SplineSet
25 0 m 1,0,-1
 225 695 l 1,1,-1
 370 695 l 1,2,-1
 569 0 l 1,3,-1
 508 0 l 1,4,-1
 452 192 l 1,5,-1
 142 192 l 1,6,-1
 87 0 l 1,7,-1
 25 0 l 1,0,-1
270 641 m 1,8,-1
 157 247 l 1,9,-1
 437 247 l 1,10,-1
 324 641 l 1,11,-1
 270 641 l 1,8,-1
167 819 m 1,12,-1
 167 899 l 1,13,-1
 226 899 l 1,14,-1
 226 819 l 1,15,-1
 167 819 l 1,12,-1
368 819 m 1,16,-1
 368 899 l 1,17,-1
 426 899 l 1,18,-1
 426 819 l 1,19,-1
 368 819 l 1,16,-1
EndSplineSet
Position2: "'cpsp' Capital Spacing in Latin lookup 0 subtable" dx=5 dy=0 dh=10 dv=0
EndChar

StartChar: Aring
Encoding: 197 197 134
Width: 594
GlyphClass: 2
Flags: W
LayerCount: 2
Fore
SplineSet
374.5 823 m 128,-1,1
 405 796 405 796 405 749.5 c 128,-1,2
 405 703 405 703 375 676 c 1,3,-1
 569 0 l 1,4,-1
 508 0 l 1,5,-1
 452 192 l 1,6,-1
 142 192 l 1,7,-1
 87 0 l 1,8,-1
 25 0 l 1,9,-1
 218 673 l 1,10,11
 185 700 185 700 185 748 c 128,-1,12
 185 796 185 796 215.5 823 c 128,-1,13
 246 850 246 850 295 850 c 128,-1,0
 344 850 344 850 374.5 823 c 128,-1,1
270 641 m 1,14,-1
 157 247 l 1,15,-1
 437 247 l 1,16,-1
 324 641 l 1,17,-1
 270 641 l 1,14,-1
232 750 m 0,18,19
 232 703 232 703 276 695 c 1,20,-1
 314 695 l 1,21,22
 358 703 358 703 358 750 c 0,23,24
 358 777 358 777 341.5 791.5 c 128,-1,25
 325 806 325 806 295 806 c 128,-1,26
 265 806 265 806 248.5 791.5 c 128,-1,27
 232 777 232 777 232 750 c 0,18,19
EndSplineSet
Position2: "'cpsp' Capital Spacing in Latin lookup 0 subtable" dx=5 dy=0 dh=10 dv=0
EndChar

StartChar: AE
Encoding: 198 198 135
Width: 877
GlyphClass: 2
Flags: W
LayerCount: 2
Fore
SplineSet
412 0 m 1,0,-1
 412 190 l 1,1,-1
 152 190 l 1,2,-1
 86 0 l 1,3,-1
 22 0 l 1,4,-1
 256 697 l 1,5,-1
 828 697 l 1,6,-1
 828 639 l 1,7,-1
 473 639 l 1,8,-1
 473 387 l 1,9,-1
 768 387 l 1,10,-1
 768 329 l 1,11,-1
 473 329 l 1,12,-1
 473 58 l 1,13,-1
 828 58 l 1,14,-1
 828 0 l 1,15,-1
 412 0 l 1,0,-1
412 249 m 1,16,-1
 412 639 l 1,17,-1
 301 639 l 1,18,-1
 169 249 l 1,19,-1
 412 249 l 1,16,-1
EndSplineSet
Position2: "'cpsp' Capital Spacing in Latin lookup 0 subtable" dx=5 dy=0 dh=10 dv=0
EndChar

StartChar: Ccedilla
Encoding: 199 199 136
Width: 544
GlyphClass: 2
Flags: W
LayerCount: 2
Fore
SplineSet
432 -127 m 0,0,1
 432 -211 432 -211 343 -211 c 1,2,-1
 259 -205 l 1,3,-1
 261 -165 l 1,4,5
 302 -168 302 -168 332 -168 c 0,6,7
 377 -168 377 -168 377 -127 c 0,8,9
 377 -90 377 -90 332 -90 c 2,10,-1
 285 -90 l 1,11,-1
 285 -9 l 1,12,13
 152 -1 152 -1 105 93 c 0,14,15
 81 141 81 141 71.5 200 c 128,-1,16
 62 259 62 259 62 338.5 c 128,-1,17
 62 418 62 418 68 470.5 c 128,-1,18
 74 523 74 523 90 569.5 c 128,-1,19
 106 616 106 616 134 644 c 0,20,21
 193 705 193 705 314 705 c 0,22,23
 397 705 397 705 502 684 c 1,24,-1
 499 630 l 1,25,26
 395 649 395 649 332 649 c 128,-1,27
 269 649 269 649 234.5 635.5 c 128,-1,28
 200 622 200 622 178.5 599.5 c 128,-1,29
 157 577 157 577 146 537 c 0,30,31
 126 469 126 469 126 367 c 128,-1,32
 126 265 126 265 133 214.5 c 128,-1,33
 140 164 140 164 160 123 c 128,-1,34
 180 82 180 82 219 64 c 128,-1,35
 258 46 258 46 327 46 c 128,-1,36
 396 46 396 46 499 65 c 1,37,-1
 502 11 l 1,38,39
 410 -9 410 -9 323 -10 c 1,40,-1
 323 -52 l 1,41,42
 381 -52 381 -52 406.5 -67.5 c 128,-1,43
 432 -83 432 -83 432 -127 c 0,0,1
EndSplineSet
Position2: "'cpsp' Capital Spacing in Latin lookup 0 subtable" dx=5 dy=0 dh=10 dv=0
EndChar

StartChar: Egrave
Encoding: 200 200 137
Width: 552
GlyphClass: 2
Flags: W
LayerCount: 2
Fore
SplineSet
87 0 m 1,0,-1
 87 695 l 1,1,-1
 504 695 l 1,2,-1
 504 639 l 1,3,-1
 149 639 l 1,4,-1
 149 381 l 1,5,-1
 444 381 l 1,6,-1
 444 326 l 1,7,-1
 149 326 l 1,8,-1
 149 55 l 1,9,-1
 504 55 l 1,10,-1
 504 0 l 1,11,-1
 87 0 l 1,0,-1
199 928 m 1,12,-1
 406 829 l 1,13,-1
 386 786 l 1,14,-1
 177 874 l 1,15,-1
 199 928 l 1,12,-1
EndSplineSet
Position2: "'cpsp' Capital Spacing in Latin lookup 0 subtable" dx=5 dy=0 dh=10 dv=0
EndChar

StartChar: Eacute
Encoding: 201 201 138
Width: 552
GlyphClass: 2
Flags: W
LayerCount: 2
Fore
SplineSet
87 0 m 1,0,-1
 87 695 l 1,1,-1
 504 695 l 1,2,-1
 504 639 l 1,3,-1
 149 639 l 1,4,-1
 149 381 l 1,5,-1
 444 381 l 1,6,-1
 444 326 l 1,7,-1
 149 326 l 1,8,-1
 149 55 l 1,9,-1
 504 55 l 1,10,-1
 504 0 l 1,11,-1
 87 0 l 1,0,-1
182 829 m 1,12,-1
 389 928 l 1,13,-1
 411 874 l 1,14,-1
 202 786 l 1,15,-1
 182 829 l 1,12,-1
EndSplineSet
Position2: "'cpsp' Capital Spacing in Latin lookup 0 subtable" dx=5 dy=0 dh=10 dv=0
EndChar

StartChar: Ecircumflex
Encoding: 202 202 139
Width: 552
GlyphClass: 2
Flags: W
LayerCount: 2
Fore
SplineSet
87 0 m 1,0,-1
 87 695 l 1,1,-1
 504 695 l 1,2,-1
 504 639 l 1,3,-1
 149 639 l 1,4,-1
 149 381 l 1,5,-1
 444 381 l 1,6,-1
 444 326 l 1,7,-1
 149 326 l 1,8,-1
 149 55 l 1,9,-1
 504 55 l 1,10,-1
 504 0 l 1,11,-1
 87 0 l 1,0,-1
132 798 m 1,12,-1
 266 929 l 1,13,-1
 318 929 l 1,14,-1
 452 798 l 1,15,-1
 383 798 l 1,16,-1
 293 884 l 1,17,-1
 202 798 l 1,18,-1
 132 798 l 1,12,-1
EndSplineSet
Position2: "'cpsp' Capital Spacing in Latin lookup 0 subtable" dx=5 dy=0 dh=10 dv=0
EndChar

StartChar: Edieresis
Encoding: 203 203 140
Width: 552
GlyphClass: 2
Flags: W
LayerCount: 2
Fore
SplineSet
87 0 m 1,0,-1
 87 695 l 1,1,-1
 504 695 l 1,2,-1
 504 639 l 1,3,-1
 149 639 l 1,4,-1
 149 381 l 1,5,-1
 444 381 l 1,6,-1
 444 326 l 1,7,-1
 149 326 l 1,8,-1
 149 55 l 1,9,-1
 504 55 l 1,10,-1
 504 0 l 1,11,-1
 87 0 l 1,0,-1
165 819 m 1,12,-1
 165 899 l 1,13,-1
 224 899 l 1,14,-1
 224 819 l 1,15,-1
 165 819 l 1,12,-1
366 819 m 1,16,-1
 366 899 l 1,17,-1
 424 899 l 1,18,-1
 424 819 l 1,19,-1
 366 819 l 1,16,-1
EndSplineSet
Position2: "'cpsp' Capital Spacing in Latin lookup 0 subtable" dx=5 dy=0 dh=10 dv=0
EndChar

StartChar: Igrave
Encoding: 204 204 141
Width: 236
GlyphClass: 2
Flags: W
LayerCount: 2
Fore
SplineSet
87 0 m 1,0,-1
 87 695 l 1,1,-1
 149 695 l 1,2,-1
 149 0 l 1,3,-1
 87 0 l 1,0,-1
3 928 m 1,4,-1
 210 829 l 1,5,-1
 190 786 l 1,6,-1
 -19 874 l 1,7,-1
 3 928 l 1,4,-1
EndSplineSet
Position2: "'cpsp' Capital Spacing in Latin lookup 0 subtable" dx=5 dy=0 dh=10 dv=0
EndChar

StartChar: Iacute
Encoding: 205 205 142
Width: 236
GlyphClass: 2
Flags: W
LayerCount: 2
Fore
SplineSet
87 0 m 1,0,-1
 87 695 l 1,1,-1
 149 695 l 1,2,-1
 149 0 l 1,3,-1
 87 0 l 1,0,-1
14 829 m 1,4,-1
 221 928 l 1,5,-1
 243 874 l 1,6,-1
 34 786 l 1,7,-1
 14 829 l 1,4,-1
EndSplineSet
Position2: "'cpsp' Capital Spacing in Latin lookup 0 subtable" dx=5 dy=0 dh=10 dv=0
EndChar

StartChar: Icircumflex
Encoding: 206 206 143
Width: 236
GlyphClass: 2
Flags: W
LayerCount: 2
Fore
SplineSet
87 0 m 1,0,-1
 87 695 l 1,1,-1
 149 695 l 1,2,-1
 149 0 l 1,3,-1
 87 0 l 1,0,-1
-47 798 m 1,4,-1
 87 929 l 1,5,-1
 139 929 l 1,6,-1
 273 798 l 1,7,-1
 204 798 l 1,8,-1
 114 884 l 1,9,-1
 23 798 l 1,10,-1
 -47 798 l 1,4,-1
EndSplineSet
Position2: "'cpsp' Capital Spacing in Latin lookup 0 subtable" dx=5 dy=0 dh=10 dv=0
EndChar

StartChar: Idieresis
Encoding: 207 207 144
Width: 236
GlyphClass: 2
Flags: W
LayerCount: 2
Fore
SplineSet
87 0 m 1,0,-1
 87 695 l 1,1,-1
 149 695 l 1,2,-1
 149 0 l 1,3,-1
 87 0 l 1,0,-1
-12 819 m 1,4,-1
 -12 899 l 1,5,-1
 47 899 l 1,6,-1
 47 819 l 1,7,-1
 -12 819 l 1,4,-1
189 819 m 1,8,-1
 189 899 l 1,9,-1
 247 899 l 1,10,-1
 247 819 l 1,11,-1
 189 819 l 1,8,-1
EndSplineSet
Position2: "'cpsp' Capital Spacing in Latin lookup 0 subtable" dx=5 dy=0 dh=10 dv=0
EndChar

StartChar: Eth
Encoding: 208 208 145
Width: 649
GlyphClass: 2
Flags: W
LayerCount: 2
Fore
SplineSet
19 320 m 1,0,-1
 19 378 l 1,1,-1
 90 378 l 1,2,-1
 90 697 l 1,3,-1
 342 697 l 2,4,5
 590 697 590 697 590 359 c 0,6,7
 590 0 590 0 342 0 c 2,8,-1
 90 0 l 1,9,-1
 90 320 l 1,10,-1
 19 320 l 1,0,-1
526 359 m 0,11,12
 526 639 526 639 342 639 c 2,13,-1
 151 639 l 1,14,-1
 151 378 l 1,15,-1
 316 378 l 1,16,-1
 316 320 l 1,17,-1
 151 320 l 1,18,-1
 151 58 l 1,19,-1
 342 58 l 2,20,21
 394 58 394 58 431.5 83.5 c 128,-1,22
 469 109 469 109 489 154 c 0,23,24
 526 237 526 237 526 359 c 0,11,12
EndSplineSet
Position2: "'cpsp' Capital Spacing in Latin lookup 0 subtable" dx=5 dy=0 dh=10 dv=0
EndChar

StartChar: Ntilde
Encoding: 209 209 146
Width: 672
GlyphClass: 2
Flags: W
LayerCount: 2
Fore
SplineSet
87 0 m 1,0,-1
 87 695 l 1,1,-1
 209 695 l 1,2,-1
 500 55 l 1,3,-1
 523 55 l 1,4,-1
 523 695 l 1,5,-1
 584 695 l 1,6,-1
 584 0 l 1,7,-1
 464 0 l 1,8,-1
 171 639 l 1,9,-1
 149 639 l 1,10,-1
 149 0 l 1,11,-1
 87 0 l 1,0,-1
414 814 m 0,12,13
 394 814 394 814 332.5 842.5 c 128,-1,14
 271 871 271 871 258 871 c 0,15,16
 236 871 236 871 198 834 c 1,17,-1
 186 821 l 1,18,-1
 171 867 l 1,19,20
 218 923 218 923 256 923 c 0,21,22
 282 923 282 923 343 895.5 c 128,-1,23
 404 868 404 868 415 868 c 0,24,25
 434 868 434 868 470 902 c 1,26,-1
 482 914 l 1,27,-1
 497 869 l 1,28,29
 451 814 451 814 414 814 c 0,12,13
EndSplineSet
Position2: "'cpsp' Capital Spacing in Latin lookup 0 subtable" dx=5 dy=0 dh=10 dv=0
EndChar

StartChar: Ograve
Encoding: 210 210 147
Width: 662
GlyphClass: 2
Flags: W
LayerCount: 2
Fore
SplineSet
166 115.5 m 128,-1,1
 208 46 208 46 331.5 46 c 128,-1,2
 455 46 455 46 497 114 c 128,-1,3
 539 182 539 182 539 341.5 c 128,-1,4
 539 501 539 501 495 575 c 128,-1,5
 451 649 451 649 331 649 c 0,6,7
 207 649 207 649 164 569 c 0,8,9
 141 528 141 528 132.5 475 c 128,-1,10
 124 422 124 422 124 344 c 0,11,0
 124 185 124 185 166 115.5 c 128,-1,1
544.5 73 m 128,-1,13
 486 -10 486 -10 331.5 -10 c 128,-1,14
 177 -10 177 -10 118.5 75 c 128,-1,15
 60 160 60 160 60 343.5 c 128,-1,16
 60 527 60 527 119 616 c 128,-1,17
 178 705 178 705 331 705 c 128,-1,18
 484 705 484 705 543.5 616.5 c 128,-1,19
 603 528 603 528 603 342 c 128,-1,12
 603 156 603 156 544.5 73 c 128,-1,13
232 928 m 1,20,-1
 439 829 l 1,21,-1
 419 786 l 1,22,-1
 210 874 l 1,23,-1
 232 928 l 1,20,-1
EndSplineSet
Position2: "'cpsp' Capital Spacing in Latin lookup 0 subtable" dx=5 dy=0 dh=10 dv=0
EndChar

StartChar: Oacute
Encoding: 211 211 148
Width: 662
GlyphClass: 2
Flags: W
LayerCount: 2
Fore
SplineSet
166 115.5 m 128,-1,1
 208 46 208 46 331.5 46 c 128,-1,2
 455 46 455 46 497 114 c 128,-1,3
 539 182 539 182 539 341.5 c 128,-1,4
 539 501 539 501 495 575 c 128,-1,5
 451 649 451 649 331 649 c 0,6,7
 207 649 207 649 164 569 c 0,8,9
 141 528 141 528 132.5 475 c 128,-1,10
 124 422 124 422 124 344 c 0,11,0
 124 185 124 185 166 115.5 c 128,-1,1
544.5 73 m 128,-1,13
 486 -10 486 -10 331.5 -10 c 128,-1,14
 177 -10 177 -10 118.5 75 c 128,-1,15
 60 160 60 160 60 343.5 c 128,-1,16
 60 527 60 527 119 616 c 128,-1,17
 178 705 178 705 331 705 c 128,-1,18
 484 705 484 705 543.5 616.5 c 128,-1,19
 603 528 603 528 603 342 c 128,-1,12
 603 156 603 156 544.5 73 c 128,-1,13
206 829 m 1,20,-1
 413 928 l 1,21,-1
 435 874 l 1,22,-1
 226 786 l 1,23,-1
 206 829 l 1,20,-1
EndSplineSet
Position2: "'cpsp' Capital Spacing in Latin lookup 0 subtable" dx=5 dy=0 dh=10 dv=0
EndChar

StartChar: Ocircumflex
Encoding: 212 212 149
Width: 662
GlyphClass: 2
Flags: W
LayerCount: 2
Fore
SplineSet
166 115.5 m 128,-1,1
 208 46 208 46 331.5 46 c 128,-1,2
 455 46 455 46 497 114 c 128,-1,3
 539 182 539 182 539 341.5 c 128,-1,4
 539 501 539 501 495 575 c 128,-1,5
 451 649 451 649 331 649 c 0,6,7
 207 649 207 649 164 569 c 0,8,9
 141 528 141 528 132.5 475 c 128,-1,10
 124 422 124 422 124 344 c 0,11,0
 124 185 124 185 166 115.5 c 128,-1,1
544.5 73 m 128,-1,13
 486 -10 486 -10 331.5 -10 c 128,-1,14
 177 -10 177 -10 118.5 75 c 128,-1,15
 60 160 60 160 60 343.5 c 128,-1,16
 60 527 60 527 119 616 c 128,-1,17
 178 705 178 705 331 705 c 128,-1,18
 484 705 484 705 543.5 616.5 c 128,-1,19
 603 528 603 528 603 342 c 128,-1,12
 603 156 603 156 544.5 73 c 128,-1,13
171 798 m 1,20,-1
 305 929 l 1,21,-1
 357 929 l 1,22,-1
 491 798 l 1,23,-1
 422 798 l 1,24,-1
 332 884 l 1,25,-1
 241 798 l 1,26,-1
 171 798 l 1,20,-1
EndSplineSet
Position2: "'cpsp' Capital Spacing in Latin lookup 0 subtable" dx=5 dy=0 dh=10 dv=0
EndChar

StartChar: Otilde
Encoding: 213 213 150
Width: 662
GlyphClass: 2
Flags: W
LayerCount: 2
Fore
SplineSet
166 115.5 m 128,-1,1
 208 46 208 46 331.5 46 c 128,-1,2
 455 46 455 46 497 114 c 128,-1,3
 539 182 539 182 539 341.5 c 128,-1,4
 539 501 539 501 495 575 c 128,-1,5
 451 649 451 649 331 649 c 0,6,7
 207 649 207 649 164 569 c 0,8,9
 141 528 141 528 132.5 475 c 128,-1,10
 124 422 124 422 124 344 c 0,11,0
 124 185 124 185 166 115.5 c 128,-1,1
544.5 73 m 128,-1,13
 486 -10 486 -10 331.5 -10 c 128,-1,14
 177 -10 177 -10 118.5 75 c 128,-1,15
 60 160 60 160 60 343.5 c 128,-1,16
 60 527 60 527 119 616 c 128,-1,17
 178 705 178 705 331 705 c 128,-1,18
 484 705 484 705 543.5 616.5 c 128,-1,19
 603 528 603 528 603 342 c 128,-1,12
 603 156 603 156 544.5 73 c 128,-1,13
408 814 m 0,20,21
 388 814 388 814 326.5 842.5 c 128,-1,22
 265 871 265 871 252 871 c 0,23,24
 230 871 230 871 192 834 c 1,25,-1
 180 821 l 1,26,-1
 165 867 l 1,27,28
 212 923 212 923 250 923 c 0,29,30
 276 923 276 923 337 895.5 c 128,-1,31
 398 868 398 868 409 868 c 0,32,33
 428 868 428 868 464 902 c 1,34,-1
 476 914 l 1,35,-1
 491 869 l 1,36,37
 445 814 445 814 408 814 c 0,20,21
EndSplineSet
Position2: "'cpsp' Capital Spacing in Latin lookup 0 subtable" dx=5 dy=0 dh=10 dv=0
EndChar

StartChar: Odieresis
Encoding: 214 214 151
Width: 662
GlyphClass: 2
Flags: W
LayerCount: 2
Fore
SplineSet
166 115.5 m 128,-1,1
 208 46 208 46 331.5 46 c 128,-1,2
 455 46 455 46 497 114 c 128,-1,3
 539 182 539 182 539 341.5 c 128,-1,4
 539 501 539 501 495 575 c 128,-1,5
 451 649 451 649 331 649 c 0,6,7
 207 649 207 649 164 569 c 0,8,9
 141 528 141 528 132.5 475 c 128,-1,10
 124 422 124 422 124 344 c 0,11,0
 124 185 124 185 166 115.5 c 128,-1,1
544.5 73 m 128,-1,13
 486 -10 486 -10 331.5 -10 c 128,-1,14
 177 -10 177 -10 118.5 75 c 128,-1,15
 60 160 60 160 60 343.5 c 128,-1,16
 60 527 60 527 119 616 c 128,-1,17
 178 705 178 705 331 705 c 128,-1,18
 484 705 484 705 543.5 616.5 c 128,-1,19
 603 528 603 528 603 342 c 128,-1,12
 603 156 603 156 544.5 73 c 128,-1,13
202 819 m 1,20,-1
 202 899 l 1,21,-1
 261 899 l 1,22,-1
 261 819 l 1,23,-1
 202 819 l 1,20,-1
403 819 m 1,24,-1
 403 899 l 1,25,-1
 461 899 l 1,26,-1
 461 819 l 1,27,-1
 403 819 l 1,24,-1
EndSplineSet
Position2: "'cpsp' Capital Spacing in Latin lookup 0 subtable" dx=5 dy=0 dh=10 dv=0
EndChar

StartChar: multiply
Encoding: 215 215 152
Width: 560
GlyphClass: 2
Flags: W
LayerCount: 2
Fore
SplineSet
114 456 m 1,0,-1
 280 288 l 1,1,-1
 446 456 l 1,2,-1
 485 417 l 1,3,-1
 317 251 l 1,4,-1
 485 85 l 1,5,-1
 446 45 l 1,6,-1
 280 213 l 1,7,-1
 114 46 l 1,8,-1
 75 85 l 1,9,-1
 242 251 l 1,10,-1
 75 416 l 1,11,-1
 114 456 l 1,0,-1
EndSplineSet
EndChar

StartChar: Oslash
Encoding: 216 216 153
Width: 662
GlyphClass: 2
Flags: W
LayerCount: 2
Fore
SplineSet
331 -10 m 0,0,1
 260 -10 260 -10 206 9 c 1,2,-1
 149 -114 l 1,3,-1
 102 -93 l 1,4,-1
 161 33 l 1,5,6
 106 73 106 73 83 148.5 c 128,-1,7
 60 224 60 224 60 344 c 0,8,9
 60 527 60 527 119 616 c 128,-1,10
 178 705 178 705 331 705 c 0,11,12
 410 705 410 705 464 681 c 1,13,-1
 518 796 l 1,14,-1
 565 777 l 1,15,-1
 507 654 l 1,16,17
 603 577 603 577 603 344 c 0,18,19
 603 156 603 156 544.5 73 c 128,-1,20
 486 -10 486 -10 331 -10 c 0,0,1
132.5 475 m 128,-1,22
 124 422 124 422 124 334 c 128,-1,23
 124 246 124 246 137.5 185 c 128,-1,24
 151 124 151 124 187 90 c 1,25,-1
 439 627 l 1,26,27
 395 649 395 649 331.5 649 c 128,-1,28
 268 649 268 649 227 629.5 c 128,-1,29
 186 610 186 610 163.5 569 c 128,-1,21
 141 528 141 528 132.5 475 c 128,-1,22
331 46 m 0,30,31
 455 46 455 46 497 114 c 128,-1,32
 539 182 539 182 539 355 c 128,-1,33
 539 528 539 528 480 595 c 1,34,-1
 231 62 l 1,35,36
 270 46 270 46 331 46 c 0,30,31
EndSplineSet
Position2: "'cpsp' Capital Spacing in Latin lookup 0 subtable" dx=5 dy=0 dh=10 dv=0
EndChar

StartChar: Ugrave
Encoding: 217 217 154
Width: 642
GlyphClass: 2
Flags: W
LayerCount: 2
Fore
SplineSet
144 204 m 2,0,1
 144 46 144 46 317 46 c 0,2,3
 407 46 407 46 452 83 c 128,-1,4
 497 120 497 120 497 204 c 2,5,-1
 497 695 l 1,6,-1
 559 695 l 1,7,-1
 559 204 l 2,8,9
 559 91 559 91 498 40.5 c 128,-1,10
 437 -10 437 -10 319.5 -10 c 128,-1,11
 202 -10 202 -10 142.5 40.5 c 128,-1,12
 83 91 83 91 83 204 c 2,13,-1
 83 695 l 1,14,-1
 144 695 l 1,15,-1
 144 204 l 2,0,1
223 928 m 1,16,-1
 430 829 l 1,17,-1
 410 786 l 1,18,-1
 201 874 l 1,19,-1
 223 928 l 1,16,-1
EndSplineSet
Position2: "'cpsp' Capital Spacing in Latin lookup 0 subtable" dx=5 dy=0 dh=10 dv=0
EndChar

StartChar: Uacute
Encoding: 218 218 155
Width: 642
GlyphClass: 2
Flags: W
LayerCount: 2
Fore
SplineSet
144 204 m 2,0,1
 144 46 144 46 317 46 c 0,2,3
 407 46 407 46 452 83 c 128,-1,4
 497 120 497 120 497 204 c 2,5,-1
 497 695 l 1,6,-1
 559 695 l 1,7,-1
 559 204 l 2,8,9
 559 91 559 91 498 40.5 c 128,-1,10
 437 -10 437 -10 319.5 -10 c 128,-1,11
 202 -10 202 -10 142.5 40.5 c 128,-1,12
 83 91 83 91 83 204 c 2,13,-1
 83 695 l 1,14,-1
 144 695 l 1,15,-1
 144 204 l 2,0,1
205 829 m 1,16,-1
 412 928 l 1,17,-1
 434 874 l 1,18,-1
 225 786 l 1,19,-1
 205 829 l 1,16,-1
EndSplineSet
Position2: "'cpsp' Capital Spacing in Latin lookup 0 subtable" dx=5 dy=0 dh=10 dv=0
EndChar

StartChar: Ucircumflex
Encoding: 219 219 156
Width: 642
GlyphClass: 2
Flags: W
LayerCount: 2
Fore
SplineSet
144 204 m 2,0,1
 144 46 144 46 317 46 c 0,2,3
 407 46 407 46 452 83 c 128,-1,4
 497 120 497 120 497 204 c 2,5,-1
 497 695 l 1,6,-1
 559 695 l 1,7,-1
 559 204 l 2,8,9
 559 91 559 91 498 40.5 c 128,-1,10
 437 -10 437 -10 319.5 -10 c 128,-1,11
 202 -10 202 -10 142.5 40.5 c 128,-1,12
 83 91 83 91 83 204 c 2,13,-1
 83 695 l 1,14,-1
 144 695 l 1,15,-1
 144 204 l 2,0,1
160 798 m 1,16,-1
 294 929 l 1,17,-1
 346 929 l 1,18,-1
 480 798 l 1,19,-1
 411 798 l 1,20,-1
 321 884 l 1,21,-1
 230 798 l 1,22,-1
 160 798 l 1,16,-1
EndSplineSet
Position2: "'cpsp' Capital Spacing in Latin lookup 0 subtable" dx=5 dy=0 dh=10 dv=0
EndChar

StartChar: Udieresis
Encoding: 220 220 157
Width: 642
GlyphClass: 2
Flags: W
LayerCount: 2
Fore
SplineSet
144 204 m 2,0,1
 144 46 144 46 317 46 c 0,2,3
 407 46 407 46 452 83 c 128,-1,4
 497 120 497 120 497 204 c 2,5,-1
 497 695 l 1,6,-1
 559 695 l 1,7,-1
 559 204 l 2,8,9
 559 91 559 91 498 40.5 c 128,-1,10
 437 -10 437 -10 319.5 -10 c 128,-1,11
 202 -10 202 -10 142.5 40.5 c 128,-1,12
 83 91 83 91 83 204 c 2,13,-1
 83 695 l 1,14,-1
 144 695 l 1,15,-1
 144 204 l 2,0,1
191 819 m 1,16,-1
 191 899 l 1,17,-1
 250 899 l 1,18,-1
 250 819 l 1,19,-1
 191 819 l 1,16,-1
392 819 m 1,20,-1
 392 899 l 1,21,-1
 450 899 l 1,22,-1
 450 819 l 1,23,-1
 392 819 l 1,20,-1
EndSplineSet
Position2: "'cpsp' Capital Spacing in Latin lookup 0 subtable" dx=5 dy=0 dh=10 dv=0
EndChar

StartChar: Yacute
Encoding: 221 221 158
Width: 534
GlyphClass: 2
Flags: W
LayerCount: 2
Fore
SplineSet
298 0 m 1,0,-1
 236 0 l 1,1,-1
 236 294 l 1,2,-1
 13 695 l 1,3,-1
 82 695 l 1,4,-1
 267 358 l 1,5,-1
 451 695 l 1,6,-1
 521 695 l 1,7,-1
 298 294 l 1,8,-1
 298 0 l 1,0,-1
175 829 m 1,9,-1
 382 928 l 1,10,-1
 404 874 l 1,11,-1
 195 786 l 1,12,-1
 175 829 l 1,9,-1
EndSplineSet
Position2: "'cpsp' Capital Spacing in Latin lookup 0 subtable" dx=5 dy=0 dh=10 dv=0
EndChar

StartChar: Thorn
Encoding: 222 222 159
Width: 600
GlyphClass: 2
Flags: W
LayerCount: 2
Fore
SplineSet
341 185 m 2,0,1
 494 185 494 185 494 363 c 0,2,3
 494 446 494 446 457.5 484.5 c 128,-1,4
 421 523 421 523 341 523 c 2,5,-1
 149 523 l 1,6,-1
 149 185 l 1,7,-1
 341 185 l 2,0,1
341 126 m 2,8,-1
 149 126 l 1,9,-1
 149 0 l 1,10,-1
 87 0 l 1,11,-1
 87 697 l 1,12,-1
 149 697 l 1,13,-1
 149 581 l 1,14,-1
 341 581 l 2,15,16
 452 581 452 581 504.5 528 c 128,-1,17
 557 475 557 475 557 362 c 128,-1,18
 557 249 557 249 503.5 187.5 c 128,-1,19
 450 126 450 126 341 126 c 2,8,-1
EndSplineSet
Position2: "'cpsp' Capital Spacing in Latin lookup 0 subtable" dx=5 dy=0 dh=10 dv=0
EndChar

StartChar: germandbls
Encoding: 223 223 160
Width: 564
GlyphClass: 2
Flags: W
LayerCount: 2
Fore
SplineSet
134 0 m 1,0,-1
 75 0 l 1,1,-1
 75 551 l 2,2,3
 75 652 75 652 118 692 c 128,-1,4
 161 732 161 732 261 732 c 128,-1,5
 361 732 361 732 403.5 699 c 128,-1,6
 446 666 446 666 446 591 c 0,7,8
 446 539 446 539 428 509.5 c 128,-1,9
 410 480 410 480 370.5 462.5 c 128,-1,10
 331 445 331 445 319.5 435.5 c 128,-1,11
 308 426 308 426 308 411 c 128,-1,12
 308 396 308 396 324.5 383 c 128,-1,13
 341 370 341 370 405.5 337.5 c 128,-1,14
 470 305 470 305 498 272.5 c 128,-1,15
 526 240 526 240 526 180 c 0,16,17
 526 78 526 78 480.5 34 c 128,-1,18
 435 -10 435 -10 326 -10 c 0,19,20
 279 -10 279 -10 222 0 c 1,21,-1
 201 3 l 1,22,-1
 204 55 l 1,23,24
 286 45 286 45 322 45 c 0,25,26
 401 45 401 45 432 75.5 c 128,-1,27
 463 106 463 106 463 161.5 c 128,-1,28
 463 217 463 217 441 241 c 128,-1,29
 419 265 419 265 353.5 297.5 c 128,-1,30
 288 330 288 330 267 351.5 c 128,-1,31
 246 373 246 373 246 407 c 128,-1,32
 246 441 246 441 264 459.5 c 128,-1,33
 282 478 282 478 320 495 c 128,-1,34
 358 512 358 512 370.5 532 c 128,-1,35
 383 552 383 552 383 594.5 c 128,-1,36
 383 637 383 637 356.5 657 c 128,-1,37
 330 677 330 677 260.5 677 c 128,-1,38
 191 677 191 677 162.5 649 c 128,-1,39
 134 621 134 621 134 541 c 2,40,-1
 134 0 l 1,0,-1
EndSplineSet
EndChar

StartChar: agrave
Encoding: 224 224 161
Width: 499
GlyphClass: 2
Flags: W
LayerCount: 2
Fore
SplineSet
419 351 m 2,0,-1
 419 83 l 1,1,2
 423 46 423 46 484 39 c 1,3,-1
 481 -9 l 1,4,5
 404 -9 404 -9 368 31 c 1,6,7
 274 -10 274 -10 180 -10 c 0,8,9
 113 -10 113 -10 78 28.5 c 128,-1,10
 43 67 43 67 43 138.5 c 128,-1,11
 43 210 43 210 78.5 244.5 c 128,-1,12
 114 279 114 279 190 287 c 2,13,-1
 360 304 l 1,14,-1
 360 351 l 2,15,16
 360 407 360 407 335.5 431.5 c 128,-1,17
 311 456 311 456 270 456 c 0,18,19
 206 456 206 456 104 444 c 1,20,-1
 73 441 l 1,21,-1
 70 489 l 1,22,23
 180 510 180 510 262.5 510 c 128,-1,24
 345 510 345 510 382 471 c 128,-1,25
 419 432 419 432 419 351 c 2,0,-1
105 142 m 0,26,27
 105 41 105 41 188 41 c 0,28,29
 224 41 224 41 267 49.5 c 128,-1,30
 310 58 310 58 335 67 c 2,31,-1
 360 76 l 1,32,-1
 360 257 l 1,33,-1
 197 240 l 1,34,35
 148 236 148 236 126.5 212 c 128,-1,36
 105 188 105 188 105 142 c 0,26,27
147 737 m 1,37,-1
 354 640 l 1,38,-1
 335 598 l 1,39,-1
 125 685 l 1,40,-1
 147 737 l 1,37,-1
EndSplineSet
EndChar

StartChar: aacute
Encoding: 225 225 162
Width: 499
GlyphClass: 2
Flags: W
LayerCount: 2
Fore
SplineSet
419 351 m 2,0,-1
 419 83 l 1,1,2
 423 46 423 46 484 39 c 1,3,-1
 481 -9 l 1,4,5
 404 -9 404 -9 368 31 c 1,6,7
 274 -10 274 -10 180 -10 c 0,8,9
 113 -10 113 -10 78 28.5 c 128,-1,10
 43 67 43 67 43 138.5 c 128,-1,11
 43 210 43 210 78.5 244.5 c 128,-1,12
 114 279 114 279 190 287 c 2,13,-1
 360 304 l 1,14,-1
 360 351 l 2,15,16
 360 407 360 407 335.5 431.5 c 128,-1,17
 311 456 311 456 270 456 c 0,18,19
 206 456 206 456 104 444 c 1,20,-1
 73 441 l 1,21,-1
 70 489 l 1,22,23
 180 510 180 510 262.5 510 c 128,-1,24
 345 510 345 510 382 471 c 128,-1,25
 419 432 419 432 419 351 c 2,0,-1
105 142 m 0,26,27
 105 41 105 41 188 41 c 0,28,29
 224 41 224 41 267 49.5 c 128,-1,30
 310 58 310 58 335 67 c 2,31,-1
 360 76 l 1,32,-1
 360 257 l 1,33,-1
 197 240 l 1,34,35
 148 236 148 236 126.5 212 c 128,-1,36
 105 188 105 188 105 142 c 0,26,27
123 640 m 1,37,-1
 330 737 l 1,38,-1
 352 685 l 1,39,-1
 142 598 l 1,40,-1
 123 640 l 1,37,-1
EndSplineSet
EndChar

StartChar: acircumflex
Encoding: 226 226 163
Width: 499
GlyphClass: 2
Flags: W
LayerCount: 2
Fore
SplineSet
419 351 m 2,0,-1
 419 83 l 1,1,2
 423 46 423 46 484 39 c 1,3,-1
 481 -9 l 1,4,5
 404 -9 404 -9 368 31 c 1,6,7
 274 -10 274 -10 180 -10 c 0,8,9
 113 -10 113 -10 78 28.5 c 128,-1,10
 43 67 43 67 43 138.5 c 128,-1,11
 43 210 43 210 78.5 244.5 c 128,-1,12
 114 279 114 279 190 287 c 2,13,-1
 360 304 l 1,14,-1
 360 351 l 2,15,16
 360 407 360 407 335.5 431.5 c 128,-1,17
 311 456 311 456 270 456 c 0,18,19
 206 456 206 456 104 444 c 1,20,-1
 73 441 l 1,21,-1
 70 489 l 1,22,23
 180 510 180 510 262.5 510 c 128,-1,24
 345 510 345 510 382 471 c 128,-1,25
 419 432 419 432 419 351 c 2,0,-1
105 142 m 0,26,27
 105 41 105 41 188 41 c 0,28,29
 224 41 224 41 267 49.5 c 128,-1,30
 310 58 310 58 335 67 c 2,31,-1
 360 76 l 1,32,-1
 360 257 l 1,33,-1
 197 240 l 1,34,35
 148 236 148 236 126.5 212 c 128,-1,36
 105 188 105 188 105 142 c 0,26,27
98 595 m 1,37,-1
 220 732 l 1,38,-1
 262 732 l 1,39,-1
 385 595 l 1,40,-1
 322 595 l 1,41,-1
 242 687 l 1,42,-1
 161 595 l 1,43,-1
 98 595 l 1,37,-1
EndSplineSet
EndChar

StartChar: atilde
Encoding: 227 227 164
Width: 499
GlyphClass: 2
Flags: W
LayerCount: 2
Fore
SplineSet
419 351 m 2,0,-1
 419 83 l 1,1,2
 423 46 423 46 484 39 c 1,3,-1
 481 -9 l 1,4,5
 404 -9 404 -9 368 31 c 1,6,7
 274 -10 274 -10 180 -10 c 0,8,9
 113 -10 113 -10 78 28.5 c 128,-1,10
 43 67 43 67 43 138.5 c 128,-1,11
 43 210 43 210 78.5 244.5 c 128,-1,12
 114 279 114 279 190 287 c 2,13,-1
 360 304 l 1,14,-1
 360 351 l 2,15,16
 360 407 360 407 335.5 431.5 c 128,-1,17
 311 456 311 456 270 456 c 0,18,19
 206 456 206 456 104 444 c 1,20,-1
 73 441 l 1,21,-1
 70 489 l 1,22,23
 180 510 180 510 262.5 510 c 128,-1,24
 345 510 345 510 382 471 c 128,-1,25
 419 432 419 432 419 351 c 2,0,-1
105 142 m 0,26,27
 105 41 105 41 188 41 c 0,28,29
 224 41 224 41 267 49.5 c 128,-1,30
 310 58 310 58 335 67 c 2,31,-1
 360 76 l 1,32,-1
 360 257 l 1,33,-1
 197 240 l 1,34,35
 148 236 148 236 126.5 212 c 128,-1,36
 105 188 105 188 105 142 c 0,26,27
311 619 m 0,37,38
 290 619 290 619 237 643.5 c 128,-1,39
 184 668 184 668 172 668 c 0,40,41
 148 668 148 668 110 638 c 1,42,-1
 97 627 l 1,43,-1
 82 667 l 1,44,45
 132 717 132 717 170 717 c 0,46,47
 191 717 191 717 244.5 693 c 128,-1,48
 298 669 298 669 310 669 c 0,49,50
 331 669 331 669 366 698 c 2,51,-1
 378 708 l 1,52,-1
 392 666 l 1,53,54
 347 619 347 619 311 619 c 0,37,38
EndSplineSet
EndChar

StartChar: adieresis
Encoding: 228 228 165
Width: 499
GlyphClass: 2
Flags: W
LayerCount: 2
Fore
SplineSet
419 351 m 2,0,-1
 419 83 l 1,1,2
 423 46 423 46 484 39 c 1,3,-1
 481 -9 l 1,4,5
 404 -9 404 -9 368 31 c 1,6,7
 274 -10 274 -10 180 -10 c 0,8,9
 113 -10 113 -10 78 28.5 c 128,-1,10
 43 67 43 67 43 138.5 c 128,-1,11
 43 210 43 210 78.5 244.5 c 128,-1,12
 114 279 114 279 190 287 c 2,13,-1
 360 304 l 1,14,-1
 360 351 l 2,15,16
 360 407 360 407 335.5 431.5 c 128,-1,17
 311 456 311 456 270 456 c 0,18,19
 206 456 206 456 104 444 c 1,20,-1
 73 441 l 1,21,-1
 70 489 l 1,22,23
 180 510 180 510 262.5 510 c 128,-1,24
 345 510 345 510 382 471 c 128,-1,25
 419 432 419 432 419 351 c 2,0,-1
105 142 m 0,26,27
 105 41 105 41 188 41 c 0,28,29
 224 41 224 41 267 49.5 c 128,-1,30
 310 58 310 58 335 67 c 2,31,-1
 360 76 l 1,32,-1
 360 257 l 1,33,-1
 197 240 l 1,34,35
 148 236 148 236 126.5 212 c 128,-1,36
 105 188 105 188 105 142 c 0,26,27
115 627 m 1,37,-1
 115 707 l 1,38,-1
 174 707 l 1,39,-1
 174 627 l 1,40,-1
 115 627 l 1,37,-1
312 627 m 1,41,-1
 312 707 l 1,42,-1
 370 707 l 1,43,-1
 370 627 l 1,44,-1
 312 627 l 1,41,-1
EndSplineSet
EndChar

StartChar: aring
Encoding: 229 229 166
Width: 499
GlyphClass: 2
Flags: W
LayerCount: 2
Fore
SplineSet
419 351 m 2,0,-1
 419 83 l 1,1,2
 423 46 423 46 484 39 c 1,3,-1
 481 -9 l 1,4,5
 404 -9 404 -9 368 31 c 1,6,7
 274 -10 274 -10 180 -10 c 0,8,9
 113 -10 113 -10 78 28.5 c 128,-1,10
 43 67 43 67 43 138.5 c 128,-1,11
 43 210 43 210 78.5 244.5 c 128,-1,12
 114 279 114 279 190 287 c 2,13,-1
 360 304 l 1,14,-1
 360 351 l 2,15,16
 360 407 360 407 335.5 431.5 c 128,-1,17
 311 456 311 456 270 456 c 0,18,19
 206 456 206 456 104 444 c 1,20,-1
 73 441 l 1,21,-1
 70 489 l 1,22,23
 180 510 180 510 262.5 510 c 128,-1,24
 345 510 345 510 382 471 c 128,-1,25
 419 432 419 432 419 351 c 2,0,-1
105 142 m 0,26,27
 105 41 105 41 188 41 c 0,28,29
 224 41 224 41 267 49.5 c 128,-1,30
 310 58 310 58 335 67 c 2,31,-1
 360 76 l 1,32,-1
 360 257 l 1,33,-1
 197 240 l 1,34,35
 148 236 148 236 126.5 212 c 128,-1,36
 105 188 105 188 105 142 c 0,26,27
181 575 m 128,-1,38
 152 604 152 604 152 646.5 c 128,-1,39
 152 689 152 689 181 718 c 128,-1,40
 210 747 210 747 252.5 747 c 128,-1,41
 295 747 295 747 324 718 c 128,-1,42
 353 689 353 689 353 646.5 c 128,-1,43
 353 604 353 604 324 575 c 128,-1,44
 295 546 295 546 252.5 546 c 128,-1,37
 210 546 210 546 181 575 c 128,-1,38
211.5 688 m 128,-1,46
 195 671 195 671 195 646.5 c 128,-1,47
 195 622 195 622 211.5 604.5 c 128,-1,48
 228 587 228 587 252.5 587 c 128,-1,49
 277 587 277 587 293.5 604.5 c 128,-1,50
 310 622 310 622 310 646.5 c 128,-1,51
 310 671 310 671 293.5 688 c 128,-1,52
 277 705 277 705 252.5 705 c 128,-1,45
 228 705 228 705 211.5 688 c 128,-1,46
EndSplineSet
EndChar

StartChar: ae
Encoding: 230 230 167
Width: 809
GlyphClass: 2
Flags: W
LayerCount: 2
Fore
SplineSet
559 45 m 0,0,1
 608 45 608 45 712 52 c 2,2,-1
 741 54 l 1,3,-1
 743 4 l 1,4,5
 631 -10 631 -10 553 -10 c 0,6,7
 454 -10 454 -10 407 46 c 1,8,-1
 373 31 l 2,9,10
 281 -10 281 -10 176 -10 c 0,11,12
 43 -10 43 -10 43 141 c 0,13,14
 43 221 43 221 83.5 250.5 c 128,-1,15
 124 280 124 280 225 291 c 1,16,-1
 360 304 l 1,17,-1
 360 349 l 2,18,19
 360 452 360 452 264 452 c 0,20,21
 198 452 198 452 105 444 c 1,22,-1
 74 442 l 1,23,-1
 72 496 l 1,24,25
 188 509 188 509 266 509 c 0,26,27
 374 509 374 509 402 428 c 1,28,29
 451 509 451 509 565 509 c 0,30,31
 664 509 664 509 713 452.5 c 128,-1,32
 762 396 762 396 762 273 c 1,33,-1
 759 225 l 1,34,-1
 419 225 l 1,35,36
 420 133 420 133 451.5 89 c 128,-1,37
 483 45 483 45 559 45 c 0,0,1
183 43 m 0,38,39
 272 43 272 43 381 85 c 1,40,41
 358 140 358 140 358 254 c 1,42,-1
 197 239 l 2,43,44
 149 234 149 234 127 211.5 c 128,-1,45
 105 189 105 189 105 141.5 c 128,-1,46
 105 94 105 94 125.5 68.5 c 128,-1,47
 146 43 146 43 183 43 c 0,38,39
419 275 m 1,48,-1
 701 275 l 1,49,50
 701 372 701 372 668.5 414 c 128,-1,51
 636 456 636 456 565 456 c 0,52,53
 419 456 419 456 419 275 c 1,48,-1
EndSplineSet
EndChar

StartChar: ccedilla
Encoding: 231 231 168
Width: 433
GlyphClass: 2
Flags: W
LayerCount: 2
Fore
SplineSet
355 -127 m 0,0,1
 355 -211 355 -211 266 -211 c 1,2,-1
 182 -205 l 1,3,-1
 184 -165 l 1,4,5
 225 -168 225 -168 255 -168 c 0,6,7
 300 -168 300 -168 300 -127 c 0,8,9
 300 -90 300 -90 255 -90 c 2,10,-1
 208 -90 l 1,11,-1
 208 -7 l 1,12,13
 120 4 120 4 87 64.5 c 128,-1,14
 54 125 54 125 54 260.5 c 128,-1,15
 54 396 54 396 101.5 453 c 128,-1,16
 149 510 149 510 261 510 c 0,17,18
 306 510 306 510 368 500 c 1,19,-1
 391 497 l 1,20,-1
 388 446 l 1,21,22
 309 456 309 456 271 456 c 0,23,24
 182 456 182 456 149 412.5 c 128,-1,25
 116 369 116 369 116 252.5 c 128,-1,26
 116 136 116 136 146 90 c 128,-1,27
 176 44 176 44 271 44 c 1,28,-1
 390 53 l 1,29,-1
 392 2 l 1,30,31
 303 -10 303 -10 260 -10 c 2,32,-1
 246 -10 l 1,33,-1
 246 -52 l 1,34,35
 304 -52 304 -52 329.5 -67.5 c 128,-1,36
 355 -83 355 -83 355 -127 c 0,0,1
EndSplineSet
EndChar

StartChar: egrave
Encoding: 232 232 169
Width: 504
GlyphClass: 2
Flags: W
LayerCount: 2
Fore
SplineSet
406 50 m 1,0,-1
 436 53 l 1,1,-1
 438 4 l 1,2,3
 325 -10 325 -10 247 -10 c 0,4,5
 139 -9 139 -9 96 54 c 128,-1,6
 53 117 53 117 53 248 c 0,7,8
 53 510 53 510 259 510 c 0,9,10
 358 510 358 510 407 453.5 c 128,-1,11
 456 397 456 397 456 273 c 1,12,-1
 454 225 l 1,13,-1
 114 225 l 1,14,15
 114 133 114 133 145.5 88.5 c 128,-1,16
 177 44 177 44 253.5 44 c 128,-1,17
 330 44 330 44 406 50 c 1,0,-1
114 275 m 1,18,-1
 396 275 l 1,19,20
 396 374 396 374 363.5 416 c 128,-1,21
 331 458 331 458 259.5 458 c 128,-1,22
 188 458 188 458 151 414.5 c 128,-1,23
 114 371 114 371 114 275 c 1,18,-1
145 738 m 1,24,-1
 352 641 l 1,25,-1
 333 599 l 1,26,-1
 123 686 l 1,27,-1
 145 738 l 1,24,-1
EndSplineSet
EndChar

StartChar: eacute
Encoding: 233 233 170
Width: 504
GlyphClass: 2
Flags: W
LayerCount: 2
Fore
SplineSet
406 50 m 1,0,-1
 436 53 l 1,1,-1
 438 4 l 1,2,3
 325 -10 325 -10 247 -10 c 0,4,5
 139 -9 139 -9 96 54 c 128,-1,6
 53 117 53 117 53 248 c 0,7,8
 53 510 53 510 259 510 c 0,9,10
 358 510 358 510 407 453.5 c 128,-1,11
 456 397 456 397 456 273 c 1,12,-1
 454 225 l 1,13,-1
 114 225 l 1,14,15
 114 133 114 133 145.5 88.5 c 128,-1,16
 177 44 177 44 253.5 44 c 128,-1,17
 330 44 330 44 406 50 c 1,0,-1
114 275 m 1,18,-1
 396 275 l 1,19,20
 396 374 396 374 363.5 416 c 128,-1,21
 331 458 331 458 259.5 458 c 128,-1,22
 188 458 188 458 151 414.5 c 128,-1,23
 114 371 114 371 114 275 c 1,18,-1
154 640 m 1,24,-1
 361 737 l 1,25,-1
 383 685 l 1,26,-1
 173 598 l 1,27,-1
 154 640 l 1,24,-1
EndSplineSet
EndChar

StartChar: ecircumflex
Encoding: 234 234 171
Width: 504
GlyphClass: 2
Flags: W
LayerCount: 2
Fore
SplineSet
406 50 m 1,0,-1
 436 53 l 1,1,-1
 438 4 l 1,2,3
 325 -10 325 -10 247 -10 c 0,4,5
 139 -9 139 -9 96 54 c 128,-1,6
 53 117 53 117 53 248 c 0,7,8
 53 510 53 510 259 510 c 0,9,10
 358 510 358 510 407 453.5 c 128,-1,11
 456 397 456 397 456 273 c 1,12,-1
 454 225 l 1,13,-1
 114 225 l 1,14,15
 114 133 114 133 145.5 88.5 c 128,-1,16
 177 44 177 44 253.5 44 c 128,-1,17
 330 44 330 44 406 50 c 1,0,-1
114 275 m 1,18,-1
 396 275 l 1,19,20
 396 374 396 374 363.5 416 c 128,-1,21
 331 458 331 458 259.5 458 c 128,-1,22
 188 458 188 458 151 414.5 c 128,-1,23
 114 371 114 371 114 275 c 1,18,-1
118 595 m 1,24,-1
 240 732 l 1,25,-1
 282 732 l 1,26,-1
 405 595 l 1,27,-1
 342 595 l 1,28,-1
 262 687 l 1,29,-1
 181 595 l 1,30,-1
 118 595 l 1,24,-1
EndSplineSet
EndChar

StartChar: edieresis
Encoding: 235 235 172
Width: 504
GlyphClass: 2
Flags: W
LayerCount: 2
Fore
SplineSet
406 50 m 1,0,-1
 436 53 l 1,1,-1
 438 4 l 1,2,3
 325 -10 325 -10 247 -10 c 0,4,5
 139 -9 139 -9 96 54 c 128,-1,6
 53 117 53 117 53 248 c 0,7,8
 53 510 53 510 259 510 c 0,9,10
 358 510 358 510 407 453.5 c 128,-1,11
 456 397 456 397 456 273 c 1,12,-1
 454 225 l 1,13,-1
 114 225 l 1,14,15
 114 133 114 133 145.5 88.5 c 128,-1,16
 177 44 177 44 253.5 44 c 128,-1,17
 330 44 330 44 406 50 c 1,0,-1
114 275 m 1,18,-1
 396 275 l 1,19,20
 396 374 396 374 363.5 416 c 128,-1,21
 331 458 331 458 259.5 458 c 128,-1,22
 188 458 188 458 151 414.5 c 128,-1,23
 114 371 114 371 114 275 c 1,18,-1
128 627 m 1,24,-1
 128 707 l 1,25,-1
 187 707 l 1,26,-1
 187 627 l 1,27,-1
 128 627 l 1,24,-1
325 627 m 1,28,-1
 325 707 l 1,29,-1
 383 707 l 1,30,-1
 383 627 l 1,31,-1
 325 627 l 1,28,-1
EndSplineSet
EndChar

StartChar: igrave
Encoding: 236 236 173
Width: 209
GlyphClass: 2
Flags: W
LayerCount: 2
Fore
SplineSet
75 0 m 1,0,-1
 75 500 l 1,1,-1
 134 500 l 1,2,-1
 134 0 l 1,3,-1
 75 0 l 1,0,-1
-38 737 m 1,4,-1
 169 640 l 1,5,-1
 150 598 l 1,6,-1
 -60 685 l 1,7,-1
 -38 737 l 1,4,-1
EndSplineSet
EndChar

StartChar: iacute
Encoding: 237 237 174
Width: 209
GlyphClass: 2
Flags: W
LayerCount: 2
Fore
SplineSet
40 640 m 1,0,-1
 247 737 l 1,1,-1
 269 685 l 1,2,-1
 59 598 l 1,3,-1
 40 640 l 1,0,-1
75 500 m 1,4,-1
 134 500 l 1,5,-1
 134 0 l 1,6,-1
 75 0 l 1,7,-1
 75 500 l 1,4,-1
EndSplineSet
EndChar

StartChar: icircumflex
Encoding: 238 238 175
Width: 209
GlyphClass: 2
Flags: W
LayerCount: 2
Fore
SplineSet
75 500 m 1,0,-1
 134 500 l 1,1,-1
 134 0 l 1,2,-1
 75 0 l 1,3,-1
 75 500 l 1,0,-1
-40 595 m 1,4,-1
 82 732 l 1,5,-1
 124 732 l 1,6,-1
 247 595 l 1,7,-1
 184 595 l 1,8,-1
 104 687 l 1,9,-1
 23 595 l 1,10,-1
 -40 595 l 1,4,-1
EndSplineSet
EndChar

StartChar: idieresis
Encoding: 239 239 176
Width: 209
GlyphClass: 2
Flags: W
LayerCount: 2
Fore
SplineSet
75 500 m 1,0,-1
 134 500 l 1,1,-1
 134 0 l 1,2,-1
 75 0 l 1,3,-1
 75 500 l 1,0,-1
-27 627 m 1,4,-1
 -27 707 l 1,5,-1
 32 707 l 1,6,-1
 32 627 l 1,7,-1
 -27 627 l 1,4,-1
170 627 m 1,8,-1
 170 707 l 1,9,-1
 228 707 l 1,10,-1
 228 627 l 1,11,-1
 170 627 l 1,8,-1
EndSplineSet
EndChar

StartChar: eth
Encoding: 240 240 177
Width: 543
GlyphClass: 2
Flags: W
LayerCount: 2
Fore
SplineSet
326 648 m 1,0,1
 488 547 488 547 488 351.5 c 128,-1,2
 488 156 488 156 436 73.5 c 128,-1,3
 384 -9 384 -9 263 -9 c 0,4,5
 159 -9 159 -9 101 48.5 c 128,-1,6
 43 106 43 106 43 208.5 c 128,-1,7
 43 311 43 311 98 369.5 c 128,-1,8
 153 428 153 428 251 428 c 0,9,10
 314 428 314 428 398 398 c 1,11,-1
 425 389 l 1,12,13
 418 530 418 530 276 614 c 1,14,-1
 156 534 l 1,15,-1
 127 573 l 1,16,-1
 227 640 l 1,17,18
 170 666 170 666 99 685 c 1,19,-1
 113 732 l 1,20,21
 208 710 208 710 278 675 c 1,22,-1
 380 743 l 1,23,-1
 409 704 l 1,24,-1
 326 648 l 1,0,1
426 334 m 1,25,26
 326 373 326 373 255.5 373 c 128,-1,27
 185 373 185 373 145.5 328.5 c 128,-1,28
 106 284 106 284 106 208.5 c 128,-1,29
 106 133 106 133 146 89.5 c 128,-1,30
 186 46 186 46 268.5 46 c 128,-1,31
 351 46 351 46 388 109 c 128,-1,32
 425 172 425 172 426 334 c 1,25,26
EndSplineSet
EndChar

StartChar: ntilde
Encoding: 241 241 178
Width: 533
GlyphClass: 2
Flags: W
LayerCount: 2
Fore
SplineSet
75 0 m 1,0,-1
 75 500 l 1,1,-1
 134 500 l 1,2,-1
 134 463 l 1,3,-1
 157 474 l 2,4,5
 180 486 180 486 221 498 c 128,-1,6
 262 510 262 510 297 510 c 0,7,8
 397 510 397 510 430.5 457 c 128,-1,9
 464 404 464 404 464 263 c 2,10,11
 464 263 464 263 464 0 c 1,12,-1
 404 0 l 1,13,-1
 404 260 l 2,14,15
 404 375 404 375 382 415.5 c 128,-1,16
 360 456 360 456 285 456 c 128,-1,17
 210 456 210 456 134 414 c 1,18,-1
 134 0 l 1,19,-1
 75 0 l 1,0,-1
350 619 m 0,20,21
 329 619 329 619 276 643.5 c 128,-1,22
 223 668 223 668 210 668 c 0,23,24
 187 668 187 668 149 638 c 1,25,-1
 136 627 l 1,26,-1
 121 667 l 1,27,28
 171 717 171 717 209 717 c 0,29,30
 230 717 230 717 283.5 693 c 128,-1,31
 337 669 337 669 348 669 c 0,32,33
 370 669 370 669 405 698 c 2,34,-1
 417 708 l 1,35,-1
 431 666 l 1,36,37
 386 619 386 619 350 619 c 0,20,21
EndSplineSet
EndChar

StartChar: ograve
Encoding: 242 242 179
Width: 527
GlyphClass: 2
Flags: W
LayerCount: 2
Fore
SplineSet
101.5 451 m 128,-1,1
 149 510 149 510 263.5 510 c 128,-1,2
 378 510 378 510 425.5 451 c 128,-1,3
 473 392 473 392 473 251 c 128,-1,4
 473 110 473 110 429.5 50 c 128,-1,5
 386 -10 386 -10 264 -10 c 128,-1,6
 142 -10 142 -10 98 50 c 128,-1,7
 54 110 54 110 54 251 c 128,-1,0
 54 392 54 392 101.5 451 c 128,-1,1
143.5 88.5 m 128,-1,9
 171 43 171 43 263.5 43 c 128,-1,10
 356 43 356 43 384 89 c 128,-1,11
 412 135 412 135 412 252.5 c 128,-1,12
 412 370 412 370 380.5 413.5 c 128,-1,13
 349 457 349 457 264 457 c 128,-1,14
 179 457 179 457 147.5 414 c 128,-1,15
 116 371 116 371 116 252.5 c 128,-1,8
 116 134 116 134 143.5 88.5 c 128,-1,9
168 737 m 1,16,-1
 375 640 l 1,17,-1
 356 598 l 1,18,-1
 146 685 l 1,19,-1
 168 737 l 1,16,-1
EndSplineSet
EndChar

StartChar: oacute
Encoding: 243 243 180
Width: 527
GlyphClass: 2
Flags: W
LayerCount: 2
Fore
SplineSet
425.5 451 m 128,-1,1
 473 392 473 392 473 251 c 128,-1,2
 473 110 473 110 429.5 50 c 128,-1,3
 386 -10 386 -10 264 -10 c 128,-1,4
 142 -10 142 -10 98 50 c 128,-1,5
 54 110 54 110 54 251 c 128,-1,6
 54 392 54 392 101.5 451 c 128,-1,7
 149 510 149 510 263.5 510 c 128,-1,0
 378 510 378 510 425.5 451 c 128,-1,1
384 89 m 128,-1,9
 412 135 412 135 412 252.5 c 128,-1,10
 412 370 412 370 380.5 413.5 c 128,-1,11
 349 457 349 457 264 457 c 128,-1,12
 179 457 179 457 147.5 414 c 128,-1,13
 116 371 116 371 116 252.5 c 128,-1,14
 116 134 116 134 143.5 88.5 c 128,-1,15
 171 43 171 43 263.5 43 c 128,-1,8
 356 43 356 43 384 89 c 128,-1,9
163 640 m 1,16,-1
 370 737 l 1,17,-1
 392 685 l 1,18,-1
 182 598 l 1,19,-1
 163 640 l 1,16,-1
EndSplineSet
EndChar

StartChar: ocircumflex
Encoding: 244 244 181
Width: 527
GlyphClass: 2
Flags: W
LayerCount: 2
Fore
SplineSet
425.5 451 m 128,-1,1
 473 392 473 392 473 251 c 128,-1,2
 473 110 473 110 429.5 50 c 128,-1,3
 386 -10 386 -10 264 -10 c 128,-1,4
 142 -10 142 -10 98 50 c 128,-1,5
 54 110 54 110 54 251 c 128,-1,6
 54 392 54 392 101.5 451 c 128,-1,7
 149 510 149 510 263.5 510 c 128,-1,0
 378 510 378 510 425.5 451 c 128,-1,1
384 89 m 128,-1,9
 412 135 412 135 412 252.5 c 128,-1,10
 412 370 412 370 380.5 413.5 c 128,-1,11
 349 457 349 457 264 457 c 128,-1,12
 179 457 179 457 147.5 414 c 128,-1,13
 116 371 116 371 116 252.5 c 128,-1,14
 116 134 116 134 143.5 88.5 c 128,-1,15
 171 43 171 43 263.5 43 c 128,-1,8
 356 43 356 43 384 89 c 128,-1,9
119 595 m 1,16,-1
 241 732 l 1,17,-1
 283 732 l 1,18,-1
 406 595 l 1,19,-1
 343 595 l 1,20,-1
 263 687 l 1,21,-1
 182 595 l 1,22,-1
 119 595 l 1,16,-1
EndSplineSet
EndChar

StartChar: otilde
Encoding: 245 245 182
Width: 527
GlyphClass: 2
Flags: W
LayerCount: 2
Fore
SplineSet
425.5 451 m 128,-1,1
 473 392 473 392 473 251 c 128,-1,2
 473 110 473 110 429.5 50 c 128,-1,3
 386 -10 386 -10 264 -10 c 128,-1,4
 142 -10 142 -10 98 50 c 128,-1,5
 54 110 54 110 54 251 c 128,-1,6
 54 392 54 392 101.5 451 c 128,-1,7
 149 510 149 510 263.5 510 c 128,-1,0
 378 510 378 510 425.5 451 c 128,-1,1
384 89 m 128,-1,9
 412 135 412 135 412 252.5 c 128,-1,10
 412 370 412 370 380.5 413.5 c 128,-1,11
 349 457 349 457 264 457 c 128,-1,12
 179 457 179 457 147.5 414 c 128,-1,13
 116 371 116 371 116 252.5 c 128,-1,14
 116 134 116 134 143.5 88.5 c 128,-1,15
 171 43 171 43 263.5 43 c 128,-1,8
 356 43 356 43 384 89 c 128,-1,9
337 619 m 0,16,17
 316 619 316 619 263 643.5 c 128,-1,18
 210 668 210 668 198 668 c 0,19,20
 174 668 174 668 136 638 c 1,21,-1
 123 627 l 1,22,-1
 108 667 l 1,23,24
 158 717 158 717 196 717 c 0,25,26
 217 717 217 717 270.5 693 c 128,-1,27
 324 669 324 669 336 669 c 0,28,29
 357 669 357 669 392 698 c 2,30,-1
 404 708 l 1,31,-1
 418 666 l 1,32,33
 373 619 373 619 337 619 c 0,16,17
EndSplineSet
EndChar

StartChar: odieresis
Encoding: 246 246 183
Width: 527
GlyphClass: 2
Flags: W
LayerCount: 2
Fore
SplineSet
425.5 451 m 128,-1,1
 473 392 473 392 473 251 c 128,-1,2
 473 110 473 110 429.5 50 c 128,-1,3
 386 -10 386 -10 264 -10 c 128,-1,4
 142 -10 142 -10 98 50 c 128,-1,5
 54 110 54 110 54 251 c 128,-1,6
 54 392 54 392 101.5 451 c 128,-1,7
 149 510 149 510 263.5 510 c 128,-1,0
 378 510 378 510 425.5 451 c 128,-1,1
384 89 m 128,-1,9
 412 135 412 135 412 252.5 c 128,-1,10
 412 370 412 370 380.5 413.5 c 128,-1,11
 349 457 349 457 264 457 c 128,-1,12
 179 457 179 457 147.5 414 c 128,-1,13
 116 371 116 371 116 252.5 c 128,-1,14
 116 134 116 134 143.5 88.5 c 128,-1,15
 171 43 171 43 263.5 43 c 128,-1,8
 356 43 356 43 384 89 c 128,-1,9
132 627 m 1,16,-1
 132 707 l 1,17,-1
 191 707 l 1,18,-1
 191 627 l 1,19,-1
 132 627 l 1,16,-1
329 627 m 1,20,-1
 329 707 l 1,21,-1
 387 707 l 1,22,-1
 387 627 l 1,23,-1
 329 627 l 1,20,-1
EndSplineSet
EndChar

StartChar: divide
Encoding: 247 247 184
Width: 560
GlyphClass: 2
Flags: W
LayerCount: 2
Fore
SplineSet
97 263 m 1,0,-1
 97 322 l 1,1,-1
 463 322 l 1,2,-1
 463 263 l 1,3,-1
 97 263 l 1,0,-1
208 335 m 1,4,-1
 208 425 l 1,5,-1
 352 425 l 1,6,-1
 352 335 l 1,7,-1
 208 335 l 1,4,-1
249 33 m 1,8,-1
 249 126 l 1,9,-1
 310 126 l 1,10,-1
 310 33 l 1,11,-1
 249 33 l 1,8,-1
EndSplineSet
EndChar

StartChar: oslash
Encoding: 248 248 185
Width: 527
GlyphClass: 2
Flags: W
LayerCount: 2
Fore
SplineSet
264 510 m 0,0,1
 309 510 309 510 342 501 c 1,2,-1
 385 605 l 1,3,-1
 428 590 l 1,4,-1
 384 485 l 1,5,6
 473 436 473 436 473 257 c 0,7,8
 473 110 473 110 429.5 50 c 128,-1,9
 386 -10 386 -10 264 -10 c 0,10,11
 220 -10 220 -10 185 -2 c 1,12,-1
 140 -113 l 1,13,-1
 98 -98 l 1,14,-1
 142 13 l 1,15,16
 93 38 93 38 73.5 96 c 128,-1,17
 54 154 54 154 54 257 c 0,18,19
 54 392 54 392 101.5 451 c 128,-1,20
 149 510 149 510 264 510 c 0,0,1
264 457 m 0,21,22
 179 457 179 457 147.5 414 c 128,-1,23
 116 371 116 371 116 272.5 c 128,-1,24
 116 174 116 174 126 129.5 c 128,-1,25
 136 85 136 85 166 65 c 1,26,-1
 322 450 l 1,27,28
 300 457 300 457 264 457 c 0,21,22
264 43 m 0,29,30
 356 43 356 43 384 89 c 128,-1,31
 412 135 412 135 412 264.5 c 128,-1,32
 412 394 412 394 362 432 c 1,33,-1
 205 49 l 1,34,35
 229 43 229 43 264 43 c 0,29,30
EndSplineSet
EndChar

StartChar: ugrave
Encoding: 249 249 186
Width: 525
GlyphClass: 2
Flags: W
LayerCount: 2
Fore
SplineSet
391 500 m 1,0,-1
 450 500 l 1,1,-1
 450 0 l 1,2,-1
 391 0 l 1,3,-1
 391 37 l 1,4,5
 314 -10 314 -10 237 -10 c 0,6,7
 135 -10 135 -10 102.5 42 c 128,-1,8
 70 94 70 94 70 239 c 2,9,-1
 70 500 l 1,10,-1
 129 500 l 1,11,-1
 129 240 l 2,12,13
 129 124 129 124 150.5 84 c 128,-1,14
 172 44 172 44 244 44 c 0,15,16
 279 44 279 44 316 54.5 c 128,-1,17
 353 65 353 65 372 76 c 2,18,-1
 391 86 l 1,19,-1
 391 500 l 1,0,-1
140 737 m 1,20,-1
 347 640 l 1,21,-1
 328 598 l 1,22,-1
 118 685 l 1,23,-1
 140 737 l 1,20,-1
EndSplineSet
EndChar

StartChar: uacute
Encoding: 250 250 187
Width: 525
GlyphClass: 2
Flags: W
LayerCount: 2
Fore
SplineSet
450 500 m 1,0,-1
 450 0 l 1,1,-1
 391 0 l 1,2,-1
 391 37 l 1,3,-1
 370 26 l 2,4,5
 348 14 348 14 309.5 2 c 128,-1,6
 271 -10 271 -10 237 -10 c 0,7,8
 135 -10 135 -10 102.5 42 c 128,-1,9
 70 94 70 94 70 239 c 2,10,11
 70 239 70 239 70 500 c 1,12,-1
 129 500 l 1,13,-1
 129 240 l 2,14,15
 129 124 129 124 150.5 84 c 128,-1,16
 172 44 172 44 247.5 44 c 128,-1,17
 323 44 323 44 391 86 c 1,18,-1
 391 500 l 1,19,-1
 450 500 l 1,0,-1
161 640 m 1,20,-1
 368 737 l 1,21,-1
 390 685 l 1,22,-1
 180 598 l 1,23,-1
 161 640 l 1,20,-1
EndSplineSet
EndChar

StartChar: ucircumflex
Encoding: 251 251 188
Width: 525
GlyphClass: 2
Flags: W
LayerCount: 2
Fore
SplineSet
450 500 m 1,0,-1
 450 0 l 1,1,-1
 391 0 l 1,2,-1
 391 37 l 1,3,-1
 370 26 l 2,4,5
 348 14 348 14 309.5 2 c 128,-1,6
 271 -10 271 -10 237 -10 c 0,7,8
 135 -10 135 -10 102.5 42 c 128,-1,9
 70 94 70 94 70 239 c 2,10,11
 70 239 70 239 70 500 c 1,12,-1
 129 500 l 1,13,-1
 129 240 l 2,14,15
 129 124 129 124 150.5 84 c 128,-1,16
 172 44 172 44 247.5 44 c 128,-1,17
 323 44 323 44 391 86 c 1,18,-1
 391 500 l 1,19,-1
 450 500 l 1,0,-1
111 595 m 1,20,-1
 233 732 l 1,21,-1
 275 732 l 1,22,-1
 398 595 l 1,23,-1
 335 595 l 1,24,-1
 255 687 l 1,25,-1
 174 595 l 1,26,-1
 111 595 l 1,20,-1
EndSplineSet
EndChar

StartChar: udieresis
Encoding: 252 252 189
Width: 525
GlyphClass: 2
Flags: W
LayerCount: 2
Fore
SplineSet
450 500 m 1,0,-1
 450 0 l 1,1,-1
 391 0 l 1,2,-1
 391 37 l 1,3,-1
 370 26 l 2,4,5
 348 14 348 14 309.5 2 c 128,-1,6
 271 -10 271 -10 237 -10 c 0,7,8
 135 -10 135 -10 102.5 42 c 128,-1,9
 70 94 70 94 70 239 c 2,10,11
 70 239 70 239 70 500 c 1,12,-1
 129 500 l 1,13,-1
 129 240 l 2,14,15
 129 124 129 124 150.5 84 c 128,-1,16
 172 44 172 44 247.5 44 c 128,-1,17
 323 44 323 44 391 86 c 1,18,-1
 391 500 l 1,19,-1
 450 500 l 1,0,-1
138 627 m 1,20,-1
 138 707 l 1,21,-1
 197 707 l 1,22,-1
 197 627 l 1,23,-1
 138 627 l 1,20,-1
335 627 m 1,24,-1
 335 707 l 1,25,-1
 393 707 l 1,26,-1
 393 627 l 1,27,-1
 335 627 l 1,24,-1
EndSplineSet
EndChar

StartChar: yacute
Encoding: 253 253 190
Width: 478
GlyphClass: 2
Flags: W
LayerCount: 2
Fore
SplineSet
27 500 m 1,0,-1
 88 500 l 1,1,-1
 221 52 l 1,2,-1
 257 52 l 1,3,-1
 391 500 l 1,4,-1
 452 500 l 1,5,-1
 236 -225 l 1,6,-1
 176 -225 l 1,7,-1
 243 0 l 1,8,-1
 174 0 l 1,9,-1
 27 500 l 1,0,-1
161 640 m 1,10,-1
 368 737 l 1,11,-1
 390 685 l 1,12,-1
 180 598 l 1,13,-1
 161 640 l 1,10,-1
EndSplineSet
EndChar

StartChar: thorn
Encoding: 254 254 191
Width: 522
GlyphClass: 2
Flags: W
LayerCount: 2
Fore
SplineSet
237 43 m 0,0,1
 341 43 341 43 374 91.5 c 128,-1,2
 407 140 407 140 407 252.5 c 128,-1,3
 407 365 407 365 381.5 410.5 c 128,-1,4
 356 456 356 456 286 456 c 0,5,6
 252 456 252 456 214 447.5 c 128,-1,7
 176 439 176 439 155 430 c 2,8,-1
 134 422 l 1,9,-1
 134 49 l 1,10,11
 204 43 204 43 237 43 c 0,0,1
290 510 m 0,12,13
 390 510 390 510 429 452.5 c 128,-1,14
 468 395 468 395 468 253 c 128,-1,15
 468 111 468 111 419.5 50.5 c 128,-1,16
 371 -10 371 -10 241 -10 c 1,17,-1
 134 -3 l 1,18,-1
 134 -225 l 1,19,-1
 75 -225 l 1,20,-1
 75 722 l 1,21,-1
 134 722 l 1,22,-1
 134 473 l 1,23,24
 213 510 213 510 290 510 c 0,12,13
EndSplineSet
EndChar

StartChar: ydieresis
Encoding: 255 255 192
Width: 478
GlyphClass: 2
Flags: W
LayerCount: 2
Fore
SplineSet
27 500 m 1,0,-1
 88 500 l 1,1,-1
 221 52 l 1,2,-1
 257 52 l 1,3,-1
 391 500 l 1,4,-1
 452 500 l 1,5,-1
 236 -225 l 1,6,-1
 176 -225 l 1,7,-1
 243 0 l 1,8,-1
 174 0 l 1,9,-1
 27 500 l 1,0,-1
110 627 m 1,10,-1
 110 707 l 1,11,-1
 169 707 l 1,12,-1
 169 627 l 1,13,-1
 110 627 l 1,10,-1
307 627 m 1,14,-1
 307 707 l 1,15,-1
 365 707 l 1,16,-1
 365 627 l 1,17,-1
 307 627 l 1,14,-1
EndSplineSet
EndChar

StartChar: Amacron
Encoding: 256 256 193
Width: 594
GlyphClass: 2
Flags: W
LayerCount: 2
Fore
SplineSet
25 0 m 1,0,-1
 225 695 l 1,1,-1
 370 695 l 1,2,-1
 569 0 l 1,3,-1
 508 0 l 1,4,-1
 452 192 l 1,5,-1
 142 192 l 1,6,-1
 87 0 l 1,7,-1
 25 0 l 1,0,-1
270 641 m 1,8,-1
 157 247 l 1,9,-1
 437 247 l 1,10,-1
 324 641 l 1,11,-1
 270 641 l 1,8,-1
146 819 m 1,12,-1
 146 868 l 1,13,-1
 448 868 l 1,14,-1
 448 819 l 1,15,-1
 146 819 l 1,12,-1
EndSplineSet
Position2: "'cpsp' Capital Spacing in Latin lookup 0 subtable" dx=5 dy=0 dh=10 dv=0
EndChar

StartChar: amacron
Encoding: 257 257 194
Width: 499
GlyphClass: 2
Flags: W
LayerCount: 2
Fore
SplineSet
419 351 m 2,0,-1
 419 83 l 1,1,2
 423 46 423 46 484 39 c 1,3,-1
 481 -9 l 1,4,5
 404 -9 404 -9 368 31 c 1,6,7
 274 -10 274 -10 180 -10 c 0,8,9
 113 -10 113 -10 78 28.5 c 128,-1,10
 43 67 43 67 43 138.5 c 128,-1,11
 43 210 43 210 78.5 244.5 c 128,-1,12
 114 279 114 279 190 287 c 2,13,-1
 360 304 l 1,14,-1
 360 351 l 2,15,16
 360 407 360 407 335.5 431.5 c 128,-1,17
 311 456 311 456 270 456 c 0,18,19
 206 456 206 456 104 444 c 1,20,-1
 73 441 l 1,21,-1
 70 489 l 1,22,23
 180 510 180 510 262.5 510 c 128,-1,24
 345 510 345 510 382 471 c 128,-1,25
 419 432 419 432 419 351 c 2,0,-1
105 142 m 0,26,27
 105 41 105 41 188 41 c 0,28,29
 224 41 224 41 267 49.5 c 128,-1,30
 310 58 310 58 335 67 c 2,31,-1
 360 76 l 1,32,-1
 360 257 l 1,33,-1
 197 240 l 1,34,35
 148 236 148 236 126.5 212 c 128,-1,36
 105 188 105 188 105 142 c 0,26,27
113 631 m 1,37,-1
 113 680 l 1,38,-1
 385 680 l 1,39,-1
 385 631 l 1,40,-1
 113 631 l 1,37,-1
EndSplineSet
EndChar

StartChar: Abreve
Encoding: 258 258 195
Width: 594
GlyphClass: 2
Flags: W
LayerCount: 2
Fore
SplineSet
25 0 m 1,0,-1
 225 695 l 1,1,-1
 370 695 l 1,2,-1
 569 0 l 1,3,-1
 508 0 l 1,4,-1
 452 192 l 1,5,-1
 142 192 l 1,6,-1
 87 0 l 1,7,-1
 25 0 l 1,0,-1
270 641 m 1,8,-1
 157 247 l 1,9,-1
 437 247 l 1,10,-1
 324 641 l 1,11,-1
 270 641 l 1,8,-1
295 841 m 128,-1,13
 334 841 334 841 361 862.5 c 128,-1,14
 388 884 388 884 389 920 c 1,15,-1
 445 920 l 1,16,17
 444 863 444 863 402 828 c 128,-1,18
 360 793 360 793 295 793 c 128,-1,19
 230 793 230 793 188.5 828 c 128,-1,20
 147 863 147 863 145 920 c 1,21,-1
 202 920 l 1,22,23
 203 884 203 884 229.5 862.5 c 128,-1,12
 256 841 256 841 295 841 c 128,-1,13
EndSplineSet
Position2: "'cpsp' Capital Spacing in Latin lookup 0 subtable" dx=5 dy=0 dh=10 dv=0
EndChar

StartChar: abreve
Encoding: 259 259 196
Width: 501
GlyphClass: 2
Flags: W
LayerCount: 2
Fore
SplineSet
419 349 m 2,0,-1
 419 88 l 1,1,2
 423 50 423 50 484 43 c 1,3,-1
 481 -9 l 1,4,5
 402 -9 402 -9 368 29 c 1,6,-1
 342 19 l 2,7,8
 317 9 317 9 269 -0.5 c 128,-1,9
 221 -10 221 -10 176 -10 c 0,10,11
 113 -10 113 -10 78 29 c 128,-1,12
 43 68 43 68 43 139 c 128,-1,13
 43 210 43 210 78.5 245 c 128,-1,14
 114 280 114 280 190 287 c 2,15,16
 190 287 190 287 360 304 c 1,17,-1
 360 349 l 2,18,19
 360 452 360 452 264 452 c 0,20,21
 191 452 191 452 74 437 c 1,22,-1
 70 490 l 1,23,-1
 102 495 l 2,24,25
 190 509 190 509 266 509 c 0,26,27
 344 509 344 509 381.5 470 c 128,-1,28
 419 431 419 431 419 349 c 2,0,-1
183 43 m 0,29,30
 268 43 268 43 360 77 c 1,31,-1
 360 254 l 1,32,-1
 197 239 l 2,33,34
 105 231 105 231 105 142 c 0,35,36
 105 94 105 94 125.5 68.5 c 128,-1,37
 146 43 146 43 183 43 c 0,29,30
252 646 m 128,-1,39
 294 646 294 646 318 669 c 128,-1,40
 342 692 342 692 343 729 c 1,41,-1
 404 729 l 1,42,43
 402 668 402 668 361.5 630 c 128,-1,44
 321 592 321 592 252 592 c 128,-1,45
 183 592 183 592 142.5 630 c 128,-1,46
 102 668 102 668 100 729 c 1,47,-1
 161 729 l 1,48,49
 162 692 162 692 186 669 c 128,-1,38
 210 646 210 646 252 646 c 128,-1,39
EndSplineSet
EndChar

StartChar: Aogonek
Encoding: 260 260 197
Width: 594
GlyphClass: 2
Flags: W
LayerCount: 2
Fore
SplineSet
489 -110 m 128,-1,1
 489 -127 489 -127 501 -140 c 128,-1,2
 513 -153 513 -153 532 -153 c 1,3,-1
 584 -147 l 1,4,-1
 590 -195 l 1,5,6
 549 -204 549 -204 514 -204 c 128,-1,7
 479 -204 479 -204 454.5 -181 c 128,-1,8
 430 -158 430 -158 430 -123.5 c 128,-1,9
 430 -89 430 -89 457 -53 c 128,-1,10
 484 -17 484 -17 507 3 c 1,11,-1
 452 192 l 1,12,-1
 142 192 l 1,13,-1
 87 0 l 1,14,-1
 25 0 l 1,15,-1
 225 695 l 1,16,-1
 370 695 l 1,17,-1
 569 0 l 1,18,-1
 563 0 l 1,19,20
 531 -32 531 -32 510 -62.5 c 128,-1,0
 489 -93 489 -93 489 -110 c 128,-1,1
270 641 m 1,21,-1
 157 247 l 1,22,-1
 437 247 l 1,23,-1
 324 641 l 1,24,-1
 270 641 l 1,21,-1
EndSplineSet
Position2: "'cpsp' Capital Spacing in Latin lookup 0 subtable" dx=5 dy=0 dh=10 dv=0
EndChar

StartChar: aogonek
Encoding: 261 261 198
Width: 498
GlyphClass: 2
Flags: W
LayerCount: 2
Fore
SplineSet
419 351 m 2,0,-1
 419 83 l 1,1,2
 423 46 423 46 484 39 c 1,3,-1
 481 -9 l 1,4,5
 468 -9 468 -9 448 -7 c 1,6,7
 382 -80 382 -80 382 -103.5 c 128,-1,8
 382 -127 382 -127 394 -140 c 128,-1,9
 406 -153 406 -153 425 -153 c 1,10,-1
 477 -147 l 1,11,-1
 483 -195 l 1,12,13
 442 -204 442 -204 407 -204 c 128,-1,14
 372 -204 372 -204 347.5 -181 c 128,-1,15
 323 -158 323 -158 323 -119 c 0,16,17
 323 -97 323 -97 342 -67 c 0,18,19
 367 -27 367 -27 402 5 c 1,20,21
 382 14 382 14 368 31 c 1,22,23
 274 -10 274 -10 180 -10 c 0,24,25
 113 -10 113 -10 78 28.5 c 128,-1,26
 43 67 43 67 43 138.5 c 128,-1,27
 43 210 43 210 78.5 244.5 c 128,-1,28
 114 279 114 279 190 287 c 2,29,-1
 360 304 l 1,30,-1
 360 351 l 2,31,32
 360 407 360 407 335.5 431.5 c 128,-1,33
 311 456 311 456 270 456 c 0,34,35
 206 456 206 456 104 444 c 1,36,-1
 73 441 l 1,37,-1
 70 489 l 1,38,39
 180 510 180 510 262.5 510 c 128,-1,40
 345 510 345 510 382 471 c 128,-1,41
 419 432 419 432 419 351 c 2,0,-1
105 142 m 0,42,43
 105 41 105 41 188 41 c 0,44,45
 224 41 224 41 267 49.5 c 128,-1,46
 310 58 310 58 335 67 c 2,47,-1
 360 76 l 1,48,-1
 360 257 l 1,49,-1
 197 240 l 1,50,51
 148 236 148 236 126.5 212 c 128,-1,52
 105 188 105 188 105 142 c 0,42,43
EndSplineSet
EndChar

StartChar: Cacute
Encoding: 262 262 199
Width: 544
GlyphClass: 2
Flags: W
LayerCount: 2
Fore
SplineSet
502 11 m 1,0,1
 399 -10 399 -10 326 -10 c 128,-1,2
 253 -10 253 -10 208.5 5.5 c 128,-1,3
 164 21 164 21 136 49 c 128,-1,4
 108 77 108 77 92 122 c 0,5,6
 62 204 62 204 62 345 c 0,7,8
 62 571 62 571 134 644 c 0,9,10
 193 705 193 705 314 705 c 0,11,12
 397 705 397 705 502 684 c 1,13,-1
 499 630 l 1,14,15
 395 649 395 649 332 649 c 128,-1,16
 269 649 269 649 234.5 635.5 c 128,-1,17
 200 622 200 622 178.5 599.5 c 128,-1,18
 157 577 157 577 146 537 c 0,19,20
 126 469 126 469 126 367 c 128,-1,21
 126 265 126 265 133 214.5 c 128,-1,22
 140 164 140 164 160 123 c 128,-1,23
 180 82 180 82 219 64 c 128,-1,24
 258 46 258 46 327 46 c 128,-1,25
 396 46 396 46 499 65 c 1,26,-1
 502 11 l 1,0,1
190 829 m 1,27,-1
 397 928 l 1,28,-1
 419 874 l 1,29,-1
 210 786 l 1,30,-1
 190 829 l 1,27,-1
EndSplineSet
Position2: "'cpsp' Capital Spacing in Latin lookup 0 subtable" dx=5 dy=0 dh=10 dv=0
EndChar

StartChar: cacute
Encoding: 263 263 200
Width: 433
GlyphClass: 2
Flags: W
LayerCount: 2
Fore
SplineSet
261 510 m 0,0,1
 306 510 306 510 368 500 c 1,2,-1
 391 497 l 1,3,-1
 388 446 l 1,4,5
 309 456 309 456 271 456 c 0,6,7
 182 456 182 456 149 412.5 c 128,-1,8
 116 369 116 369 116 252.5 c 128,-1,9
 116 136 116 136 146 90 c 128,-1,10
 176 44 176 44 271 44 c 1,11,-1
 390 53 l 1,12,-1
 392 2 l 1,13,14
 303 -10 303 -10 260 -10 c 0,15,16
 141 -10 141 -10 97.5 49 c 128,-1,17
 54 108 54 108 54 252 c 128,-1,18
 54 396 54 396 101.5 453 c 128,-1,19
 149 510 149 510 261 510 c 0,0,1
133 640 m 1,20,-1
 340 737 l 1,21,-1
 362 685 l 1,22,-1
 152 598 l 1,23,-1
 133 640 l 1,20,-1
EndSplineSet
EndChar

StartChar: Ccircumflex
Encoding: 264 264 201
Width: 544
GlyphClass: 2
Flags: W
LayerCount: 2
Fore
SplineSet
502 11 m 1,0,1
 399 -10 399 -10 326 -10 c 128,-1,2
 253 -10 253 -10 208.5 5.5 c 128,-1,3
 164 21 164 21 136 49 c 128,-1,4
 108 77 108 77 92 122 c 0,5,6
 62 204 62 204 62 345 c 0,7,8
 62 571 62 571 134 644 c 0,9,10
 193 705 193 705 314 705 c 0,11,12
 397 705 397 705 502 684 c 1,13,-1
 499 630 l 1,14,15
 395 649 395 649 332 649 c 128,-1,16
 269 649 269 649 234.5 635.5 c 128,-1,17
 200 622 200 622 178.5 599.5 c 128,-1,18
 157 577 157 577 146 537 c 0,19,20
 126 469 126 469 126 367 c 128,-1,21
 126 265 126 265 133 214.5 c 128,-1,22
 140 164 140 164 160 123 c 128,-1,23
 180 82 180 82 219 64 c 128,-1,24
 258 46 258 46 327 46 c 128,-1,25
 396 46 396 46 499 65 c 1,26,-1
 502 11 l 1,0,1
153 798 m 1,27,-1
 287 929 l 1,28,-1
 339 929 l 1,29,-1
 473 798 l 1,30,-1
 404 798 l 1,31,-1
 314 884 l 1,32,-1
 223 798 l 1,33,-1
 153 798 l 1,27,-1
EndSplineSet
Position2: "'cpsp' Capital Spacing in Latin lookup 0 subtable" dx=5 dy=0 dh=10 dv=0
EndChar

StartChar: ccircumflex
Encoding: 265 265 202
Width: 433
GlyphClass: 2
Flags: W
LayerCount: 2
Fore
SplineSet
261 510 m 0,0,1
 306 510 306 510 368 500 c 1,2,-1
 391 497 l 1,3,-1
 388 446 l 1,4,5
 309 456 309 456 271 456 c 0,6,7
 182 456 182 456 149 412.5 c 128,-1,8
 116 369 116 369 116 252.5 c 128,-1,9
 116 136 116 136 146 90 c 128,-1,10
 176 44 176 44 271 44 c 1,11,-1
 390 53 l 1,12,-1
 392 2 l 1,13,14
 303 -10 303 -10 260 -10 c 0,15,16
 141 -10 141 -10 97.5 49 c 128,-1,17
 54 108 54 108 54 252 c 128,-1,18
 54 396 54 396 101.5 453 c 128,-1,19
 149 510 149 510 261 510 c 0,0,1
91 595 m 1,20,-1
 213 732 l 1,21,-1
 255 732 l 1,22,-1
 378 595 l 1,23,-1
 315 595 l 1,24,-1
 235 687 l 1,25,-1
 154 595 l 1,26,-1
 91 595 l 1,20,-1
EndSplineSet
EndChar

StartChar: Cdotaccent
Encoding: 266 266 203
Width: 544
GlyphClass: 2
Flags: W
LayerCount: 2
Fore
SplineSet
502 11 m 1,0,1
 399 -10 399 -10 326 -10 c 128,-1,2
 253 -10 253 -10 208.5 5.5 c 128,-1,3
 164 21 164 21 136 49 c 128,-1,4
 108 77 108 77 92 122 c 0,5,6
 62 204 62 204 62 345 c 0,7,8
 62 571 62 571 134 644 c 0,9,10
 193 705 193 705 314 705 c 0,11,12
 397 705 397 705 502 684 c 1,13,-1
 499 630 l 1,14,15
 395 649 395 649 332 649 c 128,-1,16
 269 649 269 649 234.5 635.5 c 128,-1,17
 200 622 200 622 178.5 599.5 c 128,-1,18
 157 577 157 577 146 537 c 0,19,20
 126 469 126 469 126 367 c 128,-1,21
 126 265 126 265 133 214.5 c 128,-1,22
 140 164 140 164 160 123 c 128,-1,23
 180 82 180 82 219 64 c 128,-1,24
 258 46 258 46 327 46 c 128,-1,25
 396 46 396 46 499 65 c 1,26,-1
 502 11 l 1,0,1
264 807 m 1,27,-1
 264 882 l 1,28,-1
 324 882 l 1,29,-1
 324 807 l 1,30,-1
 264 807 l 1,27,-1
EndSplineSet
Position2: "'cpsp' Capital Spacing in Latin lookup 0 subtable" dx=5 dy=0 dh=10 dv=0
EndChar

StartChar: cdotaccent
Encoding: 267 267 204
Width: 433
GlyphClass: 2
Flags: W
LayerCount: 2
Fore
SplineSet
261 510 m 0,0,1
 306 510 306 510 368 500 c 1,2,-1
 391 497 l 1,3,-1
 388 446 l 1,4,5
 309 456 309 456 271 456 c 0,6,7
 182 456 182 456 149 412.5 c 128,-1,8
 116 369 116 369 116 252.5 c 128,-1,9
 116 136 116 136 146 90 c 128,-1,10
 176 44 176 44 271 44 c 1,11,-1
 390 53 l 1,12,-1
 392 2 l 1,13,14
 303 -10 303 -10 260 -10 c 0,15,16
 141 -10 141 -10 97.5 49 c 128,-1,17
 54 108 54 108 54 252 c 128,-1,18
 54 396 54 396 101.5 453 c 128,-1,19
 149 510 149 510 261 510 c 0,0,1
219 623 m 1,20,-1
 219 698 l 1,21,-1
 279 698 l 1,22,-1
 279 623 l 1,23,-1
 219 623 l 1,20,-1
EndSplineSet
EndChar

StartChar: Ccaron
Encoding: 268 268 205
Width: 544
GlyphClass: 2
Flags: W
LayerCount: 2
Fore
SplineSet
502 11 m 1,0,1
 399 -10 399 -10 326 -10 c 128,-1,2
 253 -10 253 -10 208.5 5.5 c 128,-1,3
 164 21 164 21 136 49 c 128,-1,4
 108 77 108 77 92 122 c 0,5,6
 62 204 62 204 62 345 c 0,7,8
 62 571 62 571 134 644 c 0,9,10
 193 705 193 705 314 705 c 0,11,12
 397 705 397 705 502 684 c 1,13,-1
 499 630 l 1,14,15
 395 649 395 649 332 649 c 128,-1,16
 269 649 269 649 234.5 635.5 c 128,-1,17
 200 622 200 622 178.5 599.5 c 128,-1,18
 157 577 157 577 146 537 c 0,19,20
 126 469 126 469 126 367 c 128,-1,21
 126 265 126 265 133 214.5 c 128,-1,22
 140 164 140 164 160 123 c 128,-1,23
 180 82 180 82 219 64 c 128,-1,24
 258 46 258 46 327 46 c 128,-1,25
 396 46 396 46 499 65 c 1,26,-1
 502 11 l 1,0,1
276 798 m 1,27,-1
 142 929 l 1,28,-1
 211 929 l 1,29,-1
 302 843 l 1,30,-1
 392 929 l 1,31,-1
 462 929 l 1,32,-1
 328 798 l 1,33,-1
 276 798 l 1,27,-1
EndSplineSet
Position2: "'cpsp' Capital Spacing in Latin lookup 0 subtable" dx=5 dy=0 dh=10 dv=0
EndChar

StartChar: ccaron
Encoding: 269 269 206
Width: 433
GlyphClass: 2
Flags: W
LayerCount: 2
Fore
SplineSet
261 510 m 0,0,1
 306 510 306 510 368 500 c 1,2,-1
 391 497 l 1,3,-1
 388 446 l 1,4,5
 309 456 309 456 271 456 c 0,6,7
 182 456 182 456 149 412.5 c 128,-1,8
 116 369 116 369 116 252.5 c 128,-1,9
 116 136 116 136 146 90 c 128,-1,10
 176 44 176 44 271 44 c 1,11,-1
 390 53 l 1,12,-1
 392 2 l 1,13,14
 303 -10 303 -10 260 -10 c 0,15,16
 141 -10 141 -10 97.5 49 c 128,-1,17
 54 108 54 108 54 252 c 128,-1,18
 54 396 54 396 101.5 453 c 128,-1,19
 149 510 149 510 261 510 c 0,0,1
218 595 m 1,20,-1
 96 732 l 1,21,-1
 158 732 l 1,22,-1
 240 641 l 1,23,-1
 321 732 l 1,24,-1
 383 732 l 1,25,-1
 260 595 l 1,26,-1
 218 595 l 1,20,-1
EndSplineSet
EndChar

StartChar: Dcaron
Encoding: 270 270 207
Width: 646
GlyphClass: 2
Flags: W
LayerCount: 2
Fore
SplineSet
340 0 m 2,0,-1
 87 0 l 1,1,-1
 87 695 l 1,2,-1
 340 695 l 2,3,4
 587 695 587 695 587 357 c 0,5,6
 587 0 587 0 340 0 c 2,0,-1
523 357 m 0,7,8
 523 639 523 639 340 639 c 2,9,-1
 149 639 l 1,10,-1
 149 55 l 1,11,-1
 340 55 l 2,12,13
 523 55 523 55 523 357 c 0,7,8
266 798 m 1,14,-1
 132 929 l 1,15,-1
 201 929 l 1,16,-1
 292 843 l 1,17,-1
 382 929 l 1,18,-1
 452 929 l 1,19,-1
 318 798 l 1,20,-1
 266 798 l 1,14,-1
EndSplineSet
Position2: "'cpsp' Capital Spacing in Latin lookup 0 subtable" dx=5 dy=0 dh=10 dv=0
EndChar

StartChar: dcaron
Encoding: 271 271 208
Width: 552
GlyphClass: 2
Flags: W
LayerCount: 2
Fore
SplineSet
550 685 m 1,0,-1
 610 685 l 1,1,-1
 562 484 l 1,2,-1
 511 484 l 1,3,-1
 550 685 l 1,0,-1
449 722 m 1,4,-1
 449 0 l 1,5,-1
 389 0 l 1,6,-1
 389 37 l 1,7,8
 310 -10 310 -10 229 -10 c 0,9,10
 192 -10 192 -10 165 -1.5 c 128,-1,11
 138 7 138 7 110 32 c 0,12,13
 53 83 53 83 53 231.5 c 128,-1,14
 53 380 53 380 101 445 c 128,-1,15
 149 510 149 510 263 510 c 0,16,17
 307 510 307 510 389 497 c 1,18,-1
 389 722 l 1,19,-1
 449 722 l 1,4,-1
191.5 51 m 128,-1,21
 210 44 210 44 239.5 44 c 128,-1,22
 269 44 269 44 307.5 55 c 128,-1,23
 346 66 346 66 368 76 c 1,24,-1
 389 87 l 1,25,-1
 389 445 l 1,26,27
 309 457 309 457 265 457 c 0,28,29
 180 457 180 457 147.5 405 c 128,-1,30
 115 353 115 353 115 244 c 0,31,32
 115 116 115 116 154 77 c 0,33,20
 173 58 173 58 191.5 51 c 128,-1,21
EndSplineSet
EndChar

StartChar: Dcroat
Encoding: 272 272 209
Width: 649
GlyphClass: 2
Flags: W
LayerCount: 2
Fore
SplineSet
19 320 m 1,0,-1
 19 378 l 1,1,-1
 90 378 l 1,2,-1
 90 697 l 1,3,-1
 342 697 l 2,4,5
 590 697 590 697 590 359 c 0,6,7
 590 0 590 0 342 0 c 2,8,-1
 90 0 l 1,9,-1
 90 320 l 1,10,-1
 19 320 l 1,0,-1
526 359 m 0,11,12
 526 639 526 639 342 639 c 2,13,-1
 151 639 l 1,14,-1
 151 378 l 1,15,-1
 316 378 l 1,16,-1
 316 320 l 1,17,-1
 151 320 l 1,18,-1
 151 58 l 1,19,-1
 342 58 l 2,20,21
 394 58 394 58 431.5 83.5 c 128,-1,22
 469 109 469 109 489 154 c 0,23,24
 526 237 526 237 526 359 c 0,11,12
EndSplineSet
Position2: "'cpsp' Capital Spacing in Latin lookup 0 subtable" dx=5 dy=0 dh=10 dv=0
EndChar

StartChar: dcroat
Encoding: 273 273 210
Width: 523
GlyphClass: 2
Flags: W
LayerCount: 2
Fore
SplineSet
449 722 m 1,0,-1
 449 675 l 1,1,-1
 485 675 l 1,2,-1
 485 622 l 1,3,-1
 449 622 l 1,4,-1
 449 0 l 1,5,-1
 389 0 l 1,6,-1
 389 37 l 1,7,8
 310 -10 310 -10 229 -10 c 0,9,10
 192 -10 192 -10 165 -1.5 c 128,-1,11
 138 7 138 7 110 32 c 0,12,13
 53 83 53 83 53 231.5 c 128,-1,14
 53 380 53 380 101 445 c 128,-1,15
 149 510 149 510 263 510 c 0,16,17
 307 510 307 510 389 497 c 1,18,-1
 389 622 l 1,19,-1
 203 622 l 1,20,-1
 203 675 l 1,21,-1
 389 675 l 1,22,-1
 389 722 l 1,23,-1
 449 722 l 1,0,-1
191.5 51 m 128,-1,25
 210 44 210 44 239.5 44 c 128,-1,26
 269 44 269 44 307.5 55 c 128,-1,27
 346 66 346 66 368 76 c 1,28,-1
 389 87 l 1,29,-1
 389 445 l 1,30,31
 309 457 309 457 265 457 c 0,32,33
 180 457 180 457 147.5 405 c 128,-1,34
 115 353 115 353 115 244 c 0,35,36
 115 116 115 116 154 77 c 0,37,24
 173 58 173 58 191.5 51 c 128,-1,25
EndSplineSet
EndChar

StartChar: Emacron
Encoding: 274 274 211
Width: 552
GlyphClass: 2
Flags: W
LayerCount: 2
Fore
SplineSet
87 0 m 1,0,-1
 87 695 l 1,1,-1
 504 695 l 1,2,-1
 504 639 l 1,3,-1
 149 639 l 1,4,-1
 149 381 l 1,5,-1
 444 381 l 1,6,-1
 444 326 l 1,7,-1
 149 326 l 1,8,-1
 149 55 l 1,9,-1
 504 55 l 1,10,-1
 504 0 l 1,11,-1
 87 0 l 1,0,-1
143 819 m 1,12,-1
 143 868 l 1,13,-1
 445 868 l 1,14,-1
 445 819 l 1,15,-1
 143 819 l 1,12,-1
EndSplineSet
Position2: "'cpsp' Capital Spacing in Latin lookup 0 subtable" dx=5 dy=0 dh=10 dv=0
EndChar

StartChar: emacron
Encoding: 275 275 212
Width: 504
GlyphClass: 2
Flags: W
LayerCount: 2
Fore
SplineSet
406 50 m 1,0,-1
 436 53 l 1,1,-1
 438 4 l 1,2,3
 325 -10 325 -10 247 -10 c 0,4,5
 139 -9 139 -9 96 54 c 128,-1,6
 53 117 53 117 53 248 c 0,7,8
 53 510 53 510 259 510 c 0,9,10
 358 510 358 510 407 453.5 c 128,-1,11
 456 397 456 397 456 273 c 1,12,-1
 454 225 l 1,13,-1
 114 225 l 1,14,15
 114 133 114 133 145.5 88.5 c 128,-1,16
 177 44 177 44 253.5 44 c 128,-1,17
 330 44 330 44 406 50 c 1,0,-1
114 275 m 1,18,-1
 396 275 l 1,19,20
 396 374 396 374 363.5 416 c 128,-1,21
 331 458 331 458 259.5 458 c 128,-1,22
 188 458 188 458 151 414.5 c 128,-1,23
 114 371 114 371 114 275 c 1,18,-1
126 631 m 1,24,-1
 126 680 l 1,25,-1
 398 680 l 1,26,-1
 398 631 l 1,27,-1
 126 631 l 1,24,-1
EndSplineSet
EndChar

StartChar: Ebreve
Encoding: 276 276 213
Width: 552
GlyphClass: 2
Flags: W
LayerCount: 2
Fore
SplineSet
87 0 m 1,0,-1
 87 695 l 1,1,-1
 504 695 l 1,2,-1
 504 639 l 1,3,-1
 149 639 l 1,4,-1
 149 381 l 1,5,-1
 444 381 l 1,6,-1
 444 326 l 1,7,-1
 149 326 l 1,8,-1
 149 55 l 1,9,-1
 504 55 l 1,10,-1
 504 0 l 1,11,-1
 87 0 l 1,0,-1
305 841 m 128,-1,13
 344 841 344 841 371 862.5 c 128,-1,14
 398 884 398 884 399 920 c 1,15,-1
 455 920 l 1,16,17
 454 863 454 863 412 828 c 128,-1,18
 370 793 370 793 305 793 c 128,-1,19
 240 793 240 793 198.5 828 c 128,-1,20
 157 863 157 863 155 920 c 1,21,-1
 212 920 l 1,22,23
 213 884 213 884 239.5 862.5 c 128,-1,12
 266 841 266 841 305 841 c 128,-1,13
EndSplineSet
Position2: "'cpsp' Capital Spacing in Latin lookup 0 subtable" dx=5 dy=0 dh=10 dv=0
EndChar

StartChar: ebreve
Encoding: 277 277 214
Width: 504
GlyphClass: 2
Flags: W
LayerCount: 2
Fore
SplineSet
406 50 m 1,0,-1
 436 53 l 1,1,-1
 438 4 l 1,2,3
 325 -10 325 -10 247 -10 c 0,4,5
 139 -9 139 -9 96 54 c 128,-1,6
 53 117 53 117 53 248 c 0,7,8
 53 510 53 510 259 510 c 0,9,10
 358 510 358 510 407 453.5 c 128,-1,11
 456 397 456 397 456 273 c 1,12,-1
 454 225 l 1,13,-1
 114 225 l 1,14,15
 114 133 114 133 145.5 88.5 c 128,-1,16
 177 44 177 44 253.5 44 c 128,-1,17
 330 44 330 44 406 50 c 1,0,-1
114 275 m 1,18,-1
 396 275 l 1,19,20
 396 374 396 374 363.5 416 c 128,-1,21
 331 458 331 458 259.5 458 c 128,-1,22
 188 458 188 458 151 414.5 c 128,-1,23
 114 371 114 371 114 275 c 1,18,-1
255 636 m 128,-1,25
 298 636 298 636 322.5 661 c 128,-1,26
 347 686 347 686 348 725 c 1,27,-1
 400 725 l 1,28,29
 398 666 398 666 358.5 627.5 c 128,-1,30
 319 589 319 589 255 589 c 128,-1,31
 191 589 191 589 152 627.5 c 128,-1,32
 113 666 113 666 111 725 c 1,33,-1
 162 725 l 1,34,35
 163 685 163 685 187.5 660.5 c 128,-1,24
 212 636 212 636 255 636 c 128,-1,25
EndSplineSet
EndChar

StartChar: Edotaccent
Encoding: 278 278 215
Width: 552
GlyphClass: 2
Flags: W
LayerCount: 2
Fore
SplineSet
87 0 m 1,0,-1
 87 695 l 1,1,-1
 504 695 l 1,2,-1
 504 639 l 1,3,-1
 149 639 l 1,4,-1
 149 381 l 1,5,-1
 444 381 l 1,6,-1
 444 326 l 1,7,-1
 149 326 l 1,8,-1
 149 55 l 1,9,-1
 504 55 l 1,10,-1
 504 0 l 1,11,-1
 87 0 l 1,0,-1
266 809 m 1,12,-1
 266 884 l 1,13,-1
 326 884 l 1,14,-1
 326 809 l 1,15,-1
 266 809 l 1,12,-1
EndSplineSet
Position2: "'cpsp' Capital Spacing in Latin lookup 0 subtable" dx=5 dy=0 dh=10 dv=0
EndChar

StartChar: edotaccent
Encoding: 279 279 216
Width: 504
GlyphClass: 2
Flags: W
LayerCount: 2
Fore
SplineSet
406 50 m 1,0,-1
 436 53 l 1,1,-1
 438 4 l 1,2,3
 325 -10 325 -10 247 -10 c 0,4,5
 139 -9 139 -9 96 54 c 128,-1,6
 53 117 53 117 53 248 c 0,7,8
 53 510 53 510 259 510 c 0,9,10
 358 510 358 510 407 453.5 c 128,-1,11
 456 397 456 397 456 273 c 1,12,-1
 454 225 l 1,13,-1
 114 225 l 1,14,15
 114 133 114 133 145.5 88.5 c 128,-1,16
 177 44 177 44 253.5 44 c 128,-1,17
 330 44 330 44 406 50 c 1,0,-1
114 275 m 1,18,-1
 396 275 l 1,19,20
 396 374 396 374 363.5 416 c 128,-1,21
 331 458 331 458 259.5 458 c 128,-1,22
 188 458 188 458 151 414.5 c 128,-1,23
 114 371 114 371 114 275 c 1,18,-1
223 623 m 1,24,-1
 223 698 l 1,25,-1
 283 698 l 1,26,-1
 283 623 l 1,27,-1
 223 623 l 1,24,-1
EndSplineSet
EndChar

StartChar: Eogonek
Encoding: 280 280 217
Width: 552
GlyphClass: 2
Flags: W
LayerCount: 2
Fore
SplineSet
87 0 m 1,0,-1
 87 695 l 1,1,-1
 504 695 l 1,2,-1
 504 639 l 1,3,-1
 149 639 l 1,4,-1
 149 381 l 1,5,-1
 444 381 l 1,6,-1
 444 326 l 1,7,-1
 149 326 l 1,8,-1
 149 55 l 1,9,-1
 504 55 l 1,10,-1
 504 0 l 1,11,-1
 475 0 l 1,12,13
 443 -32 443 -32 422 -62.5 c 128,-1,14
 401 -93 401 -93 401 -110 c 128,-1,15
 401 -127 401 -127 413 -140 c 128,-1,16
 425 -153 425 -153 444 -153 c 1,17,-1
 496 -147 l 1,18,-1
 502 -195 l 1,19,20
 461 -204 461 -204 426 -204 c 128,-1,21
 391 -204 391 -204 366.5 -181 c 128,-1,22
 342 -158 342 -158 342 -124 c 128,-1,23
 342 -90 342 -90 366.5 -56 c 128,-1,24
 391 -22 391 -22 416 0 c 1,25,-1
 87 0 l 1,0,-1
EndSplineSet
Position2: "'cpsp' Capital Spacing in Latin lookup 0 subtable" dx=5 dy=0 dh=10 dv=0
EndChar

StartChar: eogonek
Encoding: 281 281 218
Width: 504
GlyphClass: 2
Flags: W
LayerCount: 2
Fore
SplineSet
341 -107 m 0,0,1
 341 -127 341 -127 353 -140 c 128,-1,2
 365 -153 365 -153 384 -153 c 1,3,-1
 436 -147 l 1,4,-1
 442 -195 l 1,5,6
 401 -204 401 -204 366 -204 c 128,-1,7
 331 -204 331 -204 306.5 -181 c 128,-1,8
 282 -158 282 -158 282 -115.5 c 128,-1,9
 282 -73 282 -73 351 -4 c 1,10,11
 283 -10 283 -10 247 -10 c 0,12,13
 139 -9 139 -9 96 54 c 128,-1,14
 53 117 53 117 53 248 c 0,15,16
 53 510 53 510 259 510 c 0,17,18
 358 510 358 510 407 453.5 c 128,-1,19
 456 397 456 397 456 273 c 1,20,-1
 454 225 l 1,21,-1
 114 225 l 1,22,23
 114 133 114 133 145.5 88.5 c 128,-1,24
 177 44 177 44 253 44 c 0,25,26
 330 44 330 44 406 50 c 1,27,-1
 436 53 l 1,28,-1
 438 4 l 1,29,30
 428 3 428 3 416 1 c 1,31,32
 341 -75 341 -75 341 -107 c 0,0,1
114 275 m 1,33,-1
 396 275 l 1,34,35
 396 374 396 374 363.5 416 c 128,-1,36
 331 458 331 458 259.5 458 c 128,-1,37
 188 458 188 458 151 414.5 c 128,-1,38
 114 371 114 371 114 275 c 1,33,-1
EndSplineSet
EndChar

StartChar: Ecaron
Encoding: 282 282 219
Width: 552
GlyphClass: 2
Flags: W
LayerCount: 2
Fore
SplineSet
87 0 m 1,0,-1
 87 695 l 1,1,-1
 504 695 l 1,2,-1
 504 639 l 1,3,-1
 149 639 l 1,4,-1
 149 381 l 1,5,-1
 444 381 l 1,6,-1
 444 326 l 1,7,-1
 149 326 l 1,8,-1
 149 55 l 1,9,-1
 504 55 l 1,10,-1
 504 0 l 1,11,-1
 87 0 l 1,0,-1
267 798 m 1,12,-1
 133 929 l 1,13,-1
 202 929 l 1,14,-1
 293 843 l 1,15,-1
 383 929 l 1,16,-1
 453 929 l 1,17,-1
 319 798 l 1,18,-1
 267 798 l 1,12,-1
EndSplineSet
Position2: "'cpsp' Capital Spacing in Latin lookup 0 subtable" dx=5 dy=0 dh=10 dv=0
EndChar

StartChar: ecaron
Encoding: 283 283 220
Width: 504
GlyphClass: 2
Flags: W
LayerCount: 2
Fore
SplineSet
406 50 m 1,0,-1
 436 53 l 1,1,-1
 438 4 l 1,2,3
 325 -10 325 -10 247 -10 c 0,4,5
 139 -9 139 -9 96 54 c 128,-1,6
 53 117 53 117 53 248 c 0,7,8
 53 510 53 510 259 510 c 0,9,10
 358 510 358 510 407 453.5 c 128,-1,11
 456 397 456 397 456 273 c 1,12,-1
 454 225 l 1,13,-1
 114 225 l 1,14,15
 114 133 114 133 145.5 88.5 c 128,-1,16
 177 44 177 44 253.5 44 c 128,-1,17
 330 44 330 44 406 50 c 1,0,-1
114 275 m 1,18,-1
 396 275 l 1,19,20
 396 374 396 374 363.5 416 c 128,-1,21
 331 458 331 458 259.5 458 c 128,-1,22
 188 458 188 458 151 414.5 c 128,-1,23
 114 371 114 371 114 275 c 1,18,-1
230 595 m 1,24,-1
 108 732 l 1,25,-1
 170 732 l 1,26,-1
 252 641 l 1,27,-1
 333 732 l 1,28,-1
 395 732 l 1,29,-1
 272 595 l 1,30,-1
 230 595 l 1,24,-1
EndSplineSet
EndChar

StartChar: Gcircumflex
Encoding: 284 284 221
Width: 617
GlyphClass: 2
Flags: W
LayerCount: 2
Fore
SplineSet
360 299 m 1,0,-1
 360 354 l 1,1,-1
 549 354 l 1,2,-1
 549 18 l 1,3,4
 520 12 520 12 447 2.5 c 128,-1,5
 374 -7 374 -7 326 -7 c 0,6,7
 176 -7 176 -7 118 81 c 128,-1,8
 60 169 60 169 60 348 c 0,9,10
 60 437 60 437 72 500 c 128,-1,11
 84 563 84 563 114 612 c 0,12,13
 171 708 171 708 325 708 c 0,14,15
 419 708 419 708 516 688 c 1,16,-1
 549 682 l 1,17,-1
 546 629 l 1,18,19
 421 652 421 652 330 652 c 0,20,21
 209 652 209 652 166.5 579.5 c 128,-1,22
 124 507 124 507 124 349 c 128,-1,23
 124 191 124 191 166.5 120 c 128,-1,24
 209 49 209 49 329 49 c 0,25,26
 400 49 400 49 488 65 c 1,27,-1
 488 299 l 1,28,-1
 360 299 l 1,0,-1
160 794 m 1,29,-1
 294 925 l 1,30,-1
 346 925 l 1,31,-1
 480 794 l 1,32,-1
 411 794 l 1,33,-1
 321 880 l 1,34,-1
 230 794 l 1,35,-1
 160 794 l 1,29,-1
EndSplineSet
Position2: "'cpsp' Capital Spacing in Latin lookup 0 subtable" dx=5 dy=0 dh=10 dv=0
EndChar

StartChar: gcircumflex
Encoding: 285 285 222
Width: 509
GlyphClass: 2
Flags: W
LayerCount: 2
Fore
SplineSet
425.5 -199 m 128,-1,1
 371 -237 371 -237 256 -237 c 128,-1,2
 141 -237 141 -237 97 -204 c 128,-1,3
 53 -171 53 -171 53 -83 c 0,4,5
 53 -41 53 -41 71 -15.5 c 128,-1,6
 89 10 89 10 134 43 c 1,7,8
 109 59 109 59 109 111 c 0,9,10
 109 127 109 127 133 174 c 2,11,-1
 141 189 l 1,12,13
 59 223 59 223 59 340 c 0,14,15
 59 510 59 510 240 510 c 0,16,17
 291 510 291 510 330 500 c 1,18,-1
 345 497 l 1,19,-1
 490 500 l 1,20,-1
 490 447 l 1,21,-1
 390 449 l 1,22,23
 426 413 426 413 426 330.5 c 128,-1,24
 426 248 426 248 380.5 210.5 c 128,-1,25
 335 173 335 173 237 173 c 0,26,27
 208 173 208 173 186 177 c 1,28,29
 166 128 166 128 166 115 c 0,30,31
 166 82 166 82 185.5 74.5 c 128,-1,32
 205 67 205 67 302 66.5 c 128,-1,33
 399 66 399 66 439.5 37.5 c 128,-1,34
 480 9 480 9 480 -76 c 128,-1,0
 480 -161 480 -161 425.5 -199 c 128,-1,1
113 -79 m 0,35,36
 113 -139 113 -139 143 -162 c 128,-1,37
 173 -185 173 -185 259 -185 c 128,-1,38
 345 -185 345 -185 382 -160.5 c 128,-1,39
 419 -136 419 -136 419 -78.5 c 128,-1,40
 419 -21 419 -21 392 -4 c 128,-1,41
 365 13 365 13 289 13 c 1,42,-1
 176 17 l 1,43,44
 139 -9 139 -9 126 -28.5 c 128,-1,45
 113 -48 113 -48 113 -79 c 0,35,36
148 249.5 m 128,-1,47
 176 223 176 223 242.5 223 c 128,-1,48
 309 223 309 223 337 249 c 128,-1,49
 365 275 365 275 365 340.5 c 128,-1,50
 365 406 365 406 337 433 c 128,-1,51
 309 460 309 460 242.5 460 c 128,-1,52
 176 460 176 460 148 432.5 c 128,-1,53
 120 405 120 405 120 340.5 c 128,-1,46
 120 276 120 276 148 249.5 c 128,-1,47
116 595 m 1,54,-1
 238 732 l 1,55,-1
 280 732 l 1,56,-1
 403 595 l 1,57,-1
 340 595 l 1,58,-1
 260 687 l 1,59,-1
 179 595 l 1,60,-1
 116 595 l 1,54,-1
EndSplineSet
EndChar

StartChar: Gbreve
Encoding: 286 286 223
Width: 617
GlyphClass: 2
Flags: W
LayerCount: 2
Fore
SplineSet
360 296 m 1,0,-1
 360 351 l 1,1,-1
 549 351 l 1,2,-1
 549 15 l 1,3,4
 520 9 520 9 447 -0.5 c 128,-1,5
 374 -10 374 -10 326 -10 c 0,6,7
 176 -10 176 -10 118 78 c 128,-1,8
 60 166 60 166 60 345 c 0,9,10
 60 434 60 434 72 497 c 128,-1,11
 84 560 84 560 114 609 c 0,12,13
 171 705 171 705 325 705 c 0,14,15
 419 705 419 705 516 686 c 1,16,-1
 549 679 l 1,17,-1
 546 626 l 1,18,19
 421 649 421 649 330 649 c 0,20,21
 209 649 209 649 166.5 576.5 c 128,-1,22
 124 504 124 504 124 346 c 128,-1,23
 124 188 124 188 166.5 117 c 128,-1,24
 209 46 209 46 329 46 c 0,25,26
 400 46 400 46 488 62 c 1,27,-1
 488 296 l 1,28,-1
 360 296 l 1,0,-1
330 841 m 128,-1,30
 369 841 369 841 396 862.5 c 128,-1,31
 423 884 423 884 424 920 c 1,32,-1
 480 920 l 1,33,34
 479 863 479 863 437 828 c 128,-1,35
 395 793 395 793 330 793 c 128,-1,36
 265 793 265 793 223.5 828 c 128,-1,37
 182 863 182 863 180 920 c 1,38,-1
 237 920 l 1,39,40
 238 884 238 884 264.5 862.5 c 128,-1,29
 291 841 291 841 330 841 c 128,-1,30
EndSplineSet
Position2: "'cpsp' Capital Spacing in Latin lookup 0 subtable" dx=5 dy=0 dh=10 dv=0
EndChar

StartChar: gbreve
Encoding: 287 287 224
Width: 509
GlyphClass: 2
Flags: W
LayerCount: 2
Fore
SplineSet
425.5 -199 m 128,-1,1
 371 -237 371 -237 256 -237 c 128,-1,2
 141 -237 141 -237 97 -204 c 128,-1,3
 53 -171 53 -171 53 -83 c 0,4,5
 53 -41 53 -41 71 -15.5 c 128,-1,6
 89 10 89 10 134 43 c 1,7,8
 109 59 109 59 109 111 c 0,9,10
 109 127 109 127 133 174 c 2,11,-1
 141 189 l 1,12,13
 59 223 59 223 59 340 c 0,14,15
 59 510 59 510 240 510 c 0,16,17
 291 510 291 510 330 500 c 1,18,-1
 345 497 l 1,19,-1
 490 500 l 1,20,-1
 490 447 l 1,21,-1
 390 449 l 1,22,23
 426 413 426 413 426 330.5 c 128,-1,24
 426 248 426 248 380.5 210.5 c 128,-1,25
 335 173 335 173 237 173 c 0,26,27
 208 173 208 173 186 177 c 1,28,29
 166 128 166 128 166 115 c 0,30,31
 166 82 166 82 185.5 74.5 c 128,-1,32
 205 67 205 67 302 66.5 c 128,-1,33
 399 66 399 66 439.5 37.5 c 128,-1,34
 480 9 480 9 480 -76 c 128,-1,0
 480 -161 480 -161 425.5 -199 c 128,-1,1
113 -79 m 0,35,36
 113 -139 113 -139 143 -162 c 128,-1,37
 173 -185 173 -185 259 -185 c 128,-1,38
 345 -185 345 -185 382 -160.5 c 128,-1,39
 419 -136 419 -136 419 -78.5 c 128,-1,40
 419 -21 419 -21 392 -4 c 128,-1,41
 365 13 365 13 289 13 c 1,42,-1
 176 17 l 1,43,44
 139 -9 139 -9 126 -28.5 c 128,-1,45
 113 -48 113 -48 113 -79 c 0,35,36
148 249.5 m 128,-1,47
 176 223 176 223 242.5 223 c 128,-1,48
 309 223 309 223 337 249 c 128,-1,49
 365 275 365 275 365 340.5 c 128,-1,50
 365 406 365 406 337 433 c 128,-1,51
 309 460 309 460 242.5 460 c 128,-1,52
 176 460 176 460 148 432.5 c 128,-1,53
 120 405 120 405 120 340.5 c 128,-1,46
 120 276 120 276 148 249.5 c 128,-1,47
259 636 m 128,-1,55
 302 636 302 636 326.5 661 c 128,-1,56
 351 686 351 686 352 725 c 1,57,-1
 404 725 l 1,58,59
 402 666 402 666 362.5 627.5 c 128,-1,60
 323 589 323 589 259 589 c 128,-1,61
 195 589 195 589 156 627.5 c 128,-1,62
 117 666 117 666 115 725 c 1,63,-1
 166 725 l 1,64,65
 167 685 167 685 191.5 660.5 c 128,-1,54
 216 636 216 636 259 636 c 128,-1,55
EndSplineSet
EndChar

StartChar: Gdotaccent
Encoding: 288 288 225
Width: 617
GlyphClass: 2
Flags: W
LayerCount: 2
Fore
SplineSet
360 296 m 1,0,-1
 360 351 l 1,1,-1
 549 351 l 1,2,-1
 549 15 l 1,3,4
 520 9 520 9 447 -0.5 c 128,-1,5
 374 -10 374 -10 326 -10 c 0,6,7
 176 -10 176 -10 118 78 c 128,-1,8
 60 166 60 166 60 345 c 0,9,10
 60 434 60 434 72 497 c 128,-1,11
 84 560 84 560 114 609 c 0,12,13
 171 705 171 705 325 705 c 0,14,15
 419 705 419 705 516 686 c 1,16,-1
 549 679 l 1,17,-1
 546 626 l 1,18,19
 421 649 421 649 330 649 c 0,20,21
 209 649 209 649 166.5 576.5 c 128,-1,22
 124 504 124 504 124 346 c 128,-1,23
 124 188 124 188 166.5 117 c 128,-1,24
 209 46 209 46 329 46 c 0,25,26
 400 46 400 46 488 62 c 1,27,-1
 488 296 l 1,28,-1
 360 296 l 1,0,-1
283 809 m 1,29,-1
 283 884 l 1,30,-1
 343 884 l 1,31,-1
 343 809 l 1,32,-1
 283 809 l 1,29,-1
EndSplineSet
Position2: "'cpsp' Capital Spacing in Latin lookup 0 subtable" dx=5 dy=0 dh=10 dv=0
EndChar

StartChar: gdotaccent
Encoding: 289 289 226
Width: 509
GlyphClass: 2
Flags: W
LayerCount: 2
Fore
SplineSet
425.5 -199 m 128,-1,1
 371 -237 371 -237 256 -237 c 128,-1,2
 141 -237 141 -237 97 -204 c 128,-1,3
 53 -171 53 -171 53 -83 c 0,4,5
 53 -41 53 -41 71 -15.5 c 128,-1,6
 89 10 89 10 134 43 c 1,7,8
 109 59 109 59 109 111 c 0,9,10
 109 127 109 127 133 174 c 2,11,-1
 141 189 l 1,12,13
 59 223 59 223 59 340 c 0,14,15
 59 510 59 510 240 510 c 0,16,17
 291 510 291 510 330 500 c 1,18,-1
 345 497 l 1,19,-1
 490 500 l 1,20,-1
 490 447 l 1,21,-1
 390 449 l 1,22,23
 426 413 426 413 426 330.5 c 128,-1,24
 426 248 426 248 380.5 210.5 c 128,-1,25
 335 173 335 173 237 173 c 0,26,27
 208 173 208 173 186 177 c 1,28,29
 166 128 166 128 166 115 c 0,30,31
 166 82 166 82 185.5 74.5 c 128,-1,32
 205 67 205 67 302 66.5 c 128,-1,33
 399 66 399 66 439.5 37.5 c 128,-1,34
 480 9 480 9 480 -76 c 128,-1,0
 480 -161 480 -161 425.5 -199 c 128,-1,1
113 -79 m 0,35,36
 113 -139 113 -139 143 -162 c 128,-1,37
 173 -185 173 -185 259 -185 c 128,-1,38
 345 -185 345 -185 382 -160.5 c 128,-1,39
 419 -136 419 -136 419 -78.5 c 128,-1,40
 419 -21 419 -21 392 -4 c 128,-1,41
 365 13 365 13 289 13 c 1,42,-1
 176 17 l 1,43,44
 139 -9 139 -9 126 -28.5 c 128,-1,45
 113 -48 113 -48 113 -79 c 0,35,36
148 249.5 m 128,-1,47
 176 223 176 223 242.5 223 c 128,-1,48
 309 223 309 223 337 249 c 128,-1,49
 365 275 365 275 365 340.5 c 128,-1,50
 365 406 365 406 337 433 c 128,-1,51
 309 460 309 460 242.5 460 c 128,-1,52
 176 460 176 460 148 432.5 c 128,-1,53
 120 405 120 405 120 340.5 c 128,-1,46
 120 276 120 276 148 249.5 c 128,-1,47
228 623 m 1,54,-1
 228 698 l 1,55,-1
 288 698 l 1,56,-1
 288 623 l 1,57,-1
 228 623 l 1,54,-1
EndSplineSet
EndChar

StartChar: Gcommaaccent
Encoding: 290 290 227
Width: 617
GlyphClass: 2
Flags: W
LayerCount: 2
Fore
SplineSet
360 296 m 1,0,-1
 360 351 l 1,1,-1
 549 351 l 1,2,-1
 549 15 l 1,3,4
 520 9 520 9 447 -0.5 c 128,-1,5
 374 -10 374 -10 326 -10 c 0,6,7
 176 -10 176 -10 118 78 c 128,-1,8
 60 166 60 166 60 345 c 0,9,10
 60 434 60 434 72 497 c 128,-1,11
 84 560 84 560 114 609 c 0,12,13
 171 705 171 705 325 705 c 0,14,15
 419 705 419 705 516 686 c 1,16,-1
 549 679 l 1,17,-1
 546 626 l 1,18,19
 421 649 421 649 330 649 c 0,20,21
 209 649 209 649 166.5 576.5 c 128,-1,22
 124 504 124 504 124 346 c 128,-1,23
 124 188 124 188 166.5 117 c 128,-1,24
 209 46 209 46 329 46 c 0,25,26
 400 46 400 46 488 62 c 1,27,-1
 488 296 l 1,28,-1
 360 296 l 1,0,-1
309 -78 m 1,29,-1
 370 -78 l 1,30,-1
 321 -278 l 1,31,-1
 270 -278 l 1,32,-1
 309 -78 l 1,29,-1
EndSplineSet
Position2: "'cpsp' Capital Spacing in Latin lookup 0 subtable" dx=5 dy=0 dh=10 dv=0
EndChar

StartChar: gcommaaccent
Encoding: 291 291 228
Width: 509
GlyphClass: 2
Flags: W
LayerCount: 2
Fore
SplineSet
297 791 m 1,0,-1
 258 590 l 1,1,-1
 198 590 l 1,2,-1
 246 791 l 1,3,-1
 297 791 l 1,0,-1
425.5 -199 m 128,-1,5
 371 -237 371 -237 256 -237 c 128,-1,6
 141 -237 141 -237 97 -204 c 128,-1,7
 53 -171 53 -171 53 -83 c 0,8,9
 53 -41 53 -41 71 -15.5 c 128,-1,10
 89 10 89 10 134 43 c 1,11,12
 109 59 109 59 109 111 c 0,13,14
 109 127 109 127 133 174 c 2,15,-1
 141 189 l 1,16,17
 59 223 59 223 59 340 c 0,18,19
 59 510 59 510 240 510 c 0,20,21
 291 510 291 510 330 500 c 1,22,-1
 345 497 l 1,23,-1
 490 500 l 1,24,-1
 490 447 l 1,25,-1
 390 449 l 1,26,27
 426 413 426 413 426 330.5 c 128,-1,28
 426 248 426 248 380.5 210.5 c 128,-1,29
 335 173 335 173 237 173 c 0,30,31
 208 173 208 173 186 177 c 1,32,33
 166 128 166 128 166 115 c 0,34,35
 166 82 166 82 185.5 74.5 c 128,-1,36
 205 67 205 67 302 66.5 c 128,-1,37
 399 66 399 66 439.5 37.5 c 128,-1,38
 480 9 480 9 480 -76 c 128,-1,4
 480 -161 480 -161 425.5 -199 c 128,-1,5
113 -79 m 0,39,40
 113 -139 113 -139 143 -162 c 128,-1,41
 173 -185 173 -185 259 -185 c 128,-1,42
 345 -185 345 -185 382 -160.5 c 128,-1,43
 419 -136 419 -136 419 -78.5 c 128,-1,44
 419 -21 419 -21 392 -4 c 128,-1,45
 365 13 365 13 289 13 c 1,46,-1
 176 17 l 1,47,48
 139 -9 139 -9 126 -28.5 c 128,-1,49
 113 -48 113 -48 113 -79 c 0,39,40
148 249.5 m 128,-1,51
 176 223 176 223 242.5 223 c 128,-1,52
 309 223 309 223 337 249 c 128,-1,53
 365 275 365 275 365 340.5 c 128,-1,54
 365 406 365 406 337 433 c 128,-1,55
 309 460 309 460 242.5 460 c 128,-1,56
 176 460 176 460 148 432.5 c 128,-1,57
 120 405 120 405 120 340.5 c 128,-1,50
 120 276 120 276 148 249.5 c 128,-1,51
EndSplineSet
EndChar

StartChar: Hcircumflex
Encoding: 292 292 229
Width: 675
GlyphClass: 2
Flags: W
LayerCount: 2
Fore
SplineSet
526 0 m 1,0,-1
 526 321 l 1,1,-1
 149 321 l 1,2,-1
 149 0 l 1,3,-1
 87 0 l 1,4,-1
 87 695 l 1,5,-1
 149 695 l 1,6,-1
 149 376 l 1,7,-1
 526 376 l 1,8,-1
 526 695 l 1,9,-1
 587 695 l 1,10,-1
 587 0 l 1,11,-1
 526 0 l 1,0,-1
178 798 m 1,12,-1
 312 929 l 1,13,-1
 364 929 l 1,14,-1
 498 798 l 1,15,-1
 429 798 l 1,16,-1
 339 884 l 1,17,-1
 248 798 l 1,18,-1
 178 798 l 1,12,-1
EndSplineSet
Position2: "'cpsp' Capital Spacing in Latin lookup 0 subtable" dx=5 dy=0 dh=10 dv=0
EndChar

StartChar: hcircumflex
Encoding: 293 293 230
Width: 533
GlyphClass: 2
Flags: W
LayerCount: 2
Fore
SplineSet
134 0 m 1,0,-1
 75 0 l 1,1,-1
 75 722 l 1,2,-1
 134 722 l 1,3,-1
 134 471 l 1,4,5
 218 510 218 510 296 510 c 0,6,7
 396 510 396 510 429.5 457 c 128,-1,8
 463 404 463 404 463 263 c 2,9,-1
 463 0 l 1,10,-1
 403 0 l 1,11,-1
 403 260 l 2,12,13
 403 375 403 375 381.5 415.5 c 128,-1,14
 360 456 360 456 288 456 c 0,15,16
 253 456 253 456 214.5 447.5 c 128,-1,17
 176 439 176 439 155 430 c 2,18,-1
 134 422 l 1,19,-1
 134 0 l 1,0,-1
121 780 m 1,20,-1
 243 917 l 1,21,-1
 285 917 l 1,22,-1
 408 780 l 1,23,-1
 345 780 l 1,24,-1
 265 872 l 1,25,-1
 184 780 l 1,26,-1
 121 780 l 1,20,-1
EndSplineSet
EndChar

StartChar: Hbar
Encoding: 294 294 231
Width: 686
GlyphClass: 2
Flags: W
LayerCount: 2
Fore
SplineSet
14 513 m 1,0,-1
 14 566 l 1,1,-1
 91 566 l 1,2,-1
 91 695 l 1,3,-1
 153 695 l 1,4,-1
 153 566 l 1,5,-1
 530 566 l 1,6,-1
 530 695 l 1,7,-1
 591 695 l 1,8,-1
 591 566 l 1,9,-1
 677 566 l 1,10,-1
 677 513 l 1,11,-1
 591 513 l 1,12,-1
 591 0 l 1,13,-1
 530 0 l 1,14,-1
 530 321 l 1,15,-1
 153 321 l 1,16,-1
 153 0 l 1,17,-1
 91 0 l 1,18,-1
 91 513 l 1,19,-1
 14 513 l 1,0,-1
153 376 m 1,20,-1
 530 376 l 1,21,-1
 530 513 l 1,22,-1
 153 513 l 1,23,-1
 153 376 l 1,20,-1
EndSplineSet
Position2: "'cpsp' Capital Spacing in Latin lookup 0 subtable" dx=5 dy=0 dh=10 dv=0
EndChar

StartChar: hbar
Encoding: 295 295 232
Width: 533
GlyphClass: 2
Flags: W
LayerCount: 2
Fore
SplineSet
9 592 m 1,0,-1
 9 645 l 1,1,-1
 75 645 l 1,2,-1
 75 722 l 1,3,-1
 134 722 l 1,4,-1
 134 645 l 1,5,-1
 291 645 l 1,6,-1
 291 592 l 1,7,-1
 134 592 l 1,8,-1
 134 471 l 1,9,10
 218 510 218 510 296 510 c 0,11,12
 396 510 396 510 429.5 457 c 128,-1,13
 463 404 463 404 463 263 c 2,14,-1
 463 0 l 1,15,-1
 403 0 l 1,16,-1
 403 260 l 2,17,18
 403 375 403 375 381.5 415.5 c 128,-1,19
 360 456 360 456 288 456 c 0,20,21
 253 456 253 456 214.5 447.5 c 128,-1,22
 176 439 176 439 155 430 c 2,23,-1
 134 422 l 1,24,-1
 134 0 l 1,25,-1
 75 0 l 1,26,-1
 75 592 l 1,27,-1
 9 592 l 1,0,-1
EndSplineSet
EndChar

StartChar: Itilde
Encoding: 296 296 233
Width: 236
GlyphClass: 2
Flags: W
LayerCount: 2
Fore
SplineSet
87 0 m 1,0,-1
 87 695 l 1,1,-1
 149 695 l 1,2,-1
 149 0 l 1,3,-1
 87 0 l 1,0,-1
192 814 m 0,4,5
 172 814 172 814 110.5 842.5 c 128,-1,6
 49 871 49 871 36 871 c 0,7,8
 14 871 14 871 -24 834 c 1,9,-1
 -36 821 l 1,10,-1
 -51 867 l 1,11,12
 -4 923 -4 923 34 923 c 0,13,14
 60 923 60 923 121 895.5 c 128,-1,15
 182 868 182 868 193 868 c 0,16,17
 212 868 212 868 248 902 c 1,18,-1
 260 914 l 1,19,-1
 275 869 l 1,20,21
 229 814 229 814 192 814 c 0,4,5
EndSplineSet
Position2: "'cpsp' Capital Spacing in Latin lookup 0 subtable" dx=5 dy=0 dh=10 dv=0
EndChar

StartChar: itilde
Encoding: 297 297 234
Width: 209
GlyphClass: 2
Flags: W
LayerCount: 2
Fore
SplineSet
75 500 m 1,0,-1
 134 500 l 1,1,-1
 134 0 l 1,2,-1
 75 0 l 1,3,-1
 75 500 l 1,0,-1
179 619 m 0,4,5
 158 619 158 619 105 643.5 c 128,-1,6
 52 668 52 668 40 668 c 0,7,8
 16 668 16 668 -22 638 c 1,9,-1
 -35 627 l 1,10,-1
 -50 667 l 1,11,12
 0 717 0 717 38 717 c 0,13,14
 59 717 59 717 112.5 693 c 128,-1,15
 166 669 166 669 178 669 c 0,16,17
 199 669 199 669 234 698 c 2,18,-1
 246 708 l 1,19,-1
 260 666 l 1,20,21
 215 619 215 619 179 619 c 0,4,5
EndSplineSet
EndChar

StartChar: Imacron
Encoding: 298 298 235
Width: 236
GlyphClass: 2
Flags: W
LayerCount: 2
Fore
SplineSet
87 0 m 1,0,-1
 87 695 l 1,1,-1
 149 695 l 1,2,-1
 149 0 l 1,3,-1
 87 0 l 1,0,-1
-31 819 m 1,4,-1
 -31 868 l 1,5,-1
 271 868 l 1,6,-1
 271 819 l 1,7,-1
 -31 819 l 1,4,-1
EndSplineSet
Position2: "'cpsp' Capital Spacing in Latin lookup 0 subtable" dx=5 dy=0 dh=10 dv=0
EndChar

StartChar: imacron
Encoding: 299 299 236
Width: 209
GlyphClass: 2
Flags: W
LayerCount: 2
Fore
SplineSet
75 500 m 1,0,-1
 134 500 l 1,1,-1
 134 0 l 1,2,-1
 75 0 l 1,3,-1
 75 500 l 1,0,-1
-31 631 m 1,4,-1
 -31 680 l 1,5,-1
 241 680 l 1,6,-1
 241 631 l 1,7,-1
 -31 631 l 1,4,-1
EndSplineSet
EndChar

StartChar: Ibreve
Encoding: 300 300 237
Width: 236
GlyphClass: 2
Flags: W
LayerCount: 2
Fore
SplineSet
87 0 m 1,0,-1
 87 695 l 1,1,-1
 149 695 l 1,2,-1
 149 0 l 1,3,-1
 87 0 l 1,0,-1
124 841 m 128,-1,5
 163 841 163 841 190 862.5 c 128,-1,6
 217 884 217 884 218 920 c 1,7,-1
 274 920 l 1,8,9
 273 863 273 863 231 828 c 128,-1,10
 189 793 189 793 124 793 c 128,-1,11
 59 793 59 793 17.5 828 c 128,-1,12
 -24 863 -24 863 -26 920 c 1,13,-1
 31 920 l 1,14,15
 32 884 32 884 58.5 862.5 c 128,-1,4
 85 841 85 841 124 841 c 128,-1,5
EndSplineSet
Position2: "'cpsp' Capital Spacing in Latin lookup 0 subtable" dx=5 dy=0 dh=10 dv=0
EndChar

StartChar: ibreve
Encoding: 301 301 238
Width: 209
GlyphClass: 2
Flags: W
LayerCount: 2
Fore
SplineSet
75 500 m 1,0,-1
 134 500 l 1,1,-1
 134 0 l 1,2,-1
 75 0 l 1,3,-1
 75 500 l 1,0,-1
105 636 m 128,-1,5
 148 636 148 636 172.5 661 c 128,-1,6
 197 686 197 686 198 725 c 1,7,-1
 250 725 l 1,8,9
 248 666 248 666 208.5 627.5 c 128,-1,10
 169 589 169 589 105 589 c 128,-1,11
 41 589 41 589 2 627.5 c 128,-1,12
 -37 666 -37 666 -39 725 c 1,13,-1
 12 725 l 1,14,15
 13 685 13 685 37.5 660.5 c 128,-1,4
 62 636 62 636 105 636 c 128,-1,5
EndSplineSet
EndChar

StartChar: Iogonek
Encoding: 302 302 239
Width: 236
GlyphClass: 2
Flags: W
LayerCount: 2
Fore
SplineSet
87 0 m 1,0,-1
 87 695 l 1,1,-1
 149 695 l 1,2,-1
 149 0 l 1,3,4
 71 -75 71 -75 71 -107 c 0,5,6
 71 -127 71 -127 83.5 -140 c 128,-1,7
 96 -153 96 -153 115 -153 c 1,8,-1
 167 -147 l 1,9,-1
 173 -195 l 1,10,11
 131 -204 131 -204 96.5 -204 c 128,-1,12
 62 -204 62 -204 37 -181 c 128,-1,13
 12 -158 12 -158 12 -119 c 0,14,15
 12 -69 12 -69 88 0 c 1,16,-1
 87 0 l 1,0,-1
EndSplineSet
Position2: "'cpsp' Capital Spacing in Latin lookup 0 subtable" dx=5 dy=0 dh=10 dv=0
EndChar

StartChar: iogonek
Encoding: 303 303 240
Width: 209
GlyphClass: 2
Flags: W
LayerCount: 2
Fore
SplineSet
75 0 m 1,0,-1
 75 500 l 1,1,-1
 134 500 l 1,2,-1
 134 0 l 1,3,4
 57 -74 57 -74 57 -107 c 0,5,6
 57 -127 57 -127 69 -140 c 128,-1,7
 81 -153 81 -153 100 -153 c 1,8,-1
 153 -147 l 1,9,-1
 159 -195 l 1,10,11
 117 -204 117 -204 82 -204 c 128,-1,12
 47 -204 47 -204 22.5 -181 c 128,-1,13
 -2 -158 -2 -158 -2 -124 c 128,-1,14
 -2 -90 -2 -90 24 -56.5 c 128,-1,15
 50 -23 50 -23 76 0 c 1,16,-1
 75 0 l 1,0,-1
75 625 m 1,17,-1
 75 700 l 1,18,-1
 134 700 l 1,19,-1
 134 625 l 1,20,-1
 75 625 l 1,17,-1
EndSplineSet
EndChar

StartChar: Idotaccent
Encoding: 304 304 241
Width: 236
GlyphClass: 2
Flags: W
LayerCount: 2
Fore
SplineSet
87 0 m 1,0,-1
 87 695 l 1,1,-1
 149 695 l 1,2,-1
 149 0 l 1,3,-1
 87 0 l 1,0,-1
88 809 m 1,4,-1
 88 884 l 1,5,-1
 148 884 l 1,6,-1
 148 809 l 1,7,-1
 88 809 l 1,4,-1
EndSplineSet
Position2: "'cpsp' Capital Spacing in Latin lookup 0 subtable" dx=5 dy=0 dh=10 dv=0
EndChar

StartChar: dotlessi
Encoding: 305 305 242
Width: 209
GlyphClass: 2
Flags: W
LayerCount: 2
Fore
SplineSet
75 0 m 1,0,-1
 75 500 l 1,1,-1
 134 500 l 1,2,-1
 134 0 l 1,3,-1
 75 0 l 1,0,-1
EndSplineSet
EndChar

StartChar: Jcircumflex
Encoding: 308 308 243
Width: 285
GlyphClass: 2
Flags: W
LayerCount: 2
Fore
SplineSet
201 695 m 1,0,-1
 201 89 l 2,1,2
 201 33 201 33 191.5 0.5 c 128,-1,3
 182 -32 182 -32 156.5 -48 c 128,-1,4
 131 -64 131 -64 102 -68 c 128,-1,5
 73 -72 73 -72 18 -72 c 1,6,-1
 18 -17 l 1,7,8
 61 -17 61 -17 80 -14.5 c 128,-1,9
 99 -12 99 -12 115.5 0 c 128,-1,10
 132 12 132 12 136 35 c 128,-1,11
 140 58 140 58 140 102 c 2,12,-1
 140 695 l 1,13,-1
 201 695 l 1,0,-1
9 794 m 1,14,-1
 143 925 l 1,15,-1
 195 925 l 1,16,-1
 329 794 l 1,17,-1
 260 794 l 1,18,-1
 170 880 l 1,19,-1
 79 794 l 1,20,-1
 9 794 l 1,14,-1
EndSplineSet
Position2: "'cpsp' Capital Spacing in Latin lookup 0 subtable" dx=5 dy=0 dh=10 dv=0
EndChar

StartChar: jcircumflex
Encoding: 309 309 244
Width: 209
GlyphClass: 2
Flags: W
LayerCount: 2
Fore
SplineSet
75 10 m 2,0,-1
 75 500 l 1,1,-1
 135 500 l 1,2,-1
 135 9 l 2,3,4
 135 -79 135 -79 102.5 -125 c 128,-1,5
 70 -171 70 -171 -29 -221 c 1,6,-1
 -53 -173 l 1,7,8
 27 -128 27 -128 51 -94 c 128,-1,9
 75 -60 75 -60 75 10 c 2,0,-1
-41 595 m 1,10,-1
 81 732 l 1,11,-1
 123 732 l 1,12,-1
 246 595 l 1,13,-1
 183 595 l 1,14,-1
 103 687 l 1,15,-1
 22 595 l 1,16,-1
 -41 595 l 1,10,-1
EndSplineSet
EndChar

StartChar: Kcommaaccent
Encoding: 310 310 245
Width: 562
GlyphClass: 2
Flags: W
LayerCount: 2
Fore
SplineSet
149 0 m 1,0,-1
 87 0 l 1,1,-1
 87 697 l 1,2,-1
 149 697 l 1,3,-1
 149 371 l 1,4,-1
 268 373 l 1,5,-1
 461 697 l 1,6,-1
 533 697 l 1,7,-1
 323 348 l 1,8,-1
 546 0 l 1,9,-1
 472 0 l 1,10,-1
 270 314 l 1,11,-1
 149 312 l 1,12,-1
 149 0 l 1,0,-1
269 -78 m 1,13,-1
 329 -78 l 1,14,-1
 281 -278 l 1,15,-1
 230 -278 l 1,16,-1
 269 -78 l 1,13,-1
EndSplineSet
Position2: "'cpsp' Capital Spacing in Latin lookup 0 subtable" dx=5 dy=0 dh=10 dv=0
EndChar

StartChar: kcommaaccent
Encoding: 311 311 246
Width: 470
GlyphClass: 2
Flags: W
LayerCount: 2
Fore
SplineSet
127 -278 m 1,0,-1
 166 -78 l 1,1,-1
 227 -78 l 1,2,-1
 178 -278 l 1,3,-1
 127 -278 l 1,0,-1
134 0 m 1,4,-1
 75 0 l 1,5,-1
 75 722 l 1,6,-1
 134 722 l 1,7,-1
 134 292 l 1,8,-1
 219 294 l 1,9,-1
 373 500 l 1,10,-1
 442 500 l 1,11,-1
 271 271 l 1,12,-1
 450 0 l 1,13,-1
 380 0 l 1,14,-1
 220 241 l 1,15,-1
 134 239 l 1,16,-1
 134 0 l 1,4,-1
EndSplineSet
EndChar

StartChar: Lacute
Encoding: 313 313 247
Width: 480
GlyphClass: 2
Flags: W
LayerCount: 2
Fore
SplineSet
467 0 m 1,0,-1
 87 0 l 1,1,-1
 87 697 l 1,2,-1
 149 697 l 1,3,-1
 149 59 l 1,4,-1
 467 59 l 1,5,-1
 467 0 l 1,0,-1
140 829 m 1,6,-1
 347 928 l 1,7,-1
 369 874 l 1,8,-1
 160 786 l 1,9,-1
 140 829 l 1,6,-1
EndSplineSet
Position2: "'cpsp' Capital Spacing in Latin lookup 0 subtable" dx=5 dy=0 dh=10 dv=0
EndChar

StartChar: lacute
Encoding: 314 314 248
Width: 221
GlyphClass: 2
Flags: W
LayerCount: 2
Fore
SplineSet
81 0 m 1,0,-1
 81 722 l 1,1,-1
 140 722 l 1,2,-1
 140 0 l 1,3,-1
 81 0 l 1,0,-1
54 842 m 1,4,-1
 261 939 l 1,5,-1
 283 887 l 1,6,-1
 73 800 l 1,7,-1
 54 842 l 1,4,-1
EndSplineSet
EndChar

StartChar: Lcommaaccent
Encoding: 315 315 249
Width: 480
GlyphClass: 2
Flags: W
LayerCount: 2
Fore
SplineSet
250 -78 m 1,0,-1
 310 -78 l 1,1,-1
 262 -278 l 1,2,-1
 210 -278 l 1,3,-1
 250 -78 l 1,0,-1
467 0 m 1,4,-1
 87 0 l 1,5,-1
 87 695 l 1,6,-1
 149 695 l 1,7,-1
 149 56 l 1,8,-1
 467 56 l 1,9,-1
 467 0 l 1,4,-1
EndSplineSet
Position2: "'cpsp' Capital Spacing in Latin lookup 0 subtable" dx=5 dy=0 dh=10 dv=0
EndChar

StartChar: lcommaaccent
Encoding: 316 316 250
Width: 221
GlyphClass: 2
Flags: W
LayerCount: 2
Fore
SplineSet
81 0 m 1,0,-1
 81 722 l 1,1,-1
 140 722 l 1,2,-1
 140 0 l 1,3,-1
 81 0 l 1,0,-1
75 -78 m 1,4,-1
 136 -78 l 1,5,-1
 87 -278 l 1,6,-1
 36 -278 l 1,7,-1
 75 -78 l 1,4,-1
EndSplineSet
EndChar

StartChar: Lcaron
Encoding: 317 317 251
Width: 493
GlyphClass: 2
Flags: W
LayerCount: 2
Fore
SplineSet
433 697 m 1,0,-1
 433 470 l 1,1,-1
 375 470 l 1,2,-1
 375 697 l 1,3,-1
 433 697 l 1,0,-1
467 0 m 1,4,-1
 87 0 l 1,5,-1
 87 695 l 1,6,-1
 149 695 l 1,7,-1
 149 56 l 1,8,-1
 467 56 l 1,9,-1
 467 0 l 1,4,-1
EndSplineSet
Position2: "'cpsp' Capital Spacing in Latin lookup 0 subtable" dx=5 dy=0 dh=10 dv=0
EndChar

StartChar: lcaron
Encoding: 318 318 252
Width: 243
GlyphClass: 2
Flags: W
LayerCount: 2
Fore
SplineSet
243 685 m 1,0,-1
 303 685 l 1,1,-1
 255 484 l 1,2,-1
 204 484 l 1,3,-1
 243 685 l 1,0,-1
81 0 m 1,4,-1
 81 722 l 1,5,-1
 140 722 l 1,6,-1
 140 0 l 1,7,-1
 81 0 l 1,4,-1
EndSplineSet
EndChar

StartChar: Lslash
Encoding: 321 321 253
Width: 484
GlyphClass: 2
Flags: W
LayerCount: 2
Fore
SplineSet
471 0 m 1,0,-1
 91 0 l 1,1,-1
 91 285 l 1,2,-1
 31 243 l 1,3,-1
 1 285 l 1,4,-1
 91 348 l 1,5,-1
 91 695 l 1,6,-1
 153 695 l 1,7,-1
 153 391 l 1,8,-1
 306 499 l 1,9,-1
 336 457 l 1,10,-1
 153 328 l 1,11,-1
 153 56 l 1,12,-1
 471 56 l 1,13,-1
 471 0 l 1,0,-1
EndSplineSet
Position2: "'cpsp' Capital Spacing in Latin lookup 0 subtable" dx=5 dy=0 dh=10 dv=0
EndChar

StartChar: lslash
Encoding: 322 322 254
Width: 292
GlyphClass: 2
Flags: W
LayerCount: 2
Fore
SplineSet
113 0 m 1,0,-1
 113 294 l 1,1,-1
 42 244 l 1,2,-1
 11 287 l 1,3,-1
 113 358 l 1,4,-1
 113 722 l 1,5,-1
 173 722 l 1,6,-1
 173 400 l 1,7,-1
 249 454 l 1,8,-1
 280 411 l 1,9,-1
 173 336 l 1,10,-1
 173 0 l 1,11,-1
 113 0 l 1,0,-1
EndSplineSet
EndChar

StartChar: Nacute
Encoding: 323 323 255
Width: 672
GlyphClass: 2
Flags: W
LayerCount: 2
Fore
SplineSet
87 0 m 1,0,-1
 87 695 l 1,1,-1
 209 695 l 1,2,-1
 500 55 l 1,3,-1
 523 55 l 1,4,-1
 523 695 l 1,5,-1
 584 695 l 1,6,-1
 584 0 l 1,7,-1
 464 0 l 1,8,-1
 171 639 l 1,9,-1
 149 639 l 1,10,-1
 149 0 l 1,11,-1
 87 0 l 1,0,-1
224 829 m 1,12,-1
 431 928 l 1,13,-1
 453 874 l 1,14,-1
 244 786 l 1,15,-1
 224 829 l 1,12,-1
EndSplineSet
Position2: "'cpsp' Capital Spacing in Latin lookup 0 subtable" dx=5 dy=0 dh=10 dv=0
EndChar

StartChar: nacute
Encoding: 324 324 256
Width: 533
GlyphClass: 2
Flags: W
LayerCount: 2
Fore
SplineSet
75 0 m 1,0,-1
 75 500 l 1,1,-1
 134 500 l 1,2,-1
 134 463 l 1,3,-1
 157 474 l 2,4,5
 180 486 180 486 221 498 c 128,-1,6
 262 510 262 510 297 510 c 0,7,8
 397 510 397 510 430.5 457 c 128,-1,9
 464 404 464 404 464 263 c 2,10,11
 464 263 464 263 464 0 c 1,12,-1
 404 0 l 1,13,-1
 404 260 l 2,14,15
 404 375 404 375 382 415.5 c 128,-1,16
 360 456 360 456 285 456 c 128,-1,17
 210 456 210 456 134 414 c 1,18,-1
 134 0 l 1,19,-1
 75 0 l 1,0,-1
164 640 m 1,20,-1
 371 737 l 1,21,-1
 393 685 l 1,22,-1
 183 598 l 1,23,-1
 164 640 l 1,20,-1
EndSplineSet
EndChar

StartChar: Ncommaaccent
Encoding: 325 325 257
Width: 672
GlyphClass: 2
Flags: W
LayerCount: 2
Fore
SplineSet
330 -78 m 1,0,-1
 390 -78 l 1,1,-1
 342 -278 l 1,2,-1
 290 -278 l 1,3,-1
 330 -78 l 1,0,-1
87 0 m 1,4,-1
 87 695 l 1,5,-1
 209 695 l 1,6,-1
 500 55 l 1,7,-1
 523 55 l 1,8,-1
 523 695 l 1,9,-1
 584 695 l 1,10,-1
 584 0 l 1,11,-1
 464 0 l 1,12,-1
 171 639 l 1,13,-1
 149 639 l 1,14,-1
 149 0 l 1,15,-1
 87 0 l 1,4,-1
EndSplineSet
Position2: "'cpsp' Capital Spacing in Latin lookup 0 subtable" dx=5 dy=0 dh=10 dv=0
EndChar

StartChar: ncommaaccent
Encoding: 326 326 258
Width: 533
GlyphClass: 2
Flags: W
LayerCount: 2
Fore
SplineSet
162 -278 m 1,0,-1
 201 -78 l 1,1,-1
 261 -78 l 1,2,-1
 213 -278 l 1,3,-1
 162 -278 l 1,0,-1
134 0 m 1,4,-1
 75 0 l 1,5,-1
 75 500 l 1,6,-1
 134 500 l 1,7,-1
 134 463 l 1,8,9
 218 510 218 510 297 510 c 0,10,11
 397 510 397 510 430.5 457 c 128,-1,12
 464 404 464 404 464 263 c 2,13,-1
 464 0 l 1,14,-1
 404 0 l 1,15,-1
 404 260 l 2,16,17
 404 375 404 375 382 415.5 c 128,-1,18
 360 456 360 456 288 456 c 0,19,20
 253 456 253 456 214.5 445.5 c 128,-1,21
 176 435 176 435 155 424 c 2,22,-1
 134 414 l 1,23,-1
 134 0 l 1,4,-1
EndSplineSet
EndChar

StartChar: Ncaron
Encoding: 327 327 259
Width: 672
GlyphClass: 2
Flags: W
LayerCount: 2
Fore
SplineSet
87 0 m 1,0,-1
 87 695 l 1,1,-1
 209 695 l 1,2,-1
 500 55 l 1,3,-1
 523 55 l 1,4,-1
 523 695 l 1,5,-1
 584 695 l 1,6,-1
 584 0 l 1,7,-1
 464 0 l 1,8,-1
 171 639 l 1,9,-1
 149 639 l 1,10,-1
 149 0 l 1,11,-1
 87 0 l 1,0,-1
310 794 m 1,12,-1
 176 925 l 1,13,-1
 245 925 l 1,14,-1
 336 839 l 1,15,-1
 426 925 l 1,16,-1
 496 925 l 1,17,-1
 362 794 l 1,18,-1
 310 794 l 1,12,-1
EndSplineSet
Position2: "'cpsp' Capital Spacing in Latin lookup 0 subtable" dx=5 dy=0 dh=10 dv=0
EndChar

StartChar: ncaron
Encoding: 328 328 260
Width: 533
GlyphClass: 2
Flags: W
LayerCount: 2
Fore
SplineSet
134 0 m 1,0,-1
 75 0 l 1,1,-1
 75 500 l 1,2,-1
 134 500 l 1,3,-1
 134 463 l 1,4,5
 218 510 218 510 297 510 c 0,6,7
 397 510 397 510 430.5 457 c 128,-1,8
 464 404 464 404 464 263 c 2,9,-1
 464 0 l 1,10,-1
 404 0 l 1,11,-1
 404 260 l 2,12,13
 404 375 404 375 382 415.5 c 128,-1,14
 360 456 360 456 288 456 c 0,15,16
 253 456 253 456 214.5 445.5 c 128,-1,17
 176 435 176 435 155 424 c 2,18,-1
 134 414 l 1,19,-1
 134 0 l 1,0,-1
245 595 m 1,20,-1
 123 732 l 1,21,-1
 185 732 l 1,22,-1
 267 641 l 1,23,-1
 348 732 l 1,24,-1
 410 732 l 1,25,-1
 287 595 l 1,26,-1
 245 595 l 1,20,-1
EndSplineSet
EndChar

StartChar: Eng
Encoding: 330 330 261
Width: 672
GlyphClass: 2
Flags: W
LayerCount: 2
Fore
SplineSet
87 0 m 1,0,-1
 87 695 l 1,1,-1
 209 695 l 1,2,-1
 500 55 l 1,3,-1
 523 55 l 1,4,-1
 523 695 l 1,5,-1
 584 695 l 1,6,-1
 584 -22 l 2,7,8
 584 -78 584 -78 574.5 -110.5 c 128,-1,9
 565 -143 565 -143 539.5 -159 c 128,-1,10
 514 -175 514 -175 485 -179 c 128,-1,11
 456 -183 456 -183 401 -183 c 1,12,-1
 401 -128 l 1,13,14
 444 -128 444 -128 463 -125.5 c 128,-1,15
 482 -123 482 -123 498.5 -111 c 128,-1,16
 515 -99 515 -99 519 -76 c 128,-1,17
 523 -53 523 -53 523 -9 c 2,18,-1
 523 0 l 1,19,-1
 464 0 l 1,20,-1
 171 639 l 1,21,-1
 149 639 l 1,22,-1
 149 0 l 1,23,-1
 87 0 l 1,0,-1
EndSplineSet
Position2: "'cpsp' Capital Spacing in Latin lookup 0 subtable" dx=5 dy=0 dh=10 dv=0
EndChar

StartChar: eng
Encoding: 331 331 262
Width: 534
GlyphClass: 2
Flags: W
LayerCount: 2
Fore
SplineSet
134 0 m 1,0,-1
 74 0 l 1,1,-1
 74 500 l 1,2,-1
 134 500 l 1,3,-1
 134 464 l 1,4,5
 222 510 222 510 298 510 c 0,6,7
 396 510 396 510 430 454 c 128,-1,8
 464 398 464 398 464 260 c 2,9,-1
 464 -4 l 2,10,11
 464 -94 464 -94 434 -138 c 128,-1,12
 404 -182 404 -182 308 -235 c 1,13,-1
 283 -184 l 1,14,15
 359 -139 359 -139 382 -106 c 128,-1,16
 405 -73 405 -73 405 -5 c 2,17,-1
 405 259 l 2,18,19
 405 368 405 368 382.5 411.5 c 128,-1,20
 360 455 360 455 291 455 c 0,21,22
 258 455 258 455 218.5 444.5 c 128,-1,23
 179 434 179 434 156 424 c 1,24,-1
 134 413 l 1,25,-1
 134 0 l 1,0,-1
EndSplineSet
EndChar

StartChar: Omacron
Encoding: 332 332 263
Width: 662
GlyphClass: 2
Flags: W
LayerCount: 2
Fore
SplineSet
166 115.5 m 128,-1,1
 208 46 208 46 331.5 46 c 128,-1,2
 455 46 455 46 497 114 c 128,-1,3
 539 182 539 182 539 341.5 c 128,-1,4
 539 501 539 501 495 575 c 128,-1,5
 451 649 451 649 331 649 c 0,6,7
 207 649 207 649 164 569 c 0,8,9
 141 528 141 528 132.5 475 c 128,-1,10
 124 422 124 422 124 344 c 0,11,0
 124 185 124 185 166 115.5 c 128,-1,1
544.5 73 m 128,-1,13
 486 -10 486 -10 331.5 -10 c 128,-1,14
 177 -10 177 -10 118.5 75 c 128,-1,15
 60 160 60 160 60 343.5 c 128,-1,16
 60 527 60 527 119 616 c 128,-1,17
 178 705 178 705 331 705 c 128,-1,18
 484 705 484 705 543.5 616.5 c 128,-1,19
 603 528 603 528 603 342 c 128,-1,12
 603 156 603 156 544.5 73 c 128,-1,13
180 819 m 1,20,-1
 180 868 l 1,21,-1
 482 868 l 1,22,-1
 482 819 l 1,23,-1
 180 819 l 1,20,-1
EndSplineSet
Position2: "'cpsp' Capital Spacing in Latin lookup 0 subtable" dx=5 dy=0 dh=10 dv=0
EndChar

StartChar: omacron
Encoding: 333 333 264
Width: 527
GlyphClass: 2
Flags: W
LayerCount: 2
Fore
SplineSet
425.5 451 m 128,-1,1
 473 392 473 392 473 251 c 128,-1,2
 473 110 473 110 429.5 50 c 128,-1,3
 386 -10 386 -10 264 -10 c 128,-1,4
 142 -10 142 -10 98 50 c 128,-1,5
 54 110 54 110 54 251 c 128,-1,6
 54 392 54 392 101.5 451 c 128,-1,7
 149 510 149 510 263.5 510 c 128,-1,0
 378 510 378 510 425.5 451 c 128,-1,1
384 89 m 128,-1,9
 412 135 412 135 412 252.5 c 128,-1,10
 412 370 412 370 380.5 413.5 c 128,-1,11
 349 457 349 457 264 457 c 128,-1,12
 179 457 179 457 147.5 414 c 128,-1,13
 116 371 116 371 116 252.5 c 128,-1,14
 116 134 116 134 143.5 88.5 c 128,-1,15
 171 43 171 43 263.5 43 c 128,-1,8
 356 43 356 43 384 89 c 128,-1,9
129 646 m 1,16,-1
 129 695 l 1,17,-1
 401 695 l 1,18,-1
 401 646 l 1,19,-1
 129 646 l 1,16,-1
EndSplineSet
EndChar

StartChar: Obreve
Encoding: 334 334 265
Width: 662
GlyphClass: 2
Flags: W
LayerCount: 2
Fore
SplineSet
166 115.5 m 128,-1,1
 208 46 208 46 331.5 46 c 128,-1,2
 455 46 455 46 497 114 c 128,-1,3
 539 182 539 182 539 341.5 c 128,-1,4
 539 501 539 501 495 575 c 128,-1,5
 451 649 451 649 331 649 c 0,6,7
 207 649 207 649 164 569 c 0,8,9
 141 528 141 528 132.5 475 c 128,-1,10
 124 422 124 422 124 344 c 0,11,0
 124 185 124 185 166 115.5 c 128,-1,1
544.5 73 m 128,-1,13
 486 -10 486 -10 331.5 -10 c 128,-1,14
 177 -10 177 -10 118.5 75 c 128,-1,15
 60 160 60 160 60 343.5 c 128,-1,16
 60 527 60 527 119 616 c 128,-1,17
 178 705 178 705 331 705 c 128,-1,18
 484 705 484 705 543.5 616.5 c 128,-1,19
 603 528 603 528 603 342 c 128,-1,12
 603 156 603 156 544.5 73 c 128,-1,13
332 841 m 128,-1,21
 371 841 371 841 398 862.5 c 128,-1,22
 425 884 425 884 426 920 c 1,23,-1
 482 920 l 1,24,25
 481 863 481 863 439 828 c 128,-1,26
 397 793 397 793 332 793 c 128,-1,27
 267 793 267 793 225.5 828 c 128,-1,28
 184 863 184 863 182 920 c 1,29,-1
 239 920 l 1,30,31
 240 884 240 884 266.5 862.5 c 128,-1,20
 293 841 293 841 332 841 c 128,-1,21
EndSplineSet
Position2: "'cpsp' Capital Spacing in Latin lookup 0 subtable" dx=5 dy=0 dh=10 dv=0
EndChar

StartChar: obreve
Encoding: 335 335 266
Width: 527
GlyphClass: 2
Flags: W
LayerCount: 2
Fore
SplineSet
425.5 451 m 128,-1,1
 473 392 473 392 473 251 c 128,-1,2
 473 110 473 110 429.5 50 c 128,-1,3
 386 -10 386 -10 264 -10 c 128,-1,4
 142 -10 142 -10 98 50 c 128,-1,5
 54 110 54 110 54 251 c 128,-1,6
 54 392 54 392 101.5 451 c 128,-1,7
 149 510 149 510 263.5 510 c 128,-1,0
 378 510 378 510 425.5 451 c 128,-1,1
384 89 m 128,-1,9
 412 135 412 135 412 252.5 c 128,-1,10
 412 370 412 370 380.5 413.5 c 128,-1,11
 349 457 349 457 264 457 c 128,-1,12
 179 457 179 457 147.5 414 c 128,-1,13
 116 371 116 371 116 252.5 c 128,-1,14
 116 134 116 134 143.5 88.5 c 128,-1,15
 171 43 171 43 263.5 43 c 128,-1,8
 356 43 356 43 384 89 c 128,-1,9
198.5 660.5 m 128,-1,17
 223 636 223 636 265.5 636 c 128,-1,18
 308 636 308 636 333 661 c 128,-1,19
 358 686 358 686 359 725 c 1,20,-1
 411 725 l 1,21,22
 409 666 409 666 369.5 627.5 c 128,-1,23
 330 589 330 589 266 589 c 128,-1,24
 202 589 202 589 163 627.5 c 128,-1,25
 124 666 124 666 122 725 c 1,26,-1
 173 725 l 1,27,16
 174 685 174 685 198.5 660.5 c 128,-1,17
EndSplineSet
EndChar

StartChar: Ohungarumlaut
Encoding: 336 336 267
Width: 662
GlyphClass: 2
Flags: W
LayerCount: 2
Fore
SplineSet
166 115.5 m 128,-1,1
 208 46 208 46 331.5 46 c 128,-1,2
 455 46 455 46 497 114 c 128,-1,3
 539 182 539 182 539 341.5 c 128,-1,4
 539 501 539 501 495 575 c 128,-1,5
 451 649 451 649 331 649 c 0,6,7
 207 649 207 649 164 569 c 0,8,9
 141 528 141 528 132.5 475 c 128,-1,10
 124 422 124 422 124 344 c 0,11,0
 124 185 124 185 166 115.5 c 128,-1,1
544.5 73 m 128,-1,13
 486 -10 486 -10 331.5 -10 c 128,-1,14
 177 -10 177 -10 118.5 75 c 128,-1,15
 60 160 60 160 60 343.5 c 128,-1,16
 60 527 60 527 119 616 c 128,-1,17
 178 705 178 705 331 705 c 128,-1,18
 484 705 484 705 543.5 616.5 c 128,-1,19
 603 528 603 528 603 342 c 128,-1,12
 603 156 603 156 544.5 73 c 128,-1,13
344 787 m 1,20,-1
 504 901 l 1,21,-1
 545 869 l 1,22,-1
 381 755 l 1,23,-1
 344 787 l 1,20,-1
149 787 m 1,24,-1
 310 902 l 1,25,-1
 349 869 l 1,26,-1
 187 756 l 1,27,-1
 149 787 l 1,24,-1
EndSplineSet
Position2: "'cpsp' Capital Spacing in Latin lookup 0 subtable" dx=5 dy=0 dh=10 dv=0
EndChar

StartChar: ohungarumlaut
Encoding: 337 337 268
Width: 527
GlyphClass: 2
Flags: W
LayerCount: 2
Fore
SplineSet
425.5 451 m 128,-1,1
 473 392 473 392 473 251 c 128,-1,2
 473 110 473 110 429.5 50 c 128,-1,3
 386 -10 386 -10 264 -10 c 128,-1,4
 142 -10 142 -10 98 50 c 128,-1,5
 54 110 54 110 54 251 c 128,-1,6
 54 392 54 392 101.5 451 c 128,-1,7
 149 510 149 510 263.5 510 c 128,-1,0
 378 510 378 510 425.5 451 c 128,-1,1
384 89 m 128,-1,9
 412 135 412 135 412 252.5 c 128,-1,10
 412 370 412 370 380.5 413.5 c 128,-1,11
 349 457 349 457 264 457 c 128,-1,12
 179 457 179 457 147.5 414 c 128,-1,13
 116 371 116 371 116 252.5 c 128,-1,14
 116 134 116 134 143.5 88.5 c 128,-1,15
 171 43 171 43 263.5 43 c 128,-1,8
 356 43 356 43 384 89 c 128,-1,9
293 623 m 1,16,-1
 444 749 l 1,17,-1
 485 712 l 1,18,-1
 332 587 l 1,19,-1
 293 623 l 1,16,-1
103 623 m 1,20,-1
 255 749 l 1,21,-1
 295 712 l 1,22,-1
 142 587 l 1,23,-1
 103 623 l 1,20,-1
EndSplineSet
EndChar

StartChar: OE
Encoding: 338 338 269
Width: 930
GlyphClass: 2
Flags: W
LayerCount: 2
Fore
SplineSet
882 -1 m 1,0,-1
 474 -1 l 1,1,2
 382 -10 382 -10 326 -10 c 0,3,4
 173 -10 173 -10 116.5 74.5 c 128,-1,5
 60 159 60 159 60 345.5 c 128,-1,6
 60 532 60 532 118 619.5 c 128,-1,7
 176 707 176 707 326 707 c 0,8,9
 411 707 411 707 473 697 c 1,10,-1
 882 697 l 1,11,-1
 882 637 l 1,12,-1
 534 637 l 1,13,-1
 534 387 l 1,14,-1
 822 387 l 1,15,-1
 822 327 l 1,16,-1
 534 327 l 1,17,-1
 534 60 l 1,18,-1
 882 60 l 1,19,-1
 882 -1 l 1,0,-1
226 67.5 m 128,-1,21
 267 50 267 50 323.5 50 c 128,-1,22
 380 50 380 50 473 58 c 1,23,-1
 473 637 l 1,24,25
 345 648 345 648 331 648 c 0,26,27
 210 648 210 648 167 577.5 c 128,-1,28
 124 507 124 507 124 346 c 0,29,30
 124 266 124 266 132 214.5 c 128,-1,31
 140 163 140 163 162.5 124 c 128,-1,20
 185 85 185 85 226 67.5 c 128,-1,21
EndSplineSet
Position2: "'cpsp' Capital Spacing in Latin lookup 0 subtable" dx=5 dy=0 dh=10 dv=0
EndChar

StartChar: oe
Encoding: 339 339 270
Width: 863
GlyphClass: 2
Flags: W
LayerCount: 2
Fore
SplineSet
612 45 m 0,0,1
 662 45 662 45 766 52 c 2,2,-1
 795 54 l 1,3,-1
 797 4 l 1,4,5
 684 -10 684 -10 606 -10 c 0,6,7
 483 -10 483 -10 441 87 c 1,8,9
 421 36 421 36 379.5 13 c 128,-1,10
 338 -10 338 -10 265 -10 c 0,11,12
 143 -10 143 -10 98.5 50.5 c 128,-1,13
 54 111 54 111 54 251.5 c 128,-1,14
 54 392 54 392 102.5 450.5 c 128,-1,15
 151 509 151 509 265 509 c 0,16,17
 335 509 335 509 378.5 483 c 128,-1,18
 422 457 422 457 444 399 c 1,19,20
 489 509 489 509 618 509 c 0,21,22
 717 509 717 509 766 452.5 c 128,-1,23
 815 396 815 396 815 273 c 1,24,-1
 813 225 l 1,25,-1
 473 225 l 1,26,27
 473 133 473 133 504.5 89 c 128,-1,28
 536 45 536 45 612 45 c 0,0,1
144.5 90.5 m 128,-1,30
 173 44 173 44 264.5 44 c 128,-1,31
 356 44 356 44 384 92 c 128,-1,32
 412 140 412 140 412 251.5 c 128,-1,33
 412 363 412 363 377 409 c 128,-1,34
 342 455 342 455 261 455 c 128,-1,35
 180 455 180 455 148 412.5 c 128,-1,36
 116 370 116 370 116 253.5 c 128,-1,29
 116 137 116 137 144.5 90.5 c 128,-1,30
473 275 m 1,37,-1
 755 275 l 1,38,39
 755 373 755 373 722.5 414.5 c 128,-1,40
 690 456 690 456 618 456 c 0,41,42
 473 456 473 456 473 275 c 1,37,-1
EndSplineSet
EndChar

StartChar: Racute
Encoding: 340 340 271
Width: 615
GlyphClass: 2
Flags: W
LayerCount: 2
Fore
SplineSet
149 274 m 1,0,-1
 149 0 l 1,1,-1
 87 0 l 1,2,-1
 87 695 l 1,3,-1
 342 695 l 2,4,5
 451 695 451 695 504.5 645.5 c 128,-1,6
 558 596 558 596 558 489 c 0,7,8
 558 322 558 322 424 286 c 1,9,-1
 567 0 l 1,10,-1
 498 0 l 1,11,-1
 361 274 l 1,12,-1
 149 274 l 1,0,-1
494 488 m 0,13,14
 494 566 494 566 457 603 c 128,-1,15
 420 640 420 640 342 640 c 2,16,-1
 149 640 l 1,17,-1
 149 329 l 1,18,-1
 342 329 l 2,19,20
 494 329 494 329 494 488 c 0,13,14
191 829 m 1,21,-1
 398 928 l 1,22,-1
 420 874 l 1,23,-1
 211 786 l 1,24,-1
 191 829 l 1,21,-1
EndSplineSet
Position2: "'cpsp' Capital Spacing in Latin lookup 0 subtable" dx=5 dy=0 dh=10 dv=0
EndChar

StartChar: racute
Encoding: 341 341 272
Width: 339
GlyphClass: 2
Flags: W
LayerCount: 2
Fore
SplineSet
75 0 m 1,0,-1
 75 500 l 1,1,-1
 134 500 l 1,2,-1
 134 428 l 1,3,4
 171 454 171 454 224.5 478 c 128,-1,5
 278 502 278 502 323 510 c 1,6,-1
 323 450 l 1,7,8
 280 441 280 441 233 422.5 c 128,-1,9
 186 404 186 404 160 390 c 2,10,-1
 134 375 l 1,11,-1
 134 0 l 1,12,-1
 75 0 l 1,0,-1
71 640 m 1,13,-1
 278 737 l 1,14,-1
 300 685 l 1,15,-1
 90 598 l 1,16,-1
 71 640 l 1,13,-1
EndSplineSet
EndChar

StartChar: Rcommaaccent
Encoding: 342 342 273
Width: 615
GlyphClass: 2
Flags: W
LayerCount: 2
Fore
SplineSet
254 -278 m 1,0,-1
 293 -78 l 1,1,-1
 353 -78 l 1,2,-1
 305 -278 l 1,3,-1
 254 -278 l 1,0,-1
149 274 m 1,4,-1
 149 0 l 1,5,-1
 87 0 l 1,6,-1
 87 695 l 1,7,-1
 342 695 l 2,8,9
 451 695 451 695 504.5 645.5 c 128,-1,10
 558 596 558 596 558 489 c 0,11,12
 558 322 558 322 424 286 c 1,13,-1
 567 0 l 1,14,-1
 498 0 l 1,15,-1
 361 274 l 1,16,-1
 149 274 l 1,4,-1
494 488 m 0,17,18
 494 566 494 566 457 603 c 128,-1,19
 420 640 420 640 342 640 c 2,20,-1
 149 640 l 1,21,-1
 149 329 l 1,22,-1
 342 329 l 2,23,24
 494 329 494 329 494 488 c 0,17,18
EndSplineSet
Position2: "'cpsp' Capital Spacing in Latin lookup 0 subtable" dx=5 dy=0 dh=10 dv=0
EndChar

StartChar: rcommaaccent
Encoding: 343 343 274
Width: 339
GlyphClass: 2
Flags: W
LayerCount: 2
Fore
SplineSet
75 -78 m 1,0,-1
 135 -78 l 1,1,-1
 87 -278 l 1,2,-1
 35 -278 l 1,3,-1
 75 -78 l 1,0,-1
75 0 m 1,4,-1
 75 500 l 1,5,-1
 134 500 l 1,6,-1
 134 428 l 1,7,8
 171 454 171 454 224.5 478 c 128,-1,9
 278 502 278 502 323 510 c 1,10,-1
 323 450 l 1,11,12
 280 441 280 441 233 422.5 c 128,-1,13
 186 404 186 404 160 390 c 2,14,-1
 134 375 l 1,15,-1
 134 0 l 1,16,-1
 75 0 l 1,4,-1
EndSplineSet
EndChar

StartChar: Rcaron
Encoding: 344 344 275
Width: 615
GlyphClass: 2
Flags: W
LayerCount: 2
Fore
SplineSet
149 274 m 1,0,-1
 149 0 l 1,1,-1
 87 0 l 1,2,-1
 87 695 l 1,3,-1
 342 695 l 2,4,5
 451 695 451 695 504.5 645.5 c 128,-1,6
 558 596 558 596 558 489 c 0,7,8
 558 322 558 322 424 286 c 1,9,-1
 567 0 l 1,10,-1
 498 0 l 1,11,-1
 361 274 l 1,12,-1
 149 274 l 1,0,-1
494 488 m 0,13,14
 494 566 494 566 457 603 c 128,-1,15
 420 640 420 640 342 640 c 2,16,-1
 149 640 l 1,17,-1
 149 329 l 1,18,-1
 342 329 l 2,19,20
 494 329 494 329 494 488 c 0,13,14
274 798 m 1,21,-1
 140 929 l 1,22,-1
 209 929 l 1,23,-1
 300 843 l 1,24,-1
 390 929 l 1,25,-1
 460 929 l 1,26,-1
 326 798 l 1,27,-1
 274 798 l 1,21,-1
EndSplineSet
Position2: "'cpsp' Capital Spacing in Latin lookup 0 subtable" dx=5 dy=0 dh=10 dv=0
EndChar

StartChar: rcaron
Encoding: 345 345 276
Width: 339
GlyphClass: 2
Flags: W
LayerCount: 2
Fore
SplineSet
75 0 m 1,0,-1
 75 500 l 1,1,-1
 134 500 l 1,2,-1
 134 428 l 1,3,4
 171 454 171 454 224.5 478 c 128,-1,5
 278 502 278 502 323 510 c 1,6,-1
 323 450 l 1,7,8
 280 441 280 441 233 422.5 c 128,-1,9
 186 404 186 404 160 390 c 2,10,-1
 134 375 l 1,11,-1
 134 0 l 1,12,-1
 75 0 l 1,0,-1
153 595 m 1,13,-1
 31 732 l 1,14,-1
 93 732 l 1,15,-1
 175 641 l 1,16,-1
 256 732 l 1,17,-1
 318 732 l 1,18,-1
 195 595 l 1,19,-1
 153 595 l 1,13,-1
EndSplineSet
EndChar

StartChar: Sacute
Encoding: 346 346 277
Width: 541
GlyphClass: 2
Flags: W
LayerCount: 2
Fore
SplineSet
275 651 m 0,0,1
 114 651 114 651 114 528 c 0,2,3
 114 456 114 456 150.5 431 c 128,-1,4
 187 406 187 406 293.5 385 c 128,-1,5
 400 364 400 364 445.5 327 c 128,-1,6
 491 290 491 290 491 203 c 0,7,8
 491 91 491 91 435.5 41.5 c 128,-1,9
 380 -8 380 -8 273 -8 c 0,10,11
 195 -8 195 -8 92 6 c 2,12,-1
 56 11 l 1,13,-1
 63 64 l 1,14,15
 200 47 200 47 275 47 c 128,-1,16
 350 47 350 47 389 83.5 c 128,-1,17
 428 120 428 120 428 190.5 c 128,-1,18
 428 261 428 261 393.5 286.5 c 128,-1,19
 359 312 359 312 283.5 326 c 128,-1,20
 208 340 208 340 173 351.5 c 128,-1,21
 138 363 138 363 107.5 384.5 c 128,-1,22
 77 406 77 406 64 439.5 c 128,-1,23
 51 473 51 473 51 524 c 0,24,25
 51 706 51 706 271 706 c 0,26,27
 337 706 337 706 443 692 c 1,28,-1
 476 687 l 1,29,-1
 471 634 l 1,30,31
 333 651 333 651 275 651 c 0,0,1
168 829 m 1,32,-1
 375 928 l 1,33,-1
 397 874 l 1,34,-1
 188 786 l 1,35,-1
 168 829 l 1,32,-1
EndSplineSet
Position2: "'cpsp' Capital Spacing in Latin lookup 0 subtable" dx=5 dy=0 dh=10 dv=0
EndChar

StartChar: sacute
Encoding: 347 347 278
Width: 464
GlyphClass: 2
Flags: W
LayerCount: 2
Fore
SplineSet
226 455 m 0,0,1
 108 455 108 455 108 370 c 0,2,3
 108 331 108 331 134 315 c 128,-1,4
 160 299 160 299 251.5 283.5 c 128,-1,5
 343 268 343 268 380.5 241 c 128,-1,6
 418 214 418 214 418 137.5 c 128,-1,7
 418 61 418 61 369 25.5 c 128,-1,8
 320 -10 320 -10 225 -10 c 0,9,10
 170 -10 170 -10 83 4 c 1,11,-1
 54 8 l 1,12,-1
 58 61 l 1,13,14
 170 44 170 44 230 44 c 128,-1,15
 290 44 290 44 323.5 65 c 128,-1,16
 357 86 357 86 357 136 c 128,-1,17
 357 186 357 186 329.5 202.5 c 128,-1,18
 302 219 302 219 211.5 233 c 128,-1,19
 121 247 121 247 84 273 c 128,-1,20
 47 299 47 299 47 371 c 128,-1,21
 47 443 47 443 98 476 c 128,-1,22
 149 509 149 509 224 509 c 0,23,24
 284 509 284 509 374 496 c 2,25,-1
 401 492 l 1,26,-1
 399 439 l 1,27,28
 292 455 292 455 226 455 c 0,0,1
119 640 m 1,29,-1
 326 737 l 1,30,-1
 348 685 l 1,31,-1
 138 598 l 1,32,-1
 119 640 l 1,29,-1
EndSplineSet
EndChar

StartChar: Scircumflex
Encoding: 348 348 279
Width: 541
GlyphClass: 2
Flags: W
LayerCount: 2
Fore
SplineSet
275 651 m 0,0,1
 114 651 114 651 114 528 c 0,2,3
 114 456 114 456 150.5 431 c 128,-1,4
 187 406 187 406 293.5 385 c 128,-1,5
 400 364 400 364 445.5 327 c 128,-1,6
 491 290 491 290 491 203 c 0,7,8
 491 91 491 91 435.5 41.5 c 128,-1,9
 380 -8 380 -8 273 -8 c 0,10,11
 195 -8 195 -8 92 6 c 2,12,-1
 56 11 l 1,13,-1
 63 64 l 1,14,15
 200 47 200 47 275 47 c 128,-1,16
 350 47 350 47 389 83.5 c 128,-1,17
 428 120 428 120 428 190.5 c 128,-1,18
 428 261 428 261 393.5 286.5 c 128,-1,19
 359 312 359 312 283.5 326 c 128,-1,20
 208 340 208 340 173 351.5 c 128,-1,21
 138 363 138 363 107.5 384.5 c 128,-1,22
 77 406 77 406 64 439.5 c 128,-1,23
 51 473 51 473 51 524 c 0,24,25
 51 706 51 706 271 706 c 0,26,27
 337 706 337 706 443 692 c 1,28,-1
 476 687 l 1,29,-1
 471 634 l 1,30,31
 333 651 333 651 275 651 c 0,0,1
113 794 m 1,32,-1
 247 925 l 1,33,-1
 299 925 l 1,34,-1
 433 794 l 1,35,-1
 364 794 l 1,36,-1
 274 880 l 1,37,-1
 183 794 l 1,38,-1
 113 794 l 1,32,-1
EndSplineSet
Position2: "'cpsp' Capital Spacing in Latin lookup 0 subtable" dx=5 dy=0 dh=10 dv=0
EndChar

StartChar: scircumflex
Encoding: 349 349 280
Width: 464
GlyphClass: 2
Flags: W
LayerCount: 2
Fore
SplineSet
226 455 m 0,0,1
 108 455 108 455 108 370 c 0,2,3
 108 331 108 331 134 315 c 128,-1,4
 160 299 160 299 251.5 283.5 c 128,-1,5
 343 268 343 268 380.5 241 c 128,-1,6
 418 214 418 214 418 137.5 c 128,-1,7
 418 61 418 61 369 25.5 c 128,-1,8
 320 -10 320 -10 225 -10 c 0,9,10
 170 -10 170 -10 83 4 c 1,11,-1
 54 8 l 1,12,-1
 58 61 l 1,13,14
 170 44 170 44 230 44 c 128,-1,15
 290 44 290 44 323.5 65 c 128,-1,16
 357 86 357 86 357 136 c 128,-1,17
 357 186 357 186 329.5 202.5 c 128,-1,18
 302 219 302 219 211.5 233 c 128,-1,19
 121 247 121 247 84 273 c 128,-1,20
 47 299 47 299 47 371 c 128,-1,21
 47 443 47 443 98 476 c 128,-1,22
 149 509 149 509 224 509 c 0,23,24
 284 509 284 509 374 496 c 2,25,-1
 401 492 l 1,26,-1
 399 439 l 1,27,28
 292 455 292 455 226 455 c 0,0,1
90 595 m 1,29,-1
 212 732 l 1,30,-1
 254 732 l 1,31,-1
 377 595 l 1,32,-1
 314 595 l 1,33,-1
 234 687 l 1,34,-1
 153 595 l 1,35,-1
 90 595 l 1,29,-1
EndSplineSet
EndChar

StartChar: Scedilla
Encoding: 350 350 281
Width: 541
GlyphClass: 2
Flags: W
LayerCount: 2
Fore
SplineSet
404 -127 m 0,0,1
 404 -211 404 -211 315 -211 c 1,2,-1
 231 -205 l 1,3,-1
 233 -165 l 1,4,5
 274 -168 274 -168 304 -168 c 0,6,7
 349 -168 349 -168 349 -127 c 0,8,9
 349 -90 349 -90 304 -90 c 2,10,-1
 257 -90 l 1,11,-1
 257 -8 l 1,12,13
 177 -6 177 -6 88 6 c 1,14,-1
 56 11 l 1,15,-1
 63 64 l 1,16,17
 200 47 200 47 275 47 c 128,-1,18
 350 47 350 47 389 83.5 c 128,-1,19
 428 120 428 120 428 190.5 c 128,-1,20
 428 261 428 261 393.5 286.5 c 128,-1,21
 359 312 359 312 283.5 326 c 128,-1,22
 208 340 208 340 173 351.5 c 128,-1,23
 138 363 138 363 107.5 384.5 c 128,-1,24
 77 406 77 406 64 439.5 c 128,-1,25
 51 473 51 473 51 524 c 0,26,27
 51 706 51 706 271 706 c 0,28,29
 337 706 337 706 443 692 c 1,30,-1
 476 687 l 1,31,-1
 471 634 l 1,32,33
 333 651 333 651 275 651 c 0,34,35
 114 651 114 651 114 528 c 0,36,37
 114 456 114 456 150.5 431 c 128,-1,38
 187 406 187 406 293.5 385 c 128,-1,39
 400 364 400 364 445.5 327 c 128,-1,40
 491 290 491 290 491 194 c 0,41,42
 491 3 491 3 295 -7 c 1,43,-1
 295 -52 l 1,44,45
 353 -52 353 -52 378.5 -67.5 c 128,-1,46
 404 -83 404 -83 404 -127 c 0,0,1
EndSplineSet
Substitution2: "'locl' Localized Forms in Latin lookup 0 subtable" Scommaaccent
Position2: "'cpsp' Capital Spacing in Latin lookup 0 subtable" dx=5 dy=0 dh=10 dv=0
EndChar

StartChar: scedilla
Encoding: 351 351 282
Width: 464
GlyphClass: 2
Flags: W
LayerCount: 2
Fore
SplineSet
351 -127 m 0,0,1
 351 -211 351 -211 262 -211 c 1,2,-1
 178 -205 l 1,3,-1
 180 -165 l 1,4,5
 221 -168 221 -168 251 -168 c 0,6,7
 296 -168 296 -168 296 -127 c 0,8,9
 296 -90 296 -90 251 -90 c 2,10,-1
 204 -90 l 1,11,-1
 204 -9 l 1,12,13
 157 -7 157 -7 78 4 c 1,14,-1
 54 8 l 1,15,-1
 58 61 l 1,16,17
 170 44 170 44 230 44 c 128,-1,18
 290 44 290 44 323.5 65 c 128,-1,19
 357 86 357 86 357 136 c 128,-1,20
 357 186 357 186 329.5 202.5 c 128,-1,21
 302 219 302 219 211.5 233 c 128,-1,22
 121 247 121 247 84 273 c 128,-1,23
 47 299 47 299 47 371 c 128,-1,24
 47 443 47 443 98 476 c 128,-1,25
 149 509 149 509 224 509 c 0,26,27
 284 509 284 509 374 496 c 2,28,-1
 401 492 l 1,29,-1
 399 439 l 1,30,31
 292 455 292 455 226 455 c 0,32,33
 108 455 108 455 108 370 c 0,34,35
 108 331 108 331 134 315 c 128,-1,36
 160 299 160 299 251.5 283.5 c 128,-1,37
 343 268 343 268 380.5 241 c 128,-1,38
 418 214 418 214 418 139 c 128,-1,39
 418 64 418 64 373.5 28.5 c 128,-1,40
 329 -7 329 -7 242 -10 c 1,41,-1
 242 -52 l 1,42,43
 300 -52 300 -52 325.5 -67.5 c 128,-1,44
 351 -83 351 -83 351 -127 c 0,0,1
EndSplineSet
Substitution2: "'locl' Localized Forms in Latin lookup 0 subtable" scommaaccent
EndChar

StartChar: Scaron
Encoding: 352 352 283
Width: 541
GlyphClass: 2
Flags: W
LayerCount: 2
Fore
SplineSet
275 651 m 0,0,1
 114 651 114 651 114 528 c 0,2,3
 114 456 114 456 150.5 431 c 128,-1,4
 187 406 187 406 293.5 385 c 128,-1,5
 400 364 400 364 445.5 327 c 128,-1,6
 491 290 491 290 491 203 c 0,7,8
 491 91 491 91 435.5 41.5 c 128,-1,9
 380 -8 380 -8 273 -8 c 0,10,11
 195 -8 195 -8 92 6 c 2,12,-1
 56 11 l 1,13,-1
 63 64 l 1,14,15
 200 47 200 47 275 47 c 128,-1,16
 350 47 350 47 389 83.5 c 128,-1,17
 428 120 428 120 428 190.5 c 128,-1,18
 428 261 428 261 393.5 286.5 c 128,-1,19
 359 312 359 312 283.5 326 c 128,-1,20
 208 340 208 340 173 351.5 c 128,-1,21
 138 363 138 363 107.5 384.5 c 128,-1,22
 77 406 77 406 64 439.5 c 128,-1,23
 51 473 51 473 51 524 c 0,24,25
 51 706 51 706 271 706 c 0,26,27
 337 706 337 706 443 692 c 1,28,-1
 476 687 l 1,29,-1
 471 634 l 1,30,31
 333 651 333 651 275 651 c 0,0,1
253 798 m 1,32,-1
 119 929 l 1,33,-1
 188 929 l 1,34,-1
 279 843 l 1,35,-1
 369 929 l 1,36,-1
 439 929 l 1,37,-1
 305 798 l 1,38,-1
 253 798 l 1,32,-1
EndSplineSet
Position2: "'cpsp' Capital Spacing in Latin lookup 0 subtable" dx=5 dy=0 dh=10 dv=0
EndChar

StartChar: scaron
Encoding: 353 353 284
Width: 464
GlyphClass: 2
Flags: W
LayerCount: 2
Fore
SplineSet
226 455 m 0,0,1
 108 455 108 455 108 370 c 0,2,3
 108 331 108 331 134 315 c 128,-1,4
 160 299 160 299 251.5 283.5 c 128,-1,5
 343 268 343 268 380.5 241 c 128,-1,6
 418 214 418 214 418 137.5 c 128,-1,7
 418 61 418 61 369 25.5 c 128,-1,8
 320 -10 320 -10 225 -10 c 0,9,10
 170 -10 170 -10 83 4 c 1,11,-1
 54 8 l 1,12,-1
 58 61 l 1,13,14
 170 44 170 44 230 44 c 128,-1,15
 290 44 290 44 323.5 65 c 128,-1,16
 357 86 357 86 357 136 c 128,-1,17
 357 186 357 186 329.5 202.5 c 128,-1,18
 302 219 302 219 211.5 233 c 128,-1,19
 121 247 121 247 84 273 c 128,-1,20
 47 299 47 299 47 371 c 128,-1,21
 47 443 47 443 98 476 c 128,-1,22
 149 509 149 509 224 509 c 0,23,24
 284 509 284 509 374 496 c 2,25,-1
 401 492 l 1,26,-1
 399 439 l 1,27,28
 292 455 292 455 226 455 c 0,0,1
219 595 m 1,29,-1
 97 732 l 1,30,-1
 159 732 l 1,31,-1
 241 641 l 1,32,-1
 322 732 l 1,33,-1
 384 732 l 1,34,-1
 261 595 l 1,35,-1
 219 595 l 1,29,-1
EndSplineSet
EndChar

